Jost-200-ThinItalic.ufo
<glyph name="exclam" format="1">
  <advance width="256"/>
  <unicode hex="0021"/>
  <outline>
    <contour>
      <point x="294" y="699.5" type="line"/>
      <point x="334" y="699.5" type="line"/>
      <point x="154" y="201" type="line"/>
      <point x="132" y="201" type="line"/>
    </contour>
    <contour>
      <point x="53.5" y="12.5" type="curve" smooth="yes"/>
      <point x="53.5" y="26.5"/>
      <point x="65" y="37"/>
      <point x="78" y="37" type="curve" smooth="yes"/>
      <point x="91" y="37"/>
      <point x="102" y="26.5"/>
      <point x="102" y="12.5" type="curve" smooth="yes"/>
      <point x="102" y="-1.5"/>
      <point x="91" y="-11.5"/>
      <point x="78" y="-11.5" type="curve" smooth="yes"/>
      <point x="65" y="-11.5"/>
      <point x="53.5" y="-1.5"/>
    </contour>
  </outline>
</glyph>
<glyph name="quotedbl" format="1">
  <advance width="395"/>
  <unicode hex="0022"/>
  <outline>
    <contour>
      <point x="310" y="699" type="line"/>
      <point x="348" y="699" type="line"/>
      <point x="195" y="415" type="line"/>
      <point x="174" y="415" type="line"/>
    </contour>
    <contour>
      <point x="480" y="699" type="line"/>
      <point x="517" y="699" type="line"/>
      <point x="364" y="415" type="line"/>
      <point x="343" y="415" type="line"/>
    </contour>
  </outline>
</glyph>
<glyph name="numbersign" format="1">
  <advance width="546"/>
  <unicode hex="0023"/>
  <outline>
    <contour>
      <point x="170" y="450" type="line"/>
      <point x="178" y="476" type="line"/>
      <point x="622" y="476" type="line"/>
      <point x="613" y="450" type="line"/>
      <point x="500" y="450" type="line"/>
      <point x="493" y="450" type="line"/>
      <point x="302" y="450" type="line"/>
      <point x="296" y="450" type="line"/>
    </contour>
    <contour>
      <point x="56" y="229" type="line"/>
      <point x="65" y="255" type="line"/>
      <point x="179" y="255" type="line"/>
      <point x="187" y="255" type="line"/>
      <point x="377" y="255" type="line"/>
      <point x="387" y="255" type="line"/>
      <point x="509" y="255" type="line"/>
      <point x="501" y="229" type="line"/>
    </contour>
    <contour>
      <point x="622" y="699" type="line"/>
      <point x="653" y="699" type="line"/>
      <point x="251" y="0" type="line"/>
      <point x="221" y="0" type="line"/>
      <point x="359" y="239" type="line"/>
      <point x="363" y="246" type="line"/>
      <point x="484" y="459" type="line"/>
      <point x="488" y="467" type="line"/>
    </contour>
    <contour>
      <point x="424" y="699" type="line"/>
      <point x="455" y="699" type="line"/>
      <point x="321" y="468" type="line"/>
      <point x="317" y="460" type="line"/>
      <point x="194" y="244" type="line"/>
      <point x="191" y="238" type="line"/>
      <point x="54" y="1" type="line"/>
      <point x="25" y="0" type="line"/>
    </contour>
  </outline>
</glyph>
<glyph name="dollar" format="1">
  <advance width="545"/>
  <unicode hex="0024"/>
  <outline>
    <contour>
      <point x="454.5" y="817" type="line"/>
      <point x="483" y="817" type="line"/>
      <point x="441.5" y="691.5" type="line"/>
      <point x="413.5" y="691.5" type="line"/>
    </contour>
    <contour>
      <point x="208.5" y="12.5" type="line"/>
      <point x="236" y="12.5" type="line"/>
      <point x="196" y="-111.5" type="line"/>
      <point x="167.5" y="-111.5" type="line"/>
    </contour>
    <contour>
      <point x="539" y="538" type="line"/>
      <point x="533" y="608"/>
      <point x="506" y="674"/>
      <point x="425.5" y="675.5" type="curve" smooth="yes"/>
      <point x="348" y="677"/>
      <point x="267.5" y="619.5"/>
      <point x="243.5" y="545" type="curve" smooth="yes"/>
      <point x="215.5" y="457.5"/>
      <point x="288.5" y="411"/>
      <point x="355.5" y="376.5" type="curve" smooth="yes"/>
      <point x="435" y="336"/>
      <point x="486" y="271.5"/>
      <point x="460" y="179" type="curve" smooth="yes"/>
      <point x="430.5" y="73.5"/>
      <point x="331.5" y="-9"/>
      <point x="219.5" y="-7.5" type="curve" smooth="yes"/>
      <point x="106" y="-6"/>
      <point x="72" y="94.5"/>
      <point x="66" y="190.5" type="curve"/>
      <point x="97.5" y="205.5" type="line"/>
      <point x="101.5" y="121.5"/>
      <point x="124.5" y="25.5"/>
      <point x="226.5" y="24" type="curve" smooth="yes"/>
      <point x="319" y="22.5"/>
      <point x="400.5" y="90.5"/>
      <point x="426.5" y="177.5" type="curve" smooth="yes"/>
      <point x="452" y="263"/>
      <point x="397.5" y="316.5"/>
      <point x="327" y="352.5" type="curve" smooth="yes"/>
      <point x="249" y="392"/>
      <point x="182.5" y="452.5"/>
      <point x="211" y="547.5" type="curve" smooth="yes"/>
      <point x="238" y="638"/>
      <point x="336.5" y="708.5"/>
      <point x="431" y="707.5" type="curve" smooth="yes"/>
      <point x="524" y="706.5"/>
      <point x="562" y="634.5"/>
      <point x="569" y="552.5" type="curve"/>
    </contour>
  </outline>
</glyph>
<glyph name="percent" format="1">
  <advance width="672"/>
  <unicode hex="0025"/>
  <outline>
    <contour>
      <point x="168" y="558" type="curve" smooth="yes"/>
      <point x="194" y="637"/>
      <point x="274" y="710"/>
      <point x="360" y="709" type="curve" smooth="yes"/>
      <point x="445" y="708"/>
      <point x="478" y="630"/>
      <point x="454" y="556" type="curve" smooth="yes"/>
      <point x="428" y="477"/>
      <point x="347" y="404"/>
      <point x="261" y="405" type="curve" smooth="yes"/>
      <point x="176" y="406"/>
      <point x="144" y="484"/>
    </contour>
    <contour>
      <point x="195" y="557" type="curve" smooth="yes"/>
      <point x="175" y="499"/>
      <point x="195" y="432"/>
      <point x="265" y="430" type="curve" smooth="yes"/>
      <point x="336" y="428"/>
      <point x="405" y="493"/>
      <point x="427" y="557" type="curve" smooth="yes"/>
      <point x="447" y="615"/>
      <point x="426" y="681"/>
      <point x="357" y="683" type="curve" smooth="yes"/>
      <point x="286" y="685"/>
      <point x="217" y="621"/>
    </contour>
    <contour>
      <point x="350" y="144" type="curve" smooth="yes"/>
      <point x="376" y="223"/>
      <point x="457" y="296"/>
      <point x="543" y="295" type="curve" smooth="yes"/>
      <point x="628" y="294"/>
      <point x="660" y="216"/>
      <point x="636" y="142" type="curve" smooth="yes"/>
      <point x="610" y="63"/>
      <point x="529" y="-10"/>
      <point x="443" y="-9" type="curve" smooth="yes"/>
      <point x="358" y="-8"/>
      <point x="326" y="70"/>
    </contour>
    <contour>
      <point x="377" y="143" type="curve" smooth="yes"/>
      <point x="357" y="85"/>
      <point x="377" y="18"/>
      <point x="447" y="16" type="curve" smooth="yes"/>
      <point x="518" y="14"/>
      <point x="587" y="79"/>
      <point x="609" y="143" type="curve" smooth="yes"/>
      <point x="629" y="201"/>
      <point x="607" y="267"/>
      <point x="538" y="269" type="curve" smooth="yes"/>
      <point x="467" y="271"/>
      <point x="399" y="207"/>
    </contour>
    <contour>
      <point x="720" y="698" type="line"/>
      <point x="752" y="698" type="line"/>
      <point x="83" y="0" type="line"/>
      <point x="52" y="0" type="line"/>
    </contour>
  </outline>
</glyph>
<glyph name="ampersand" format="1">
  <advance width="635"/>
  <unicode hex="0026"/>
  <outline>
    <contour>
      <point x="277" y="414" type="line" smooth="yes"/>
      <point x="252" y="463.5"/>
      <point x="233" y="515.5"/>
      <point x="250" y="571" type="curve" smooth="yes"/>
      <point x="274.5" y="650.5"/>
      <point x="356" y="712.5"/>
      <point x="440.5" y="710" type="curve" smooth="yes"/>
      <point x="519" y="708.5"/>
      <point x="559.5" y="640.5"/>
      <point x="537.5" y="567.5" type="curve" smooth="yes"/>
      <point x="512" y="481.5"/>
      <point x="420.5" y="430.5"/>
      <point x="347" y="391" type="curve" smooth="yes"/>
      <point x="250" y="338.5"/>
      <point x="125" y="293.5"/>
      <point x="89" y="177.5" type="curve" smooth="yes"/>
      <point x="61.5" y="88.5"/>
      <point x="116" y="21.5"/>
      <point x="207" y="20" type="curve" smooth="yes"/>
      <point x="383" y="16.5"/>
      <point x="517" y="204"/>
      <point x="629.5" y="314.5" type="curve"/>
      <point x="650" y="298.5" type="line"/>
      <point x="529" y="179.5"/>
      <point x="389.5" y="-11"/>
      <point x="201" y="-9" type="curve" smooth="yes"/>
      <point x="95.5" y="-7.5"/>
      <point x="26" y="71"/>
      <point x="56.5" y="176" type="curve" smooth="yes"/>
      <point x="93.5" y="302.5"/>
      <point x="222" y="354.5"/>
      <point x="328.5" y="410" type="curve" smooth="yes"/>
      <point x="395" y="445"/>
      <point x="482.5" y="491"/>
      <point x="507" y="568" type="curve" smooth="yes"/>
      <point x="525" y="624.5"/>
      <point x="498.5" y="679"/>
      <point x="436" y="681.5" type="curve" smooth="yes"/>
      <point x="369" y="684"/>
      <point x="301.5" y="632"/>
      <point x="281" y="570" type="curve" smooth="yes"/>
      <point x="265" y="521.5"/>
      <point x="282" y="475.5"/>
      <point x="303.5" y="432" type="curve" smooth="yes"/>
      <point x="527" y="0" type="line"/>
      <point x="493" y="0" type="line"/>
    </contour>
  </outline>
</glyph>
<glyph name="quotesingle" format="1">
  <advance width="245"/>
  <unicode hex="0027"/>
  <outline>
    <contour>
      <point x="259" y="700" type="line"/>
      <point x="302" y="700" type="line"/>
      <point x="184" y="413" type="line"/>
      <point x="159" y="413" type="line"/>
    </contour>
  </outline>
</glyph>
<glyph name="parenleft" format="1">
  <advance width="244"/>
  <unicode hex="0028"/>
  <outline>
    <contour>
      <point x="399" y="779" type="curve"/>
      <point x="424" y="779" type="line"/>
      <point x="313" y="631"/>
      <point x="225" y="466"/>
      <point x="171" y="290" type="curve" smooth="yes"/>
      <point x="122" y="131"/>
      <point x="102" y="-34"/>
      <point x="121" y="-200" type="curve"/>
      <point x="98" y="-200" type="line"/>
      <point x="71" y="-35"/>
      <point x="90" y="131"/>
      <point x="139" y="290" type="curve" smooth="yes"/>
      <point x="193" y="468"/>
      <point x="281" y="635"/>
    </contour>
  </outline>
</glyph>
<glyph name="parenright" format="1">
  <advance width="244"/>
  <unicode hex="0029"/>
  <outline>
    <contour>
      <point x="-44" y="-199" type="curve"/>
      <point x="-69" y="-199" type="line"/>
      <point x="42" y="-51"/>
      <point x="129" y="114"/>
      <point x="183" y="290" type="curve" smooth="yes"/>
      <point x="232" y="449"/>
      <point x="252" y="614"/>
      <point x="233" y="780" type="curve"/>
      <point x="258" y="780" type="line"/>
      <point x="285" y="615"/>
      <point x="265" y="449"/>
      <point x="216" y="290" type="curve" smooth="yes"/>
      <point x="162" y="112"/>
      <point x="74" y="-55"/>
    </contour>
  </outline>
</glyph>
<glyph name="asterisk" format="1">
  <advance width="557"/>
  <unicode hex="002A"/>
  <outline>
    <contour>
      <point x="583" y="588" type="line"/>
      <point x="582" y="560" type="line"/>
      <point x="401" y="511" type="line"/>
      <point x="401" y="530" type="line"/>
    </contour>
    <contour>
      <point x="466" y="381" type="line"/>
      <point x="439" y="365" type="line"/>
      <point x="392" y="513" type="line"/>
      <point x="408" y="525" type="line"/>
    </contour>
    <contour>
      <point x="260" y="367" type="line"/>
      <point x="241" y="384" type="line"/>
      <point x="395" y="524" type="line"/>
      <point x="406" y="512" type="line"/>
    </contour>
    <contour>
      <point x="249" y="562" type="line"/>
      <point x="266" y="588" type="line"/>
      <point x="409" y="528" type="line"/>
      <point x="397" y="511" type="line"/>
    </contour>
    <contour>
      <point x="451" y="699" type="line"/>
      <point x="479" y="699" type="line"/>
      <point x="410" y="520" type="line"/>
      <point x="391" y="520" type="line"/>
    </contour>
  </outline>
</glyph>
<glyph name="plus" format="1">
  <advance width="535"/>
  <unicode hex="002B"/>
  <outline>
    <contour>
      <point x="88.5" y="240" type="line"/>
      <point x="98.5" y="270.5" type="line"/>
      <point x="507.5" y="270.5" type="line"/>
      <point x="496.5" y="239.5" type="line"/>
    </contour>
    <contour>
      <point x="361" y="485" type="line"/>
      <point x="393.5" y="485.5" type="line"/>
      <point x="233" y="24.5" type="line"/>
      <point x="202.5" y="25" type="line"/>
    </contour>
  </outline>
</glyph>
<glyph name="comma" format="1">
  <advance width="267"/>
  <unicode hex="002C"/>
  <outline>
    <contour>
      <point x="137" y="97" type="line"/>
      <point x="164" y="84" type="line"/>
      <point x="-27" y="-162" type="line"/>
      <point x="-47" y="-154" type="line"/>
    </contour>
  </outline>
</glyph>
<glyph name="period" format="1">
  <advance width="255"/>
  <unicode hex="002E"/>
  <outline>
    <contour>
      <point x="54" y="12" type="curve" smooth="yes"/>
      <point x="54" y="25"/>
      <point x="64" y="36"/>
      <point x="77" y="36" type="curve" smooth="yes"/>
      <point x="90" y="36"/>
      <point x="101" y="25"/>
      <point x="101" y="12" type="curve" smooth="yes"/>
      <point x="101" y="-1"/>
      <point x="90" y="-11"/>
      <point x="77" y="-11" type="curve" smooth="yes"/>
      <point x="64" y="-11"/>
      <point x="54" y="-1"/>
    </contour>
  </outline>
</glyph>
<glyph name="slash" format="1">
  <advance width="457"/>
  <unicode hex="002F"/>
  <outline>
    <contour>
      <point x="598" y="699" type="line"/>
      <point x="631" y="698" type="line"/>
      <point x="-62" y="-149" type="line"/>
      <point x="-93" y="-148" type="line"/>
    </contour>
  </outline>
</glyph>
<glyph name="zero" format="1">
  <advance width="530"/>
  <unicode hex="0030"/>
  <outline>
    <contour>
      <point x="144" y="350" type="curve" smooth="yes"/>
      <point x="112" y="259"/>
      <point x="55" y="23"/>
      <point x="215" y="21" type="curve" smooth="yes"/>
      <point x="374" y="19"/>
      <point x="474" y="224"/>
      <point x="517" y="350" type="curve" smooth="yes"/>
      <point x="549" y="441"/>
      <point x="606" y="677"/>
      <point x="446" y="679" type="curve" smooth="yes"/>
      <point x="287" y="681"/>
      <point x="187" y="476"/>
    </contour>
    <contour>
      <point x="112" y="350" type="curve" smooth="yes"/>
      <point x="160" y="493"/>
      <point x="274" y="711"/>
      <point x="451" y="709" type="curve" smooth="yes"/>
      <point x="632" y="707"/>
      <point x="586" y="460"/>
      <point x="549" y="350" type="curve" smooth="yes"/>
      <point x="501" y="207"/>
      <point x="387" y="-11"/>
      <point x="210" y="-9" type="curve" smooth="yes"/>
      <point x="29" y="-7"/>
      <point x="75" y="240"/>
    </contour>
  </outline>
</glyph>
<glyph name="one" format="1">
  <advance width="396"/>
  <unicode hex="0031"/>
  <outline>
    <contour>
      <point x="243.5" y="627" type="line"/>
      <point x="256" y="662" type="line"/>
      <point x="460" y="707" type="line"/>
      <point x="216" y="0" type="line"/>
      <point x="185" y="0" type="line"/>
      <point x="413.5" y="664.5" type="line"/>
    </contour>
  </outline>
</glyph>
<glyph name="two" format="1">
  <advance width="533"/>
  <unicode hex="0032"/>
  <outline>
    <contour>
      <point x="23" y="0" type="line"/>
      <point x="407" y="341" type="line" smooth="yes"/>
      <point x="464" y="391"/>
      <point x="512" y="440"/>
      <point x="525" y="514" type="curve" smooth="yes"/>
      <point x="538" y="586"/>
      <point x="508" y="676"/>
      <point x="394" y="676" type="curve" smooth="yes"/>
      <point x="285" y="676"/>
      <point x="198" y="588"/>
      <point x="175" y="460" type="curve"/>
      <point x="138" y="460" type="line"/>
      <point x="164" y="609"/>
      <point x="268" y="711"/>
      <point x="400" y="711" type="curve" smooth="yes"/>
      <point x="541" y="711"/>
      <point x="579" y="600"/>
      <point x="563" y="512" type="curve" smooth="yes"/>
      <point x="549" y="434"/>
      <point x="495" y="374"/>
      <point x="433" y="320" type="curve" smooth="yes"/>
      <point x="108" y="35" type="line"/>
      <point x="498" y="35" type="line"/>
      <point x="492" y="0" type="line"/>
    </contour>
  </outline>
</glyph>
<glyph name="three" format="1">
  <advance width="516"/>
  <unicode hex="0033"/>
  <outline>
    <contour>
      <point x="310" y="358" type="curve"/>
      <point x="316" y="379" type="line"/>
      <point x="408" y="390"/>
      <point x="509" y="434"/>
      <point x="541" y="530" type="curve" smooth="yes"/>
      <point x="565" y="605"/>
      <point x="528" y="678"/>
      <point x="445" y="680" type="curve" smooth="yes"/>
      <point x="349" y="682"/>
      <point x="283" y="606"/>
      <point x="244" y="527" type="curve"/>
      <point x="214" y="527" type="line"/>
      <point x="256" y="624"/>
      <point x="336" y="710"/>
      <point x="449" y="709" type="curve" smooth="yes"/>
      <point x="548" y="708"/>
      <point x="601" y="622"/>
      <point x="572" y="530" type="curve" smooth="yes"/>
      <point x="537" y="417"/>
      <point x="419" y="368"/>
    </contour>
    <contour>
      <point x="228" y="-9" type="curve" smooth="yes"/>
      <point x="110" y="-9"/>
      <point x="63" y="78"/>
      <point x="83" y="185" type="curve"/>
      <point x="113" y="185" type="line"/>
      <point x="97" y="94"/>
      <point x="130" y="22"/>
      <point x="232" y="21" type="curve" smooth="yes"/>
      <point x="327" y="20"/>
      <point x="425" y="89"/>
      <point x="453" y="181" type="curve" smooth="yes"/>
      <point x="485" y="286"/>
      <point x="399" y="338"/>
      <point x="307" y="349" type="curve"/>
      <point x="313" y="370" type="line"/>
      <point x="421" y="360"/>
      <point x="519" y="299"/>
      <point x="483" y="178" type="curve" smooth="yes"/>
      <point x="452" y="70"/>
      <point x="340" y="-9"/>
    </contour>
  </outline>
</glyph>
<glyph name="four" format="1">
  <advance width="528"/>
  <unicode hex="0034"/>
  <outline>
    <contour>
      <point x="16" y="141.5" type="line"/>
      <point x="568" y="698.5" type="line"/>
      <point x="580.5" y="699" type="line"/>
      <point x="339" y="0" type="line"/>
      <point x="307.5" y="0" type="line"/>
      <point x="360.5" y="152" type="line"/>
      <point x="362.5" y="159" type="line"/>
      <point x="520" y="614" type="line"/>
      <point x="79.5" y="170.5" type="line"/>
      <point x="376.5" y="169.5" type="line"/>
      <point x="383.5" y="169.5" type="line"/>
      <point x="501.5" y="169.5" type="line"/>
      <point x="492" y="140" type="line"/>
    </contour>
  </outline>
</glyph>
<glyph name="five" format="1">
  <advance width="525"/>
  <unicode hex="0035"/>
  <outline>
    <contour>
      <point x="507" y="230" type="curve" smooth="yes"/>
      <point x="470" y="103"/>
      <point x="355" y="-10"/>
      <point x="218" y="-9" type="curve" smooth="yes"/>
      <point x="123" y="-9"/>
      <point x="73" y="51"/>
      <point x="53" y="138" type="curve"/>
      <point x="83" y="154" type="line"/>
      <point x="99" y="78"/>
      <point x="138" y="22"/>
      <point x="222" y="21" type="curve" smooth="yes"/>
      <point x="341" y="20"/>
      <point x="442" y="121"/>
      <point x="476" y="230" type="curve" smooth="yes"/>
      <point x="503" y="318"/>
      <point x="472" y="418"/>
      <point x="368" y="422" type="curve" smooth="yes"/>
      <point x="286" y="425"/>
      <point x="213" y="376"/>
      <point x="150" y="329" type="curve"/>
      <point x="351" y="700" type="line"/>
      <point x="663" y="700" type="line"/>
      <point x="654" y="671" type="line"/>
      <point x="367" y="670" type="line"/>
      <point x="208" y="383" type="line"/>
      <point x="258" y="421"/>
      <point x="317" y="452"/>
      <point x="382" y="451" type="curve" smooth="yes"/>
      <point x="503" y="449"/>
      <point x="536" y="330"/>
    </contour>
  </outline>
</glyph>
<glyph name="six" format="1">
  <advance width="514"/>
  <unicode hex="0036"/>
  <outline>
    <contour>
      <point x="110" y="223" type="curve" smooth="yes"/>
      <point x="80" y="130"/>
      <point x="115" y="21"/>
      <point x="227" y="20" type="curve" smooth="yes"/>
      <point x="341" y="19"/>
      <point x="442" y="119"/>
      <point x="474" y="223" type="curve" smooth="yes"/>
      <point x="501" y="310"/>
      <point x="466" y="415"/>
      <point x="362" y="417" type="curve" smooth="yes"/>
      <point x="249" y="419"/>
      <point x="144" y="326"/>
    </contour>
    <contour>
      <point x="491" y="698" type="line"/>
      <point x="532" y="698" type="line"/>
      <point x="207" y="371" type="line"/>
      <point x="203" y="375" type="line"/>
      <point x="253" y="412"/>
      <point x="309" y="445"/>
      <point x="373" y="443" type="curve" smooth="yes"/>
      <point x="490" y="440"/>
      <point x="532" y="323"/>
      <point x="503" y="223" type="curve" smooth="yes"/>
      <point x="468" y="102"/>
      <point x="355" y="-10"/>
      <point x="223" y="-9" type="curve" smooth="yes"/>
      <point x="93" y="-8"/>
      <point x="47" y="111"/>
      <point x="81" y="223" type="curve" smooth="yes"/>
      <point x="99" y="281"/>
      <point x="135" y="333"/>
      <point x="177" y="378" type="curve" smooth="yes"/>
    </contour>
  </outline>
</glyph>
<glyph name="seven" format="1">
  <advance width="518"/>
  <unicode hex="0037"/>
  <outline>
    <contour>
      <point x="150" y="665" type="line"/>
      <point x="156" y="700" type="line"/>
      <point x="633" y="700" type="line"/>
      <point x="153" y="0" type="line"/>
      <point x="114" y="0" type="line"/>
      <point x="571" y="665" type="line"/>
    </contour>
  </outline>
</glyph>
<glyph name="eight" format="1">
  <advance width="493"/>
  <unicode hex="0038"/>
  <outline>
    <contour>
      <point x="207" y="538" type="curve" smooth="yes"/>
      <point x="237" y="629"/>
      <point x="336" y="710"/>
      <point x="433" y="709" type="curve" smooth="yes"/>
      <point x="527" y="708"/>
      <point x="573" y="621"/>
      <point x="546" y="537" type="curve" smooth="yes"/>
      <point x="516" y="446"/>
      <point x="417" y="364"/>
      <point x="319" y="365" type="curve" smooth="yes"/>
      <point x="224" y="366"/>
      <point x="180" y="453"/>
    </contour>
    <contour>
      <point x="235" y="535" type="curve" smooth="yes"/>
      <point x="213" y="469"/>
      <point x="243" y="388"/>
      <point x="321" y="386" type="curve" smooth="yes"/>
      <point x="402" y="384"/>
      <point x="489" y="462"/>
      <point x="515" y="535" type="curve" smooth="yes"/>
      <point x="540" y="604"/>
      <point x="508" y="679"/>
      <point x="428" y="680" type="curve" smooth="yes"/>
      <point x="346" y="681"/>
      <point x="261" y="611"/>
    </contour>
    <contour>
      <point x="67" y="187" type="curve" smooth="yes"/>
      <point x="101" y="288"/>
      <point x="210" y="377"/>
      <point x="319" y="376" type="curve" smooth="yes"/>
      <point x="424" y="375"/>
      <point x="476" y="282"/>
      <point x="446" y="186" type="curve" smooth="yes"/>
      <point x="412" y="80"/>
      <point x="305" y="-10"/>
      <point x="192" y="-9" type="curve" smooth="yes"/>
      <point x="81" y="-8"/>
      <point x="34" y="89"/>
    </contour>
    <contour>
      <point x="97" y="189" type="curve" smooth="yes"/>
      <point x="68" y="107"/>
      <point x="100" y="21"/>
      <point x="196" y="20" type="curve" smooth="yes"/>
      <point x="293" y="19"/>
      <point x="387" y="99"/>
      <point x="417" y="189" type="curve" smooth="yes"/>
      <point x="443" y="266"/>
      <point x="407" y="354"/>
      <point x="317" y="355" type="curve" smooth="yes"/>
      <point x="224" y="356"/>
      <point x="128" y="274"/>
    </contour>
  </outline>
</glyph>
<glyph name="nine" format="1">
  <advance width="515"/>
  <unicode hex="0039"/>
  <outline>
    <contour>
      <point x="552" y="477" type="curve" smooth="yes"/>
      <point x="582" y="570"/>
      <point x="546.5" y="678"/>
      <point x="435" y="679" type="curve" smooth="yes"/>
      <point x="321.5" y="680"/>
      <point x="221" y="581"/>
      <point x="189" y="477" type="curve" smooth="yes"/>
      <point x="162" y="389.5"/>
      <point x="197" y="286"/>
      <point x="301" y="283.5" type="curve" smooth="yes"/>
      <point x="413.5" y="281"/>
      <point x="518.5" y="374.5"/>
    </contour>
    <contour>
      <point x="171.5" y="0" type="line"/>
      <point x="130" y="0" type="line"/>
      <point x="453.5" y="328" type="line"/>
      <point x="458" y="325" type="line"/>
      <point x="408.5" y="288"/>
      <point x="353" y="256"/>
      <point x="289" y="257.5" type="curve" smooth="yes"/>
      <point x="171.5" y="260.5"/>
      <point x="130" y="376.5"/>
      <point x="159" y="477" type="curve" smooth="yes"/>
      <point x="193.5" y="598.5"/>
      <point x="307.5" y="709.5"/>
      <point x="439.5" y="709" type="curve" smooth="yes"/>
      <point x="570" y="708.5"/>
      <point x="616" y="588.5"/>
      <point x="582" y="477" type="curve" smooth="yes"/>
      <point x="564" y="419"/>
      <point x="527.5" y="366.5"/>
      <point x="486" y="322" type="curve" smooth="yes"/>
    </contour>
  </outline>
</glyph>
<glyph name="colon" format="1">
  <advance width="282"/>
  <unicode hex="003A"/>
  <outline>
    <contour>
      <point x="53.5" y="12.5" type="curve" smooth="yes"/>
      <point x="53.5" y="25.5"/>
      <point x="64.5" y="36.5"/>
      <point x="77.5" y="36.5" type="curve" smooth="yes"/>
      <point x="90.5" y="36.5"/>
      <point x="101.5" y="25.5"/>
      <point x="101.5" y="12.5" type="curve" smooth="yes"/>
      <point x="101.5" y="-0.5"/>
      <point x="90.5" y="-11"/>
      <point x="77.5" y="-11" type="curve" smooth="yes"/>
      <point x="64.5" y="-11"/>
      <point x="53.5" y="-0.5"/>
    </contour>
    <contour>
      <point x="176" y="370.5" type="curve" smooth="yes"/>
      <point x="176" y="383.5"/>
      <point x="187" y="394"/>
      <point x="200" y="394" type="curve" smooth="yes"/>
      <point x="213" y="394"/>
      <point x="224" y="383.5"/>
      <point x="224" y="370.5" type="curve" smooth="yes"/>
      <point x="224" y="357.5"/>
      <point x="213" y="346.5"/>
      <point x="200" y="346.5" type="curve" smooth="yes"/>
      <point x="187" y="346.5"/>
      <point x="176" y="357.5"/>
    </contour>
  </outline>
</glyph>
<glyph name="semicolon" format="1">
  <advance width="273"/>
  <unicode hex="003B"/>
  <outline>
    <contour>
      <point x="204" y="370" type="curve" smooth="yes"/>
      <point x="204" y="383"/>
      <point x="215" y="393"/>
      <point x="228" y="393" type="curve" smooth="yes"/>
      <point x="241" y="393"/>
      <point x="251" y="383"/>
      <point x="251" y="370" type="curve" smooth="yes"/>
      <point x="251" y="357"/>
      <point x="241" y="346"/>
      <point x="228" y="346" type="curve" smooth="yes"/>
      <point x="215" y="346"/>
      <point x="204" y="357"/>
    </contour>
    <contour>
      <point x="137" y="97" type="line"/>
      <point x="164" y="84" type="line"/>
      <point x="-27" y="-162" type="line"/>
      <point x="-47" y="-154" type="line"/>
    </contour>
  </outline>
</glyph>
<glyph name="less" format="1">
  <advance width="602"/>
  <unicode hex="003C"/>
  <outline>
    <contour>
      <point x="143" y="256" type="line"/>
      <point x="510" y="64" type="line"/>
      <point x="500" y="38" type="line"/>
      <point x="91" y="249" type="line"/>
      <point x="97" y="266" type="line"/>
      <point x="651" y="479" type="line"/>
      <point x="641" y="446" type="line"/>
    </contour>
  </outline>
</glyph>
<glyph name="equal" format="1">
  <advance width="578"/>
  <unicode hex="003D"/>
  <outline>
    <contour>
      <point x="66" y="172" type="line"/>
      <point x="75" y="201" type="line"/>
      <point x="533" y="201" type="line"/>
      <point x="523" y="171.5" type="line"/>
    </contour>
    <contour>
      <point x="111" y="304.5" type="line"/>
      <point x="120.5" y="333.5" type="line"/>
      <point x="578.5" y="333.5" type="line"/>
      <point x="568" y="304" type="line"/>
    </contour>
  </outline>
</glyph>
<glyph name="greater" format="1">
  <advance width="602"/>
  <unicode hex="003E"/>
  <outline>
    <contour>
      <point x="527" y="259" type="line"/>
      <point x="159" y="451" type="line"/>
      <point x="170" y="477" type="line"/>
      <point x="578" y="266" type="line"/>
      <point x="573" y="249" type="line"/>
      <point x="18" y="36" type="line"/>
      <point x="28" y="69" type="line"/>
    </contour>
  </outline>
</glyph>
<glyph name="question" format="1">
  <advance width="513"/>
  <unicode hex="003F"/>
  <outline>
    <contour>
      <point x="537" y="514" type="curve" smooth="yes"/>
      <point x="568" y="600"/>
      <point x="525" y="679"/>
      <point x="430" y="680" type="curve" smooth="yes"/>
      <point x="349" y="681"/>
      <point x="284" y="631"/>
      <point x="227" y="579" type="curve"/>
      <point x="207" y="595" type="line"/>
      <point x="271" y="654"/>
      <point x="346" y="710"/>
      <point x="438" y="709" type="curve" smooth="yes"/>
      <point x="548" y="707"/>
      <point x="601" y="615"/>
      <point x="567" y="514" type="curve" smooth="yes"/>
      <point x="528" y="398"/>
      <point x="406" y="339"/>
      <point x="292" y="323" type="curve"/>
      <point x="236" y="171" type="line"/>
      <point x="214" y="171" type="line"/>
      <point x="265" y="345" type="line"/>
      <point x="272" y="345" type="line"/>
      <point x="379" y="355"/>
      <point x="498" y="406"/>
    </contour>
    <contour>
      <point x="145" y="12" type="curve" smooth="yes"/>
      <point x="145" y="24"/>
      <point x="156" y="36"/>
      <point x="169" y="36" type="curve" smooth="yes"/>
      <point x="183" y="36"/>
      <point x="191" y="24"/>
      <point x="191" y="12" type="curve" smooth="yes"/>
      <point x="191" y="-1"/>
      <point x="181" y="-11"/>
      <point x="168" y="-11" type="curve" smooth="yes"/>
      <point x="154" y="-11"/>
      <point x="145" y="-1"/>
    </contour>
  </outline>
</glyph>
<glyph name="at" format="1">
  <advance width="724"/>
  <unicode hex="0040"/>
  <outline>
    <contour>
      <point x="272" y="320" type="curve" smooth="yes"/>
      <point x="254.5" y="266.5"/>
      <point x="259.5" y="195.5"/>
      <point x="329" y="192" type="curve" smooth="yes"/>
      <point x="420" y="187.5"/>
      <point x="501.5" y="293"/>
      <point x="527" y="370" type="curve" smooth="yes"/>
      <point x="543.5" y="420"/>
      <point x="542" y="494"/>
      <point x="474.5" y="499" type="curve" smooth="yes"/>
      <point x="381" y="505.5"/>
      <point x="297.5" y="399"/>
    </contour>
    <contour>
      <point x="242" y="319.5" type="curve" smooth="yes"/>
      <point x="271.5" y="414.5"/>
      <point x="369.5" y="533.5"/>
      <point x="480" y="527.5" type="curve" smooth="yes"/>
      <point x="564.5" y="523"/>
      <point x="563" y="428.5"/>
      <point x="543" y="367.5" type="curve" smooth="yes"/>
      <point x="513.5" y="277.5"/>
      <point x="425.5" y="161.5"/>
      <point x="319.5" y="163" type="curve" smooth="yes"/>
      <point x="233" y="164.5"/>
      <point x="221" y="252.5"/>
    </contour>
    <contour>
      <point x="86.5" y="320" type="curve" smooth="yes"/>
      <point x="154" y="521.5"/>
      <point x="353.5" y="711"/>
      <point x="575.5" y="708.5" type="curve" smooth="yes"/>
      <point x="751.5" y="706.5"/>
      <point x="824" y="544"/>
      <point x="771.5" y="390" type="curve" smooth="yes"/>
      <point x="739" y="294.5"/>
      <point x="641" y="140"/>
      <point x="522" y="152" type="curve" smooth="yes"/>
      <point x="447" y="159"/>
      <point x="473.5" y="237"/>
      <point x="491.5" y="284.5" type="curve"/>
      <point x="488" y="285" type="line"/>
      <point x="606" y="519" type="line"/>
      <point x="637.5" y="519" type="line"/>
      <point x="517" y="289" type="line" smooth="yes"/>
      <point x="512.5" y="278.5"/>
      <point x="507" y="267.5"/>
      <point x="503.5" y="256.5" type="curve" smooth="yes"/>
      <point x="494.5" y="225.5"/>
      <point x="489.5" y="187.5"/>
      <point x="530" y="180" type="curve" smooth="yes"/>
      <point x="628" y="161.5"/>
      <point x="716.5" y="316"/>
      <point x="743" y="390" type="curve" smooth="yes"/>
      <point x="793" y="529"/>
      <point x="733" y="678"/>
      <point x="571" y="681" type="curve" smooth="yes"/>
      <point x="363.5" y="684.5"/>
      <point x="179.5" y="506.5"/>
      <point x="115" y="320" type="curve" smooth="yes"/>
      <point x="64.5" y="172.5"/>
      <point x="112" y="23"/>
      <point x="286.5" y="19.5" type="curve" smooth="yes"/>
      <point x="369" y="17.5"/>
      <point x="448" y="43"/>
      <point x="523" y="74" type="curve"/>
      <point x="530.5" y="49" type="line"/>
      <point x="452" y="16"/>
      <point x="368" y="-8.5"/>
      <point x="282" y="-7.5" type="curve" smooth="yes"/>
      <point x="91.5" y="-4.5"/>
      <point x="31.5" y="156"/>
    </contour>
  </outline>
</glyph>
<glyph name="A" format="1">
  <advance width="580"/>
  <unicode hex="0041"/>
  <outline>
    <contour>
      <point x="159" y="253.5" type="line"/>
      <point x="177" y="284" type="line"/>
      <point x="491.5" y="284" type="line"/>
      <point x="490" y="253.5" type="line"/>
    </contour>
    <contour>
      <point x="459.5" y="644" type="line"/>
      <point x="190" y="273" type="line"/>
      <point x="184.5" y="265" type="line"/>
      <point x="-8.5" y="0" type="line"/>
      <point x="-46" y="0" type="line"/>
      <point x="483" y="722" type="line"/>
      <point x="515.5" y="0" type="line"/>
      <point x="480.5" y="0" type="line"/>
      <point x="472.5" y="263" type="line"/>
      <point x="472.5" y="271" type="line"/>
    </contour>
  </outline>
</glyph>
<glyph name="B" format="1">
  <advance width="482"/>
  <unicode hex="0042"/>
  <outline>
    <contour>
      <point x="181" y="382" type="line"/>
      <point x="187" y="400" type="line"/>
      <point x="285" y="401" type="line" smooth="yes"/>
      <point x="372" y="404"/>
      <point x="461" y="447"/>
      <point x="491" y="534" type="curve" smooth="yes"/>
      <point x="521" y="619"/>
      <point x="461" y="670"/>
      <point x="381" y="670" type="curve" smooth="yes"/>
      <point x="288" y="670" type="line"/>
      <point x="68" y="30" type="line"/>
      <point x="167" y="30" type="line" smooth="yes"/>
      <point x="276" y="30"/>
      <point x="378" y="96"/>
      <point x="414" y="203" type="curve" smooth="yes"/>
      <point x="446" y="298"/>
      <point x="382" y="372"/>
      <point x="288" y="372" type="curve" smooth="yes"/>
      <point x="177" y="372" type="line"/>
      <point x="183" y="391" type="line"/>
      <point x="297" y="391" type="line" smooth="yes"/>
      <point x="403" y="390"/>
      <point x="478" y="309"/>
      <point x="445" y="201" type="curve" smooth="yes"/>
      <point x="407" y="77"/>
      <point x="288" y="0"/>
      <point x="162" y="0" type="curve" smooth="yes"/>
      <point x="26" y="0" type="line"/>
      <point x="267" y="700" type="line"/>
      <point x="387" y="700" type="line" smooth="yes"/>
      <point x="484" y="700"/>
      <point x="558" y="639"/>
      <point x="523" y="535" type="curve" smooth="yes"/>
      <point x="490" y="435"/>
      <point x="389" y="386"/>
      <point x="289" y="382" type="curve" smooth="yes"/>
    </contour>
  </outline>
</glyph>
<glyph name="D" format="1">
  <advance width="609"/>
  <unicode hex="0044"/>
  <outline>
    <contour>
      <point x="266" y="699" type="line"/>
      <point x="299.5" y="699.5" type="line"/>
      <point x="58.5" y="0" type="line"/>
      <point x="27" y="0" type="line"/>
    </contour>
    <contour>
      <point x="195" y="0" type="curve" smooth="yes"/>
      <point x="43.5" y="0" type="line"/>
      <point x="55" y="33" type="line"/>
      <point x="201.5" y="33" type="line" smooth="yes"/>
      <point x="387" y="33"/>
      <point x="540.5" y="179"/>
      <point x="599.5" y="350" type="curve" smooth="yes"/>
      <point x="653" y="503.5"/>
      <point x="601.5" y="667"/>
      <point x="422" y="667" type="curve" smooth="yes"/>
      <point x="271" y="667" type="line"/>
      <point x="282.5" y="700" type="line"/>
      <point x="428.5" y="700" type="line" smooth="yes"/>
      <point x="626" y="700"/>
      <point x="689" y="520"/>
      <point x="632" y="350" type="curve" smooth="yes"/>
      <point x="569.5" y="162"/>
      <point x="399" y="0"/>
    </contour>
  </outline>
</glyph>
<glyph name="E" format="1">
  <advance width="490"/>
  <unicode hex="0045"/>
  <outline>
    <contour>
      <point x="42" y="0" type="line"/>
      <point x="52" y="31" type="line"/>
      <point x="376" y="31" type="line"/>
      <point x="366" y="0" type="line"/>
    </contour>
    <contour>
      <point x="271" y="669" type="line"/>
      <point x="281" y="700" type="line"/>
      <point x="604" y="700" type="line"/>
      <point x="594" y="669" type="line"/>
    </contour>
    <contour>
      <point x="168.5" y="371" type="line"/>
      <point x="179.5" y="402" type="line"/>
      <point x="483.5" y="402" type="line"/>
      <point x="473.5" y="371" type="line"/>
    </contour>
    <contour>
      <point x="266" y="699.5" type="line"/>
      <point x="299.5" y="699.5" type="line"/>
      <point x="58.5" y="0" type="line"/>
      <point x="27" y="0" type="line"/>
    </contour>
  </outline>
</glyph>
<glyph name="F" format="1">
  <advance width="437"/>
  <unicode hex="0046"/>
  <outline>
    <contour>
      <point x="271" y="668.5" type="line"/>
      <point x="281.5" y="700" type="line"/>
      <point x="567" y="700" type="line"/>
      <point x="556" y="668.5" type="line"/>
    </contour>
    <contour>
      <point x="166.5" y="363.5" type="line"/>
      <point x="177.5" y="394" type="line"/>
      <point x="453" y="394" type="line"/>
      <point x="442.5" y="363" type="line"/>
    </contour>
    <contour>
      <point x="266" y="699.5" type="line"/>
      <point x="299.5" y="699.5" type="line"/>
      <point x="58.5" y="0" type="line"/>
      <point x="27" y="0" type="line"/>
    </contour>
  </outline>
</glyph>
<glyph name="G" format="1">
  <advance width="722"/>
  <unicode hex="0047"/>
  <outline>
    <contour>
      <point x="443" y="313.5" type="line"/>
      <point x="454" y="344" type="line"/>
      <point x="737" y="343.5" type="line"/>
      <point x="668" y="169.5"/>
      <point x="516.5" y="-8"/>
      <point x="313.5" y="-8" type="curve" smooth="yes"/>
      <point x="115" y="-8"/>
      <point x="54" y="185.5"/>
      <point x="108.5" y="350" type="curve" smooth="yes"/>
      <point x="170" y="535"/>
      <point x="349.5" y="709"/>
      <point x="553.5" y="708.5" type="curve" smooth="yes"/>
      <point x="658" y="709"/>
      <point x="732" y="652"/>
      <point x="770.5" y="557" type="curve"/>
      <point x="741" y="537" type="line"/>
      <point x="711" y="625"/>
      <point x="641.5" y="675.5"/>
      <point x="547.5" y="675" type="curve" smooth="yes"/>
      <point x="362" y="675.5"/>
      <point x="201" y="517"/>
      <point x="143" y="350" type="curve" smooth="yes"/>
      <point x="92.5" y="203.5"/>
      <point x="139" y="26"/>
      <point x="320" y="25.5" type="curve" smooth="yes"/>
      <point x="493.5" y="25"/>
      <point x="621" y="170.5"/>
      <point x="691.5" y="313" type="curve"/>
    </contour>
  </outline>
</glyph>
<glyph name="H" format="1">
  <advance width="626"/>
  <unicode hex="0048"/>
  <outline>
    <contour>
      <point x="168" y="367" type="line"/>
      <point x="177" y="397" type="line"/>
      <point x="617" y="397" type="line"/>
      <point x="607" y="367" type="line"/>
    </contour>
    <contour>
      <point x="699" y="699" type="line"/>
      <point x="732" y="699" type="line"/>
      <point x="490" y="0" type="line"/>
      <point x="460" y="0" type="line"/>
    </contour>
    <contour>
      <point x="266" y="699" type="line"/>
      <point x="299" y="699" type="line"/>
      <point x="58" y="0" type="line"/>
      <point x="27" y="0" type="line"/>
    </contour>
  </outline>
</glyph>
<glyph name="I" format="1">
  <advance width="187"/>
  <unicode hex="0049"/>
  <outline>
    <contour>
      <point x="263.5" y="699.5" type="line"/>
      <point x="296" y="699.5" type="line"/>
      <point x="54" y="0" type="line"/>
      <point x="23.5" y="0" type="line"/>
    </contour>
  </outline>
</glyph>
<glyph name="J" format="1">
  <advance width="197"/>
  <unicode hex="004A"/>
  <outline>
    <contour>
      <point x="-207.5" y="-143" type="line"/>
      <point x="-186.5" y="-168"/>
      <point x="-164.5" y="-187.5"/>
      <point x="-129" y="-187.5" type="curve" smooth="yes"/>
      <point x="-51" y="-188.5"/>
      <point x="-9" y="-114"/>
      <point x="14" y="-50" type="curve" smooth="yes"/>
      <point x="271" y="699.5" type="line"/>
      <point x="302.5" y="699.5" type="line"/>
      <point x="42.5" y="-60.5" type="line" smooth="yes"/>
      <point x="13.5" y="-139.5"/>
      <point x="-41.5" y="-221.5"/>
      <point x="-135.5" y="-219" type="curve" smooth="yes"/>
      <point x="-178" y="-218"/>
      <point x="-206.5" y="-197"/>
      <point x="-231.5" y="-166" type="curve"/>
    </contour>
  </outline>
</glyph>
<glyph name="K" format="1">
  <advance width="457"/>
  <unicode hex="004B"/>
  <outline>
    <contour>
      <point x="263" y="699" type="line"/>
      <point x="295" y="699" type="line"/>
      <point x="54" y="0" type="line"/>
      <point x="23" y="0" type="line"/>
    </contour>
    <contour>
      <point x="576" y="698" type="line"/>
      <point x="619" y="698" type="line"/>
      <point x="210" y="370" type="line"/>
      <point x="390" y="0" type="line"/>
      <point x="354" y="0" type="line"/>
      <point x="173" y="374" type="line"/>
    </contour>
  </outline>
</glyph>
<glyph name="L" format="1">
  <advance width="409"/>
  <unicode hex="004C"/>
  <outline>
    <contour>
      <point x="266.5" y="699.5" type="line"/>
      <point x="299" y="699.5" type="line"/>
      <point x="69" y="31" type="line"/>
      <point x="351" y="31" type="line"/>
      <point x="340.5" y="0" type="line"/>
      <point x="26.5" y="0" type="line"/>
    </contour>
  </outline>
</glyph>
<glyph name="M" format="1">
  <advance width="774"/>
  <unicode hex="004D"/>
  <outline>
    <contour>
      <point x="301" y="615" type="line"/>
      <point x="27" y="0" type="line"/>
      <point x="-5" y="0" type="line"/>
      <point x="317" y="721" type="line"/>
      <point x="386" y="161" type="line"/>
      <point x="846" y="724" type="line"/>
      <point x="669" y="0" type="line"/>
      <point x="638" y="0" type="line"/>
      <point x="789" y="612" type="line"/>
      <point x="366" y="92" type="line"/>
    </contour>
  </outline>
</glyph>
<glyph name="N" format="1">
  <advance width="655"/>
  <unicode hex="004E"/>
  <outline>
    <contour>
      <point x="742" y="699" type="line"/>
      <point x="774" y="699" type="line"/>
      <point x="526" y="-20" type="line"/>
      <point x="249" y="633" type="line"/>
      <point x="31" y="0" type="line"/>
      <point x="-1" y="0" type="line"/>
      <point x="247" y="720" type="line"/>
      <point x="523" y="64" type="line"/>
    </contour>
  </outline>
</glyph>
<glyph name="P" format="1">
  <advance width="504"/>
  <unicode hex="0050"/>
  <outline>
    <contour>
      <point x="209" y="700" type="line"/>
      <point x="247" y="700" type="line"/>
      <point x="124" y="0" type="line"/>
      <point x="86" y="0" type="line"/>
    </contour>
    <contour>
      <point x="225" y="665" type="line"/>
      <point x="231" y="700" type="line"/>
      <point x="358" y="700" type="line" smooth="yes"/>
      <point x="487" y="700"/>
      <point x="568" y="624"/>
      <point x="545" y="495" type="curve" smooth="yes"/>
      <point x="522" y="366"/>
      <point x="415" y="289"/>
      <point x="286" y="289" type="curve" smooth="yes"/>
      <point x="159" y="289" type="line"/>
      <point x="165" y="324" type="line"/>
      <point x="292" y="324" type="line" smooth="yes"/>
      <point x="401" y="324"/>
      <point x="488" y="385"/>
      <point x="507" y="495" type="curve" smooth="yes"/>
      <point x="526" y="605"/>
      <point x="461" y="665"/>
      <point x="352" y="665" type="curve" smooth="yes"/>
    </contour>
  </outline>
</glyph>
<glyph name="S" format="1">
  <advance width="475"/>
  <unicode hex="0053"/>
  <outline>
    <contour>
      <point x="80" y="205.5" type="line"/>
      <point x="81.5" y="123.5"/>
      <point x="100" y="25.5"/>
      <point x="202" y="24" type="curve" smooth="yes"/>
      <point x="295.5" y="22.5"/>
      <point x="379" y="90.5"/>
      <point x="408" y="177.5" type="curve" smooth="yes"/>
      <point x="436" y="262"/>
      <point x="385" y="316"/>
      <point x="314.5" y="352.5" type="curve" smooth="yes"/>
      <point x="237" y="392"/>
      <point x="174" y="449"/>
      <point x="204.5" y="544.5" type="curve" smooth="yes"/>
      <point x="234.5" y="636.5"/>
      <point x="333" y="708"/>
      <point x="430" y="707.5" type="curve" smooth="yes"/>
      <point x="523.5" y="707"/>
      <point x="557.5" y="634.5"/>
      <point x="563" y="552.5" type="curve"/>
      <point x="532.5" y="538" type="line"/>
      <point x="528.5" y="607.5"/>
      <point x="503" y="674.5"/>
      <point x="422" y="675.5" type="curve" smooth="yes"/>
      <point x="344" y="676.5"/>
      <point x="263" y="617"/>
      <point x="237.5" y="543.5" type="curve" smooth="yes"/>
      <point x="207.5" y="457.5"/>
      <point x="277.5" y="411"/>
      <point x="344" y="376.5" type="curve" smooth="yes"/>
      <point x="423" y="336"/>
      <point x="470.5" y="270.5"/>
      <point x="442" y="179" type="curve" smooth="yes"/>
      <point x="409.5" y="74"/>
      <point x="307.5" y="-9"/>
      <point x="195" y="-7.5" type="curve" smooth="yes"/>
      <point x="81.5" y="-6"/>
      <point x="51.5" y="95"/>
      <point x="48.5" y="190.5" type="curve"/>
    </contour>
  </outline>
</glyph>
<glyph name="T" format="1">
  <advance width="414"/>
  <unicode hex="0054"/>
  <outline>
    <contour>
      <point x="189" y="668.5" type="line"/>
      <point x="200" y="700" type="line"/>
      <point x="585" y="700" type="line"/>
      <point x="573.5" y="668.5" type="line"/>
      <point x="397.5" y="668.5" type="line"/>
      <point x="168.5" y="0" type="line"/>
      <point x="136" y="0" type="line"/>
      <point x="365" y="668.5" type="line"/>
    </contour>
  </outline>
</glyph>
<glyph name="U" format="1">
  <advance width="555"/>
  <unicode hex="0055"/>
  <outline>
    <contour>
      <point x="262.5" y="699.5" type="line"/>
      <point x="294.5" y="699.5" type="line"/>
      <point x="130" y="223" type="line" smooth="yes"/>
      <point x="102" y="133.5"/>
      <point x="112.5" y="23"/>
      <point x="229" y="22.5" type="curve" smooth="yes"/>
      <point x="352" y="22"/>
      <point x="432" y="122"/>
      <point x="468.5" y="223" type="curve" smooth="yes"/>
      <point x="633" y="699.5" type="line"/>
      <point x="665.5" y="699.5" type="line"/>
      <point x="502.5" y="223" type="line" smooth="yes"/>
      <point x="460" y="103.5"/>
      <point x="369.5" y="-9.5"/>
      <point x="224" y="-9" type="curve" smooth="yes"/>
      <point x="89" y="-8.5"/>
      <point x="64.5" y="115"/>
      <point x="99" y="223" type="curve" smooth="yes"/>
    </contour>
  </outline>
</glyph>
<glyph name="V" format="1">
  <advance width="580"/>
  <unicode hex="0056"/>
  <outline>
    <contour>
      <point x="272" y="58" type="line"/>
      <point x="716" y="699" type="line"/>
      <point x="753.5" y="699" type="line"/>
      <point x="249" y="-22" type="line"/>
      <point x="193.5" y="700" type="line"/>
      <point x="227.5" y="700" type="line"/>
    </contour>
  </outline>
</glyph>
<glyph name="W" format="1">
  <advance width="904"/>
  <unicode hex="0057"/>
  <outline>
    <contour>
      <point x="641.5" y="73" type="line"/>
      <point x="1036.5" y="699" type="line"/>
      <point x="1073" y="699" type="line"/>
      <point x="615" y="-23" type="line"/>
      <point x="612.5" y="624.5" type="line"/>
      <point x="207" y="-23" type="line"/>
      <point x="197.5" y="700" type="line"/>
      <point x="231.5" y="700" type="line"/>
      <point x="235.5" y="73" type="line"/>
      <point x="641.5" y="723" type="line"/>
    </contour>
  </outline>
</glyph>
<glyph name="X" format="1">
  <advance width="485"/>
  <unicode hex="0058"/>
  <outline>
    <contour>
      <point x="599" y="698.5" type="line"/>
      <point x="639.5" y="698.5" type="line"/>
      <point x="340" y="365" type="line"/>
      <point x="435.5" y="0" type="line"/>
      <point x="399.5" y="0" type="line"/>
      <point x="316.5" y="335.5" type="line"/>
      <point x="19.5" y="0" type="line"/>
      <point x="-21" y="0" type="line"/>
      <point x="309" y="369" type="line"/>
      <point x="221" y="700" type="line"/>
      <point x="257.5" y="700" type="line"/>
      <point x="332" y="398" type="line"/>
    </contour>
  </outline>
</glyph>
<glyph name="Y" format="1">
  <advance width="491"/>
  <unicode hex="0059"/>
  <outline>
    <contour>
      <point x="630" y="698" type="line"/>
      <point x="668" y="698" type="line"/>
      <point x="298" y="275" type="line"/>
      <point x="203" y="0" type="line"/>
      <point x="171" y="0" type="line"/>
      <point x="268" y="279" type="line"/>
      <point x="197" y="700" type="line"/>
      <point x="230" y="700" type="line"/>
      <point x="292" y="310" type="line"/>
    </contour>
  </outline>
</glyph>
<glyph name="Z" format="1">
  <advance width="505"/>
  <unicode hex="005A"/>
  <outline>
    <contour>
      <point x="209" y="669" type="line"/>
      <point x="221" y="700" type="line"/>
      <point x="677" y="700" type="line"/>
      <point x="29" y="32" type="line"/>
      <point x="436" y="32" type="line"/>
      <point x="425" y="0" type="line"/>
      <point x="-39" y="0" type="line"/>
      <point x="610" y="669" type="line"/>
    </contour>
  </outline>
</glyph>
<glyph name="bracketleft" format="1">
  <advance width="255"/>
  <unicode hex="005B"/>
  <outline>
    <contour>
      <point x="322" y="750" type="line"/>
      <point x="31" y="-190" type="line"/>
      <point x="144" y="-190" type="line"/>
      <point x="135" y="-220" type="line"/>
      <point x="-9" y="-220" type="line"/>
      <point x="300" y="780" type="line"/>
      <point x="444" y="780" type="line"/>
      <point x="435" y="751" type="line"/>
    </contour>
  </outline>
</glyph>
<glyph name="backslash" format="1">
  <advance width="431"/>
  <unicode hex="005C"/>
  <outline>
    <contour>
      <point x="198.5" y="700.5" type="line"/>
      <point x="231" y="700" type="line"/>
      <point x="363" y="0" type="line"/>
      <point x="332.5" y="0" type="line"/>
    </contour>
  </outline>
</glyph>
<glyph name="bracketright" format="1">
  <advance width="255"/>
  <unicode hex="005D"/>
  <outline>
    <contour>
      <point x="38" y="-190" type="line"/>
      <point x="328" y="750" type="line"/>
      <point x="215" y="750" type="line"/>
      <point x="225" y="780" type="line"/>
      <point x="368" y="780" type="line"/>
      <point x="59" y="-220" type="line"/>
      <point x="-84" y="-220" type="line"/>
      <point x="-75" y="-191" type="line"/>
    </contour>
  </outline>
</glyph>
<glyph name="asciicircum" format="1">
  <advance width="479"/>
  <unicode hex="005E"/>
  <outline>
    <contour>
      <point x="416" y="670" type="line"/>
      <point x="196" y="462" type="line"/>
      <point x="161" y="462" type="line"/>
      <point x="421" y="708" type="line"/>
      <point x="431" y="709" type="line"/>
      <point x="522" y="460" type="line"/>
      <point x="493" y="460" type="line"/>
    </contour>
  </outline>
</glyph>
<glyph name="underscore" format="1">
  <advance width="470"/>
  <unicode hex="005F"/>
  <outline>
    <contour>
      <point x="-94" y="-116" type="line"/>
      <point x="-87" y="-92" type="line"/>
      <point x="385" y="-92" type="line"/>
      <point x="377" y="-116" type="line"/>
    </contour>
  </outline>
</glyph>
<glyph name="grave" format="1">
  <advance width="338"/>
  <unicode hex="0060"/>
  <outline>
    <contour>
      <point x="262" y="683" type="line"/>
      <point x="292.5" y="699.5" type="line"/>
      <point x="400.5" y="539.5" type="line"/>
      <point x="382.5" y="528.5" type="line"/>
    </contour>
  </outline>
</glyph>
<glyph name="a" format="1">
  <advance width="422"/>
  <unicode hex="0061"/>
  <outline>
    <contour>
      <point x="56" y="135" type="curve" smooth="yes"/>
      <point x="34" y="72"/>
      <point x="68" y="20"/>
      <point x="135" y="19" type="curve" smooth="yes"/>
      <point x="227" y="18"/>
      <point x="294" y="89"/>
      <point x="335" y="164" type="curve"/>
      <point x="338" y="149" type="line"/>
      <point x="297" y="66"/>
      <point x="225" y="-9"/>
      <point x="125" y="-9" type="curve" smooth="yes"/>
      <point x="42" y="-9"/>
      <point x="1" y="58"/>
      <point x="26" y="135" type="curve" smooth="yes"/>
      <point x="57" y="227"/>
      <point x="157" y="281"/>
      <point x="250" y="281" type="curve" smooth="yes"/>
      <point x="298" y="281"/>
      <point x="336" y="265"/>
      <point x="369" y="232" type="curve"/>
      <point x="361" y="212" type="line"/>
      <point x="328" y="242"/>
      <point x="292" y="257"/>
      <point x="246" y="257" type="curve" smooth="yes"/>
      <point x="169" y="257"/>
      <point x="83" y="212"/>
    </contour>
    <contour>
      <point x="163" y="383" type="curve"/>
      <point x="155" y="408" type="line"/>
      <point x="207" y="439"/>
      <point x="264" y="471"/>
      <point x="327" y="469" type="curve" smooth="yes"/>
      <point x="413" y="467"/>
      <point x="439" y="397"/>
      <point x="416" y="323" type="curve" smooth="yes"/>
      <point x="305" y="0" type="line"/>
      <point x="275" y="0" type="line"/>
      <point x="388" y="323" type="line" smooth="yes"/>
      <point x="406" y="380"/>
      <point x="393" y="438"/>
      <point x="322" y="441" type="curve" smooth="yes"/>
      <point x="264" y="444"/>
      <point x="210" y="412"/>
    </contour>
  </outline>
</glyph>
<glyph name="b" format="1">
  <advance width="516"/>
  <unicode hex="0062"/>
  <outline>
    <contour>
      <point x="315" y="779" type="line"/>
      <point x="46" y="0" type="line"/>
      <point x="17" y="0" type="line"/>
      <point x="285" y="779" type="line"/>
    </contour>
    <contour>
      <point x="503" y="230" type="curve" smooth="yes"/>
      <point x="464" y="112"/>
      <point x="352" y="-12"/>
      <point x="218" y="-9" type="curve" smooth="yes"/>
      <point x="90" y="-6"/>
      <point x="81" y="135"/>
      <point x="112" y="230" type="curve" smooth="yes"/>
      <point x="149" y="341"/>
      <point x="248" y="468"/>
      <point x="376" y="469" type="curve" smooth="yes"/>
      <point x="509" y="470"/>
      <point x="538" y="335"/>
    </contour>
    <contour>
      <point x="473" y="230" type="curve" smooth="yes"/>
      <point x="504" y="320"/>
      <point x="485" y="441"/>
      <point x="367" y="440" type="curve" smooth="yes"/>
      <point x="256" y="439"/>
      <point x="160" y="327"/>
      <point x="126" y="230" type="curve" smooth="yes"/>
      <point x="98" y="148"/>
      <point x="109" y="24"/>
      <point x="218" y="20" type="curve" smooth="yes"/>
      <point x="335" y="15"/>
      <point x="437" y="127"/>
    </contour>
  </outline>
</glyph>
<glyph name="c" format="1">
  <advance width="456"/>
  <unicode hex="0063"/>
  <outline>
    <contour>
      <point x="100.5" y="230" type="curve" smooth="yes"/>
      <point x="70" y="132.5"/>
      <point x="110.5" y="22"/>
      <point x="225.5" y="20.5" type="curve" smooth="yes"/>
      <point x="289" y="20"/>
      <point x="346" y="50"/>
      <point x="396" y="85.5" type="curve"/>
      <point x="384.5" y="47.5" type="line"/>
      <point x="335" y="15"/>
      <point x="281" y="-9"/>
      <point x="220.5" y="-9" type="curve" smooth="yes"/>
      <point x="88.5" y="-8.5"/>
      <point x="36.5" y="116"/>
      <point x="70.5" y="230" type="curve" smooth="yes"/>
      <point x="107" y="355"/>
      <point x="228" y="469.5"/>
      <point x="363.5" y="469" type="curve" smooth="yes"/>
      <point x="416.5" y="469"/>
      <point x="460" y="449.5"/>
      <point x="496" y="411.5" type="curve"/>
      <point x="484.5" y="373.5" type="line"/>
      <point x="455" y="417"/>
      <point x="413.5" y="440"/>
      <point x="359" y="439.5" type="curve" smooth="yes"/>
      <point x="241" y="439"/>
      <point x="135" y="338"/>
    </contour>
  </outline>
</glyph>
<glyph name="e" format="1">
  <advance width="475"/>
  <unicode hex="0065"/>
  <outline>
    <contour>
      <point x="93" y="223" type="line"/>
      <point x="100" y="250" type="line"/>
      <point x="446" y="250" type="line"/>
      <point x="476" y="327"/>
      <point x="457" y="439"/>
      <point x="347" y="441" type="curve" smooth="yes"/>
      <point x="231" y="443"/>
      <point x="144" y="337"/>
      <point x="108" y="242" type="curve"/>
      <point x="106" y="232" type="line"/>
      <point x="83" y="143"/>
      <point x="93" y="22"/>
      <point x="208" y="20" type="curve" smooth="yes"/>
      <point x="285" y="19"/>
      <point x="353" y="70"/>
      <point x="408" y="123" type="curve"/>
      <point x="429" y="105" type="line"/>
      <point x="367" y="43"/>
      <point x="292" y="-10"/>
      <point x="201" y="-9" type="curve" smooth="yes"/>
      <point x="72" y="-7"/>
      <point x="47" y="128"/>
      <point x="76" y="231" type="curve" smooth="yes"/>
      <point x="83" y="254"/>
      <point x="92" y="278"/>
      <point x="104" y="300" type="curve" smooth="yes"/>
      <point x="152" y="388"/>
      <point x="244" y="470"/>
      <point x="350" y="469" type="curve" smooth="yes"/>
      <point x="471" y="467"/>
      <point x="507" y="349"/>
      <point x="479" y="248" type="curve" smooth="yes"/>
      <point x="476" y="239"/>
      <point x="473" y="231"/>
      <point x="470" y="223" type="curve"/>
    </contour>
  </outline>
</glyph>
<glyph name="f" format="1">
  <advance width="263"/>
  <unicode hex="0066"/>
  <outline>
    <contour>
      <point x="147" y="460" type="line"/>
      <point x="341" y="460" type="line"/>
      <point x="331" y="431" type="line"/>
      <point x="136" y="431" type="line"/>
    </contour>
    <contour>
      <point x="453" y="719" type="line"/>
      <point x="440" y="738"/>
      <point x="427" y="757"/>
      <point x="401" y="758" type="curve" smooth="yes"/>
      <point x="339" y="761"/>
      <point x="300" y="690"/>
      <point x="281" y="641" type="curve" smooth="yes"/>
      <point x="61" y="0" type="line"/>
      <point x="31" y="0" type="line"/>
      <point x="251" y="644" type="line" smooth="yes"/>
      <point x="275" y="709"/>
      <point x="327" y="793"/>
      <point x="408" y="788" type="curve" smooth="yes"/>
      <point x="441" y="786"/>
      <point x="459" y="767"/>
      <point x="476" y="742" type="curve"/>
    </contour>
  </outline>
</glyph>
<glyph name="g" format="1">
  <advance width="551"/>
  <unicode hex="0067"/>
  <outline>
    <contour>
      <point x="49" y="-30" type="curve"/>
      <point x="85" y="-30" type="line"/>
      <point x="68" y="-128"/>
      <point x="123" y="-197"/>
      <point x="224" y="-197" type="curve" smooth="yes"/>
      <point x="318" y="-197"/>
      <point x="417" y="-131"/>
      <point x="442" y="10" type="curve" smooth="yes"/>
      <point x="521" y="460" type="line"/>
      <point x="556" y="460" type="line"/>
      <point x="477" y="10" type="line" smooth="yes"/>
      <point x="449" y="-149"/>
      <point x="333" y="-230"/>
      <point x="218" y="-230" type="curve" smooth="yes"/>
      <point x="96" y="-230"/>
      <point x="28" y="-149"/>
    </contour>
    <contour>
      <point x="82" y="230" type="curve" smooth="yes"/>
      <point x="108" y="378"/>
      <point x="221" y="470"/>
      <point x="343" y="470" type="curve" smooth="yes"/>
      <point x="463" y="470"/>
      <point x="520" y="360"/>
      <point x="497" y="230" type="curve" smooth="yes"/>
      <point x="474" y="100"/>
      <point x="378" y="-10"/>
      <point x="258" y="-10" type="curve" smooth="yes"/>
      <point x="136" y="-10"/>
      <point x="56" y="82"/>
    </contour>
    <contour>
      <point x="118" y="230" type="curve" smooth="yes"/>
      <point x="95" y="102"/>
      <point x="164" y="23"/>
      <point x="269" y="23" type="curve" smooth="yes"/>
      <point x="365" y="23"/>
      <point x="461" y="117"/>
      <point x="481" y="233" type="curve" smooth="yes"/>
      <point x="500" y="339"/>
      <point x="438" y="437"/>
      <point x="342" y="437" type="curve" smooth="yes"/>
      <point x="237" y="437"/>
      <point x="141" y="358"/>
    </contour>
  </outline>
</glyph>
<glyph name="h" format="1">
  <advance width="459"/>
  <unicode hex="0068"/>
  <outline>
    <contour>
      <point x="320" y="779" type="line"/>
      <point x="51" y="0" type="line"/>
      <point x="21" y="0" type="line"/>
      <point x="290" y="779" type="line"/>
    </contour>
    <contour>
      <point x="406" y="308" type="line" smooth="yes"/>
      <point x="424" y="368"/>
      <point x="423" y="438"/>
      <point x="345" y="440" type="curve" smooth="yes"/>
      <point x="252" y="442"/>
      <point x="184" y="355"/>
      <point x="146" y="282" type="curve"/>
      <point x="135" y="282" type="line"/>
      <point x="175" y="369"/>
      <point x="247" y="470"/>
      <point x="355" y="469" type="curve" smooth="yes"/>
      <point x="449" y="468"/>
      <point x="458" y="384"/>
      <point x="436" y="311" type="curve"/>
      <point x="328" y="0" type="line"/>
      <point x="300" y="0" type="line"/>
    </contour>
  </outline>
</glyph>
<glyph name="i" format="1">
  <advance width="197"/>
  <unicode hex="0069"/>
  <outline>
    <contour>
      <point x="255" y="681.5" type="curve" smooth="yes"/>
      <point x="255" y="694.5"/>
      <point x="265" y="704.5"/>
      <point x="278" y="704.5" type="curve" smooth="yes"/>
      <point x="291" y="704.5"/>
      <point x="301.5" y="694.5"/>
      <point x="301.5" y="681.5" type="curve" smooth="yes"/>
      <point x="301.5" y="668.5"/>
      <point x="291" y="658.5"/>
      <point x="278" y="658.5" type="curve" smooth="yes"/>
      <point x="265" y="658.5"/>
      <point x="255" y="668.5"/>
    </contour>
    <contour>
      <point x="187.5" y="459" type="line"/>
      <point x="219" y="459" type="line"/>
      <point x="60" y="0" type="line"/>
      <point x="29.5" y="0" type="line"/>
    </contour>
  </outline>
</glyph>
<glyph name="j" format="1">
  <advance width="188"/>
  <unicode hex="006A"/>
  <outline>
    <contour>
      <point x="245" y="682" type="curve" smooth="yes"/>
      <point x="245" y="695"/>
      <point x="255" y="705"/>
      <point x="268" y="705" type="curve" smooth="yes"/>
      <point x="281" y="705"/>
      <point x="291" y="695"/>
      <point x="291" y="682" type="curve" smooth="yes"/>
      <point x="291" y="669"/>
      <point x="281" y="659"/>
      <point x="268" y="659" type="curve" smooth="yes"/>
      <point x="255" y="659"/>
      <point x="245" y="669"/>
    </contour>
    <contour>
      <point x="-176" y="-150" type="line"/>
      <point x="-166" y="-167"/>
      <point x="-149" y="-189"/>
      <point x="-126" y="-189" type="curve" smooth="yes"/>
      <point x="-63" y="-190"/>
      <point x="-21" y="-119"/>
      <point x="-4" y="-73" type="curve" smooth="yes"/>
      <point x="178" y="459" type="line"/>
      <point x="208" y="459" type="line"/>
      <point x="25" y="-76" type="line" smooth="yes"/>
      <point x="1" y="-141"/>
      <point x="-48" y="-220"/>
      <point x="-129" y="-219" type="curve" smooth="yes"/>
      <point x="-162" y="-219"/>
      <point x="-182" y="-198"/>
      <point x="-200" y="-173" type="curve"/>
    </contour>
  </outline>
</glyph>
<glyph name="k" format="1">
  <advance width="368"/>
  <unicode hex="006B"/>
  <outline>
    <contour>
      <point x="284" y="779" type="line"/>
      <point x="315.5" y="779.5" type="line"/>
      <point x="46.5" y="0" type="line"/>
      <point x="17.5" y="0" type="line"/>
    </contour>
    <contour>
      <point x="407.5" y="458.5" type="line"/>
      <point x="450" y="458.5" type="line"/>
      <point x="164" y="265.5" type="line"/>
      <point x="307.5" y="0" type="line"/>
      <point x="273" y="0" type="line"/>
      <point x="130" y="272" type="line"/>
    </contour>
  </outline>
</glyph>
<glyph name="l" format="1">
  <advance width="182"/>
  <unicode hex="006C"/>
  <outline>
    <contour>
      <point x="289" y="779" type="line"/>
      <point x="320" y="779" type="line"/>
      <point x="51" y="0" type="line"/>
      <point x="22" y="0" type="line"/>
    </contour>
  </outline>
</glyph>
<glyph name="m" format="1">
  <advance width="674"/>
  <unicode hex="006D"/>
  <outline>
    <contour>
      <point x="374" y="308" type="line" smooth="yes"/>
      <point x="389.5" y="358"/>
      <point x="402" y="436"/>
      <point x="329" y="439" type="curve" smooth="yes"/>
      <point x="242.5" y="443"/>
      <point x="180.5" y="348.5"/>
      <point x="146.5" y="282" type="curve"/>
      <point x="135" y="282" type="line"/>
      <point x="171.5" y="361.5"/>
      <point x="238" y="471.5"/>
      <point x="339.5" y="469" type="curve" smooth="yes"/>
      <point x="429" y="467"/>
      <point x="424" y="375"/>
      <point x="404.5" y="311" type="curve" smooth="yes"/>
      <point x="297" y="0" type="line"/>
      <point x="267.5" y="0" type="line"/>
    </contour>
    <contour>
      <point x="211" y="459.5" type="line"/>
      <point x="51.5" y="0" type="line"/>
      <point x="20.5" y="0" type="line"/>
      <point x="180.5" y="459.5" type="line"/>
    </contour>
    <contour>
      <point x="650" y="311" type="curve" smooth="yes"/>
      <point x="543" y="0" type="line"/>
      <point x="512" y="0" type="line"/>
      <point x="619.5" y="308" type="line" smooth="yes"/>
      <point x="635" y="358"/>
      <point x="647" y="436"/>
      <point x="574" y="439" type="curve" smooth="yes"/>
      <point x="487.5" y="443"/>
      <point x="426.5" y="348.5"/>
      <point x="392.5" y="282" type="curve"/>
      <point x="375" y="282" type="line"/>
      <point x="412.5" y="363"/>
      <point x="482.5" y="472"/>
      <point x="585" y="469" type="curve" smooth="yes"/>
      <point x="674.5" y="467"/>
      <point x="669.5" y="375"/>
    </contour>
  </outline>
</glyph>
<glyph name="n" format="1">
  <advance width="493"/>
  <unicode hex="006E"/>
  <outline>
    <contour>
      <point x="198" y="460" type="line"/>
      <point x="117" y="0" type="line"/>
      <point x="81" y="0" type="line"/>
      <point x="162" y="460" type="line"/>
    </contour>
    <contour>
      <point x="430" y="306" type="line" smooth="yes"/>
      <point x="444" y="385"/>
      <point x="420" y="437"/>
      <point x="339" y="437" type="curve" smooth="yes"/>
      <point x="256" y="437"/>
      <point x="181" y="365"/>
      <point x="166" y="280" type="curve"/>
      <point x="153" y="280" type="line"/>
      <point x="172" y="389"/>
      <point x="258" y="470"/>
      <point x="353" y="470" type="curve" smooth="yes"/>
      <point x="448" y="470"/>
      <point x="484" y="409"/>
      <point x="466" y="309" type="curve" smooth="yes"/>
      <point x="412" y="0" type="line"/>
      <point x="376" y="0" type="line"/>
    </contour>
  </outline>
</glyph>
<glyph name="o" format="1">
  <advance width="520"/>
  <unicode hex="006F"/>
  <outline>
    <contour>
      <point x="75" y="230" type="curve" smooth="yes"/>
      <point x="111.5" y="354.5"/>
      <point x="233.5" y="469.5"/>
      <point x="368.5" y="469" type="curve" smooth="yes"/>
      <point x="500.5" y="468.5"/>
      <point x="552.5" y="344"/>
      <point x="518.5" y="230" type="curve" smooth="yes"/>
      <point x="482" y="105.5"/>
      <point x="360" y="-9.5"/>
      <point x="225" y="-9" type="curve" smooth="yes"/>
      <point x="93" y="-8.5"/>
      <point x="41" y="116"/>
    </contour>
    <contour>
      <point x="105.5" y="230" type="curve" smooth="yes"/>
      <point x="75" y="133"/>
      <point x="114.5" y="21.5"/>
      <point x="229.5" y="20.5" type="curve" smooth="yes"/>
      <point x="347.5" y="19.5"/>
      <point x="454.5" y="122.5"/>
      <point x="488" y="230" type="curve" smooth="yes"/>
      <point x="518.5" y="327"/>
      <point x="478.5" y="438.5"/>
      <point x="363.5" y="439.5" type="curve" smooth="yes"/>
      <point x="245.5" y="440.5"/>
      <point x="139" y="337.5"/>
    </contour>
  </outline>
</glyph>
<glyph name="p" format="1">
  <advance width="551"/>
  <unicode hex="0070"/>
  <outline>
    <contour>
      <point x="73" y="-220" type="line"/>
      <point x="37" y="-220" type="line"/>
      <point x="157" y="460" type="line"/>
      <point x="193" y="460" type="line"/>
    </contour>
    <contour>
      <point x="551" y="230" type="curve" smooth="yes"/>
      <point x="525" y="82"/>
      <point x="411" y="-10"/>
      <point x="289" y="-10" type="curve" smooth="yes"/>
      <point x="169" y="-10"/>
      <point x="113" y="100"/>
      <point x="136" y="230" type="curve" smooth="yes"/>
      <point x="159" y="360"/>
      <point x="254" y="470"/>
      <point x="374" y="470" type="curve" smooth="yes"/>
      <point x="496" y="470"/>
      <point x="577" y="378"/>
    </contour>
    <contour>
      <point x="516" y="230" type="curve" smooth="yes"/>
      <point x="539" y="358"/>
      <point x="468" y="437"/>
      <point x="363" y="437" type="curve" smooth="yes"/>
      <point x="268" y="437"/>
      <point x="173" y="342"/>
      <point x="153" y="230" type="curve" smooth="yes"/>
      <point x="133" y="118"/>
      <point x="195" y="23"/>
      <point x="290" y="23" type="curve" smooth="yes"/>
      <point x="395" y="23"/>
      <point x="493" y="102"/>
    </contour>
  </outline>
</glyph>
<glyph name="q" format="1">
  <advance width="516"/>
  <unicode hex="0071"/>
  <outline>
    <contour>
      <point x="285" y="-219" type="line"/>
      <point x="519" y="459" type="line"/>
      <point x="549" y="459" type="line"/>
      <point x="314" y="-219" type="line"/>
    </contour>
    <contour>
      <point x="63" y="230" type="curve" smooth="yes"/>
      <point x="102" y="348"/>
      <point x="214" y="472"/>
      <point x="348" y="469" type="curve" smooth="yes"/>
      <point x="476" y="466"/>
      <point x="485" y="325"/>
      <point x="454" y="230" type="curve" smooth="yes"/>
      <point x="417" y="119"/>
      <point x="317" y="-8"/>
      <point x="189" y="-9" type="curve" smooth="yes"/>
      <point x="56" y="-10"/>
      <point x="28" y="125"/>
    </contour>
    <contour>
      <point x="93" y="230" type="curve" smooth="yes"/>
      <point x="62" y="140"/>
      <point x="80" y="19"/>
      <point x="198" y="20" type="curve" smooth="yes"/>
      <point x="309" y="21"/>
      <point x="406" y="133"/>
      <point x="440" y="230" type="curve" smooth="yes"/>
      <point x="468" y="312"/>
      <point x="456" y="436"/>
      <point x="347" y="440" type="curve" smooth="yes"/>
      <point x="230" y="445"/>
      <point x="129" y="333"/>
    </contour>
  </outline>
</glyph>
<glyph name="r" format="1">
  <advance width="286"/>
  <unicode hex="0072"/>
  <outline>
    <contour>
      <point x="211" y="459" type="line"/>
      <point x="51" y="0" type="line"/>
      <point x="21" y="0" type="line"/>
      <point x="181" y="459" type="line"/>
    </contour>
    <contour>
      <point x="352" y="421" type="line"/>
      <point x="337" y="431"/>
      <point x="323" y="439"/>
      <point x="304" y="440" type="curve" smooth="yes"/>
      <point x="221" y="444"/>
      <point x="174" y="343"/>
      <point x="146" y="281" type="curve"/>
      <point x="132" y="281" type="line"/>
      <point x="164" y="355"/>
      <point x="218" y="473"/>
      <point x="315" y="469" type="curve" smooth="yes"/>
      <point x="338" y="469"/>
      <point x="356" y="457"/>
      <point x="375" y="444" type="curve"/>
    </contour>
  </outline>
</glyph>
<glyph name="s" format="1">
  <advance width="403"/>
  <unicode hex="0073"/>
  <outline>
    <contour>
      <point x="94" y="152" type="line"/>
      <point x="95" y="86"/>
      <point x="123" y="23"/>
      <point x="206" y="23" type="curve" smooth="yes"/>
      <point x="270" y="23"/>
      <point x="321" y="56"/>
      <point x="331" y="114" type="curve" smooth="yes"/>
      <point x="342" y="179"/>
      <point x="292" y="204"/>
      <point x="233" y="225" type="curve" smooth="yes"/>
      <point x="168" y="248"/>
      <point x="110" y="275"/>
      <point x="125" y="358" type="curve" smooth="yes"/>
      <point x="137" y="428"/>
      <point x="203" y="469"/>
      <point x="276" y="469" type="curve" smooth="yes"/>
      <point x="360" y="469"/>
      <point x="395" y="410"/>
      <point x="404" y="359" type="curve"/>
      <point x="372" y="349" type="line"/>
      <point x="360" y="391"/>
      <point x="335" y="435"/>
      <point x="270" y="435" type="curve" smooth="yes"/>
      <point x="214" y="435"/>
      <point x="169" y="409"/>
      <point x="160" y="357" type="curve" smooth="yes"/>
      <point x="149" y="293"/>
      <point x="204" y="271"/>
      <point x="263" y="250" type="curve" smooth="yes"/>
      <point x="325" y="228"/>
      <point x="381" y="192"/>
      <point x="368" y="117" type="curve" smooth="yes"/>
      <point x="353" y="34"/>
      <point x="284" y="-10"/>
      <point x="198" y="-10" type="curve" smooth="yes"/>
      <point x="100" y="-10"/>
      <point x="60" y="64"/>
      <point x="60" y="142" type="curve"/>
    </contour>
  </outline>
</glyph>
<glyph name="t" format="1">
  <advance width="192"/>
  <unicode hex="0074"/>
  <outline>
    <contour>
      <point x="117.5" y="460" type="line"/>
      <point x="289" y="460" type="line"/>
      <point x="278" y="430.5" type="line"/>
      <point x="106.5" y="430.5" type="line"/>
    </contour>
    <contour>
      <point x="239" y="619" type="line"/>
      <point x="270.5" y="619.5" type="line"/>
      <point x="56" y="0" type="line"/>
      <point x="27" y="0" type="line"/>
    </contour>
  </outline>
</glyph>
<glyph name="u" format="1">
  <advance width="459"/>
  <unicode hex="0075"/>
  <outline>
    <contour>
      <point x="299" y="0" type="line"/>
      <point x="458" y="459" type="line"/>
      <point x="488" y="459" type="line"/>
      <point x="329" y="0" type="line"/>
    </contour>
    <contour>
      <point x="105" y="159" type="line" smooth="yes"/>
      <point x="86" y="99"/>
      <point x="82" y="22"/>
      <point x="164" y="20" type="curve" smooth="yes"/>
      <point x="257" y="18"/>
      <point x="325" y="104"/>
      <point x="363" y="178" type="curve"/>
      <point x="375" y="178" type="line"/>
      <point x="335" y="91"/>
      <point x="262" y="-10"/>
      <point x="154" y="-9" type="curve" smooth="yes"/>
      <point x="56" y="-8"/>
      <point x="52" y="83"/>
      <point x="75" y="156" type="curve"/>
      <point x="181" y="459" type="line"/>
      <point x="210" y="459" type="line"/>
    </contour>
  </outline>
</glyph>
<glyph name="v" format="1">
  <advance width="400"/>
  <unicode hex="0076"/>
  <outline>
    <contour>
      <point x="114.5" y="460" type="line"/>
      <point x="147" y="460" type="line"/>
      <point x="179.5" y="50" type="line"/>
      <point x="468.5" y="459" type="line"/>
      <point x="504.5" y="459" type="line"/>
      <point x="159" y="-22" type="line"/>
    </contour>
  </outline>
</glyph>
<glyph name="w" format="1">
  <advance width="599"/>
  <unicode hex="0077"/>
  <outline>
    <contour>
      <point x="115" y="460" type="line"/>
      <point x="146" y="460" type="line"/>
      <point x="130" y="62" type="line"/>
      <point x="406" y="483" type="line"/>
      <point x="398" y="61" type="line"/>
      <point x="660" y="459" type="line"/>
      <point x="694" y="459" type="line"/>
      <point x="373" y="-23" type="line"/>
      <point x="380" y="398" type="line"/>
      <point x="101" y="-23" type="line"/>
    </contour>
  </outline>
</glyph>
<glyph name="x" format="1">
  <advance width="394"/>
  <unicode hex="0078"/>
  <outline>
    <contour>
      <point x="417" y="460" type="line"/>
      <point x="459" y="460" type="line"/>
      <point x="259" y="237" type="line"/>
      <point x="388" y="0" type="line"/>
      <point x="346" y="0" type="line"/>
      <point x="234" y="209" type="line"/>
      <point x="48" y="0" type="line"/>
      <point x="6" y="0" type="line"/>
      <point x="219" y="237" type="line"/>
      <point x="97" y="460" type="line"/>
      <point x="139" y="460" type="line"/>
      <point x="244" y="265" type="line"/>
    </contour>
  </outline>
</glyph>
<glyph name="y" format="1">
  <advance width="430"/>
  <unicode hex="0079"/>
  <outline>
    <contour>
      <point x="505" y="460" type="line"/>
      <point x="85" y="-220" type="line"/>
      <point x="46" y="-220" type="line"/>
      <point x="204" y="36" type="line"/>
      <point x="87" y="460" type="line"/>
      <point x="129" y="460" type="line"/>
      <point x="237" y="49" type="line"/>
      <point x="218" y="50" type="line"/>
      <point x="466" y="460" type="line"/>
    </contour>
  </outline>
</glyph>
<glyph name="z" format="1">
  <advance width="440"/>
  <unicode hex="007A"/>
  <outline>
    <contour>
      <point x="426" y="427" type="line"/>
      <point x="117" y="427" type="line"/>
      <point x="123" y="460" type="line"/>
      <point x="497" y="460" type="line"/>
      <point x="90" y="33" type="line"/>
      <point x="421" y="33" type="line"/>
      <point x="415" y="0" type="line"/>
      <point x="18" y="0" type="line"/>
    </contour>
  </outline>
</glyph>
<glyph name="braceleft" format="1">
  <advance width="272"/>
  <unicode hex="007B"/>
  <outline>
    <contour>
      <point x="313" y="646" type="curve" smooth="yes"/>
      <point x="252.5" y="448" type="line" smooth="yes"/>
      <point x="229.5" y="377"/>
      <point x="198.5" y="312.5"/>
      <point x="124" y="286.5" type="curve"/>
      <point x="127" y="294.5" type="line"/>
      <point x="191" y="260.5"/>
      <point x="172" y="192"/>
      <point x="154.5" y="132" type="curve" smooth="yes"/>
      <point x="92.5" y="-66.5" type="line" smooth="yes"/>
      <point x="79.5" y="-111.5"/>
      <point x="68" y="-171"/>
      <point x="128" y="-171.5" type="curve" smooth="yes"/>
      <point x="152.5" y="-171.5" type="line"/>
      <point x="144.5" y="-200" type="line"/>
      <point x="114.5" y="-200" type="line" smooth="yes"/>
      <point x="37" y="-200.5"/>
      <point x="48.5" y="-116"/>
      <point x="65.5" y="-60" type="curve" smooth="yes"/>
      <point x="130.5" y="150" type="line" smooth="yes"/>
      <point x="144" y="197.5"/>
      <point x="151" y="238.5"/>
      <point x="117" y="277.5" type="curve"/>
      <point x="124.5" y="302.5" type="line"/>
      <point x="172.5" y="333.5"/>
      <point x="198" y="376.5"/>
      <point x="216" y="430" type="curve" smooth="yes"/>
      <point x="280" y="640.5" type="line" smooth="yes"/>
      <point x="302" y="706.5"/>
      <point x="337.5" y="779"/>
      <point x="413.5" y="779" type="curve" smooth="yes"/>
      <point x="445.5" y="779" type="line"/>
      <point x="437.5" y="752" type="line"/>
      <point x="414.5" y="752" type="line" smooth="yes"/>
      <point x="354" y="752"/>
      <point x="330" y="698.5"/>
    </contour>
  </outline>
</glyph>
<glyph name="bar" format="1">
  <advance width="215"/>
  <unicode hex="007C"/>
  <outline>
    <contour>
      <point x="301.5" y="784.5" type="line"/>
      <point x="330" y="784.5" type="line"/>
      <point x="21" y="-214.5" type="line"/>
      <point x="-7.5" y="-214.5" type="line"/>
    </contour>
  </outline>
</glyph>
<glyph name="braceright" format="1">
  <advance width="272"/>
  <unicode hex="007D"/>
  <outline>
    <contour>
      <point x="72" y="-66" type="curve" smooth="yes"/>
      <point x="133" y="133" type="line" smooth="yes"/>
      <point x="157" y="204"/>
      <point x="187" y="267"/>
      <point x="261" y="293" type="curve"/>
      <point x="258" y="286" type="line"/>
      <point x="195" y="320"/>
      <point x="213" y="387"/>
      <point x="231" y="447" type="curve" smooth="yes"/>
      <point x="292" y="646" type="line" smooth="yes"/>
      <point x="305" y="691"/>
      <point x="317" y="752"/>
      <point x="257" y="752" type="curve" smooth="yes"/>
      <point x="233" y="753" type="line"/>
      <point x="241" y="780" type="line"/>
      <point x="270" y="780" type="line" smooth="yes"/>
      <point x="348" y="780"/>
      <point x="336" y="696"/>
      <point x="319" y="640" type="curve" smooth="yes"/>
      <point x="254" y="430" type="line" smooth="yes"/>
      <point x="240" y="382"/>
      <point x="234" y="341"/>
      <point x="268" y="302" type="curve"/>
      <point x="261" y="278" type="line"/>
      <point x="213" y="247"/>
      <point x="187" y="204"/>
      <point x="169" y="150" type="curve" smooth="yes"/>
      <point x="105" y="-60" type="line" smooth="yes"/>
      <point x="83" y="-126"/>
      <point x="47" y="-200"/>
      <point x="-29" y="-200" type="curve" smooth="yes"/>
      <point x="-60" y="-200" type="line"/>
      <point x="-52" y="-173" type="line"/>
      <point x="-30" y="-173" type="line" smooth="yes"/>
      <point x="31" y="-173"/>
      <point x="55" y="-119"/>
    </contour>
  </outline>
</glyph>
<glyph name="asciitilde" format="1">
  <advance width="575"/>
  <unicode hex="007E"/>
  <outline>
    <contour>
      <point x="138" y="177" type="curve"/>
      <point x="106" y="181" type="line"/>
      <point x="105" y="188"/>
      <point x="105" y="196"/>
      <point x="107" y="205" type="curve" smooth="yes"/>
      <point x="112" y="234"/>
      <point x="125" y="262"/>
      <point x="147" y="285" type="curve" smooth="yes"/>
      <point x="173" y="312"/>
      <point x="208" y="327"/>
      <point x="246" y="327" type="curve" smooth="yes"/>
      <point x="298" y="327"/>
      <point x="327" y="292"/>
      <point x="353" y="260" type="curve" smooth="yes"/>
      <point x="374" y="233"/>
      <point x="398" y="205"/>
      <point x="435" y="205" type="curve" smooth="yes"/>
      <point x="483" y="205"/>
      <point x="512" y="241"/>
      <point x="521" y="292" type="curve" smooth="yes"/>
      <point x="522" y="300"/>
      <point x="524" y="312"/>
      <point x="522" y="322" type="curve"/>
      <point x="556" y="318" type="line"/>
      <point x="557" y="310"/>
      <point x="557" y="300"/>
      <point x="555" y="290" type="curve" smooth="yes"/>
      <point x="550" y="262"/>
      <point x="540" y="233"/>
      <point x="519" y="211" type="curve" smooth="yes"/>
      <point x="494" y="185"/>
      <point x="464" y="172"/>
      <point x="430" y="172" type="curve" smooth="yes"/>
      <point x="383" y="172"/>
      <point x="357" y="203"/>
      <point x="330" y="235" type="curve" smooth="yes"/>
      <point x="308" y="261"/>
      <point x="283" y="294"/>
      <point x="239" y="294" type="curve" smooth="yes"/>
      <point x="186" y="294"/>
      <point x="148" y="255"/>
      <point x="138" y="199" type="curve" smooth="yes"/>
      <point x="137" y="192"/>
      <point x="136" y="185"/>
    </contour>
  </outline>
</glyph>
<glyph name="exclamdown" format="1">
  <advance width="282"/>
  <unicode hex="00A1"/>
  <outline>
    <contour>
      <point x="35" y="-244" type="line"/>
      <point x="-4" y="-244" type="line"/>
      <point x="177" y="254" type="line"/>
      <point x="198" y="254" type="line"/>
    </contour>
    <contour>
      <point x="273" y="442" type="curve" smooth="yes"/>
      <point x="271" y="432"/>
      <point x="254" y="418"/>
      <point x="243" y="419" type="curve" smooth="yes"/>
      <point x="232" y="420"/>
      <point x="226" y="432"/>
      <point x="228" y="443" type="curve" smooth="yes"/>
      <point x="230" y="453"/>
      <point x="247" y="467"/>
      <point x="258" y="466" type="curve" smooth="yes"/>
      <point x="269" y="465"/>
      <point x="275" y="453"/>
    </contour>
  </outline>
</glyph>
<glyph name="cent" format="1">
  <advance width="545"/>
  <unicode hex="00A2"/>
  <outline>
    <contour>
      <point x="236.5" y="7.5" type="line"/>
      <point x="258" y="7.5" type="line"/>
      <point x="218" y="-111" type="line"/>
      <point x="190.5" y="-111" type="line"/>
    </contour>
    <contour>
      <point x="133" y="230" type="curve" smooth="yes"/>
      <point x="99.5" y="134.5"/>
      <point x="135.5" y="22"/>
      <point x="250.5" y="20.5" type="curve" smooth="yes"/>
      <point x="315" y="20"/>
      <point x="372" y="50"/>
      <point x="423" y="85.5" type="curve"/>
      <point x="411" y="47.5" type="line"/>
      <point x="361" y="15"/>
      <point x="305.5" y="-9"/>
      <point x="245" y="-9" type="curve" smooth="yes"/>
      <point x="112" y="-8.5"/>
      <point x="66" y="117.5"/>
      <point x="103" y="230" type="curve" smooth="yes"/>
      <point x="144.5" y="355"/>
      <point x="267.5" y="468.5"/>
      <point x="404" y="469" type="curve" smooth="yes"/>
      <point x="456" y="469"/>
      <point x="499" y="450"/>
      <point x="534" y="411.5" type="curve"/>
      <point x="522" y="373.5" type="line"/>
      <point x="494.5" y="418"/>
      <point x="452.5" y="440"/>
      <point x="399" y="439.5" type="curve" smooth="yes"/>
      <point x="280" y="439"/>
      <point x="171" y="338"/>
    </contour>
    <contour>
      <point x="427.5" y="577" type="line"/>
      <point x="456" y="577" type="line"/>
      <point x="407.5" y="453.5" type="line"/>
      <point x="386" y="453.5" type="line"/>
    </contour>
  </outline>
</glyph>
<glyph name="sterling" format="1">
  <advance width="545"/>
  <unicode hex="00A3"/>
  <outline>
    <contour>
      <point x="132" y="324.5" type="line"/>
      <point x="439.5" y="324.5" type="line"/>
      <point x="428.5" y="295" type="line"/>
      <point x="121.5" y="295" type="line"/>
    </contour>
    <contour>
      <point x="557" y="492.5" type="line"/>
      <point x="574" y="567"/>
      <point x="578" y="674.5"/>
      <point x="475.5" y="677" type="curve" smooth="yes"/>
      <point x="391.5" y="679.5"/>
      <point x="308" y="609"/>
      <point x="280.5" y="532.5" type="curve" smooth="yes"/>
      <point x="248" y="440.5"/>
      <point x="326.5" y="356"/>
      <point x="297.5" y="263.5" type="curve" smooth="yes"/>
      <point x="262.5" y="153.5"/>
      <point x="151" y="83"/>
      <point x="64.5" y="16.5" type="curve"/>
      <point x="67.5" y="31.5" type="line"/>
      <point x="430.5" y="31" type="line"/>
      <point x="419.5" y="0" type="line"/>
      <point x="25.5" y="0" type="line"/>
      <point x="109" y="76.5"/>
      <point x="228.5" y="146"/>
      <point x="265.5" y="259.5" type="curve" smooth="yes"/>
      <point x="295.5" y="353"/>
      <point x="218" y="438.5"/>
      <point x="248" y="532.5" type="curve" smooth="yes"/>
      <point x="279" y="627.5"/>
      <point x="378.5" y="710.5"/>
      <point x="481" y="709" type="curve" smooth="yes"/>
      <point x="598" y="707.5"/>
      <point x="605.5" y="589.5"/>
      <point x="587" y="501" type="curve"/>
    </contour>
  </outline>
</glyph>
<glyph name="currency" format="1">
  <advance width="567"/>
  <unicode hex="00A4"/>
  <outline>
    <contour>
      <point x="141" y="516" type="line"/>
      <point x="169" y="540" type="line"/>
      <point x="230" y="465" type="line"/>
      <point x="203" y="442" type="line"/>
    </contour>
    <contour>
      <point x="85" y="60" type="line"/>
      <point x="65" y="84" type="line"/>
      <point x="153" y="158" type="line"/>
      <point x="172" y="135" type="line"/>
    </contour>
    <contour>
      <point x="527" y="442" type="line"/>
      <point x="507" y="465" type="line"/>
      <point x="594" y="540" type="line"/>
      <point x="614" y="516" type="line"/>
    </contour>
    <contour>
      <point x="449" y="135" type="line"/>
      <point x="477" y="158" type="line"/>
      <point x="538" y="84" type="line"/>
      <point x="510" y="60" type="line"/>
    </contour>
    <contour>
      <point x="105" y="300" type="curve" smooth="yes"/>
      <point x="130" y="439"/>
      <point x="250" y="540"/>
      <point x="379" y="540" type="curve" smooth="yes"/>
      <point x="508" y="540"/>
      <point x="593" y="439"/>
      <point x="568" y="300" type="curve" smooth="yes"/>
      <point x="543" y="161"/>
      <point x="424" y="60"/>
      <point x="295" y="60" type="curve" smooth="yes"/>
      <point x="166" y="60"/>
      <point x="80" y="161"/>
    </contour>
    <contour>
      <point x="141" y="300" type="curve" smooth="yes"/>
      <point x="120" y="182"/>
      <point x="191" y="93"/>
      <point x="300" y="93" type="curve" smooth="yes"/>
      <point x="409" y="93"/>
      <point x="511" y="182"/>
      <point x="532" y="300" type="curve" smooth="yes"/>
      <point x="553" y="418"/>
      <point x="482" y="507"/>
      <point x="373" y="507" type="curve" smooth="yes"/>
      <point x="264" y="507"/>
      <point x="162" y="418"/>
    </contour>
  </outline>
</glyph>
<glyph name="yen" format="1">
  <advance width="570"/>
  <unicode hex="00A5"/>
  <outline>
    <contour>
      <point x="308" y="306" type="line"/>
      <point x="346" y="306" type="line"/>
      <point x="292" y="0" type="line"/>
      <point x="254" y="0" type="line"/>
    </contour>
    <contour>
      <point x="609" y="700" type="line"/>
      <point x="651" y="700" type="line"/>
      <point x="316" y="246" type="line"/>
      <point x="148" y="700" type="line"/>
      <point x="190" y="700" type="line"/>
      <point x="329" y="315" type="line"/>
    </contour>
    <contour>
      <point x="60" y="143" type="line"/>
      <point x="66" y="177" type="line"/>
      <point x="546" y="177" type="line"/>
      <point x="540" y="143" type="line"/>
    </contour>
    <contour>
      <point x="84" y="277" type="line"/>
      <point x="90" y="311" type="line"/>
      <point x="570" y="311" type="line"/>
      <point x="564" y="277" type="line"/>
    </contour>
  </outline>
</glyph>
<glyph name="brokenbar" format="1">
  <advance width="215"/>
  <unicode hex="00A6"/>
  <outline>
    <contour>
      <point x="278" y="694" type="line"/>
      <point x="306.5" y="694" type="line"/>
      <point x="222" y="456" type="line"/>
      <point x="193.5" y="456" type="line"/>
    </contour>
    <contour>
      <point x="152.5" y="244" type="line"/>
      <point x="68" y="6" type="line"/>
      <point x="39.5" y="6" type="line"/>
      <point x="124" y="244" type="line"/>
    </contour>
  </outline>
</glyph>
<glyph name="section" format="1">
  <advance width="376"/>
  <unicode hex="00A7"/>
  <outline>
    <contour>
      <point x="477" y="605" type="line"/>
      <point x="459.5" y="652.5"/>
      <point x="425.5" y="679"/>
      <point x="373" y="679" type="curve" smooth="yes"/>
      <point x="321.5" y="679"/>
      <point x="250.5" y="649.5"/>
      <point x="234" y="595.5" type="curve" smooth="yes"/>
      <point x="215.5" y="535"/>
      <point x="288" y="511"/>
      <point x="329.5" y="490" type="curve" smooth="yes"/>
      <point x="380" y="464.5"/>
      <point x="438.5" y="428"/>
      <point x="420" y="362" type="curve" smooth="yes"/>
      <point x="394.5" y="271"/>
      <point x="301" y="248"/>
      <point x="222" y="241.5" type="curve"/>
      <point x="225" y="251" type="line"/>
      <point x="286.5" y="272.5"/>
      <point x="369.5" y="291.5"/>
      <point x="388.5" y="361.5" type="curve" smooth="yes"/>
      <point x="404" y="419"/>
      <point x="346" y="448"/>
      <point x="303.5" y="468.5" type="curve" smooth="yes"/>
      <point x="251" y="494"/>
      <point x="181.5" y="525"/>
      <point x="204" y="596.5" type="curve" smooth="yes"/>
      <point x="226" y="667"/>
      <point x="308" y="708.5"/>
      <point x="378" y="709" type="curve" smooth="yes"/>
      <point x="441" y="709.5"/>
      <point x="485" y="679"/>
      <point x="503" y="619.5" type="curve"/>
    </contour>
    <contour>
      <point x="44" y="137" type="line"/>
      <point x="47" y="70"/>
      <point x="81.5" y="21.5"/>
      <point x="152.5" y="20" type="curve" smooth="yes"/>
      <point x="210" y="18.5"/>
      <point x="280.5" y="48.5"/>
      <point x="301.5" y="107" type="curve" smooth="yes"/>
      <point x="324.5" y="171.5"/>
      <point x="264" y="202.5"/>
      <point x="216.5" y="227.5" type="curve" smooth="yes"/>
      <point x="165.5" y="255"/>
      <point x="102" y="292"/>
      <point x="122.5" y="360" type="curve" smooth="yes"/>
      <point x="149" y="449.5"/>
      <point x="243.5" y="470.5"/>
      <point x="321" y="478.5" type="curve"/>
      <point x="319" y="471" type="line"/>
      <point x="258" y="449"/>
      <point x="173.5" y="430.5"/>
      <point x="153.5" y="361.5" type="curve" smooth="yes"/>
      <point x="135.5" y="300"/>
      <point x="198" y="271.5"/>
      <point x="242.5" y="248.5" type="curve" smooth="yes"/>
      <point x="298" y="219.5"/>
      <point x="355.5" y="180"/>
      <point x="333" y="108.5" type="curve" smooth="yes"/>
      <point x="309.5" y="31.5"/>
      <point x="221.5" y="-10.5"/>
      <point x="145.5" y="-9" type="curve" smooth="yes"/>
      <point x="64" y="-7.5"/>
      <point x="18" y="45.5"/>
      <point x="15.5" y="123.5" type="curve"/>
    </contour>
  </outline>
</glyph>
<glyph name="dieresis" format="1">
  <advance width="410"/>
  <unicode hex="00A8"/>
  <outline>
    <contour>
      <point x="451.5" y="681" type="curve" smooth="yes"/>
      <point x="453.5" y="691"/>
      <point x="470" y="705"/>
      <point x="481" y="704" type="curve" smooth="yes"/>
      <point x="492.5" y="703"/>
      <point x="500" y="691"/>
      <point x="498" y="679.5" type="curve" smooth="yes"/>
      <point x="496" y="669.5"/>
      <point x="478.5" y="655.5"/>
      <point x="467.5" y="656.5" type="curve" smooth="yes"/>
      <point x="456" y="657.5"/>
      <point x="449.5" y="669.5"/>
    </contour>
    <contour>
      <point x="263.5" y="681" type="curve" smooth="yes"/>
      <point x="265.5" y="691"/>
      <point x="282" y="705"/>
      <point x="293" y="704" type="curve" smooth="yes"/>
      <point x="304.5" y="703"/>
      <point x="312" y="691"/>
      <point x="310" y="679.5" type="curve" smooth="yes"/>
      <point x="308" y="669.5"/>
      <point x="290.5" y="655.5"/>
      <point x="279.5" y="656.5" type="curve" smooth="yes"/>
      <point x="268" y="657.5"/>
      <point x="261.5" y="669.5"/>
    </contour>
  </outline>
</glyph>
<glyph name="copyright" format="1">
  <advance width="752"/>
  <unicode hex="00A9"/>
  <outline>
    <contour>
      <point x="271" y="350" type="curve" smooth="yes"/>
      <point x="243" y="262"/>
      <point x="272" y="157"/>
      <point x="379" y="155" type="curve" smooth="yes"/>
      <point x="433" y="154"/>
      <point x="481" y="180"/>
      <point x="525" y="207" type="curve"/>
      <point x="517" y="181" type="line"/>
      <point x="473" y="156"/>
      <point x="429" y="135"/>
      <point x="377" y="136" type="curve" smooth="yes"/>
      <point x="259" y="138"/>
      <point x="220" y="251"/>
      <point x="250" y="350" type="curve" smooth="yes"/>
      <point x="283" y="460"/>
      <point x="387" y="563"/>
      <point x="506" y="564" type="curve" smooth="yes"/>
      <point x="552" y="565"/>
      <point x="587" y="548"/>
      <point x="621" y="518" type="curve"/>
      <point x="613" y="493" type="line"/>
      <point x="583" y="527"/>
      <point x="551" y="545"/>
      <point x="504" y="545" type="curve" smooth="yes"/>
      <point x="395" y="544"/>
      <point x="302" y="449"/>
    </contour>
    <contour>
      <point x="133" y="350" type="curve" smooth="yes"/>
      <point x="82" y="189"/>
      <point x="157" y="13"/>
      <point x="343" y="12" type="curve" smooth="yes"/>
      <point x="535" y="11"/>
      <point x="711" y="173"/>
      <point x="767" y="350" type="curve" smooth="yes"/>
      <point x="818" y="511"/>
      <point x="743" y="687"/>
      <point x="557" y="688" type="curve" smooth="yes"/>
      <point x="365" y="689"/>
      <point x="189" y="527"/>
    </contour>
    <contour>
      <point x="110" y="350" type="curve" smooth="yes"/>
      <point x="167" y="540"/>
      <point x="352" y="711"/>
      <point x="558" y="710" type="curve" smooth="yes"/>
      <point x="757" y="709"/>
      <point x="841" y="525"/>
      <point x="789" y="350" type="curve" smooth="yes"/>
      <point x="732" y="160"/>
      <point x="547" y="-11"/>
      <point x="341" y="-10" type="curve" smooth="yes"/>
      <point x="142" y="-9"/>
      <point x="58" y="175"/>
    </contour>
  </outline>
</glyph>
<glyph name="ordfeminine" format="1">
  <advance width="238"/>
  <unicode hex="00AA"/>
  <outline>
    <contour>
      <point x="134" y="529" type="curve" smooth="yes"/>
      <point x="127" y="490"/>
      <point x="152" y="471"/>
      <point x="188" y="471" type="curve" smooth="yes"/>
      <point x="229" y="471"/>
      <point x="269" y="501"/>
      <point x="277" y="544" type="curve"/>
      <point x="280" y="535" type="line"/>
      <point x="272" y="491"/>
      <point x="231" y="455"/>
      <point x="181" y="455" type="curve" smooth="yes"/>
      <point x="142" y="455"/>
      <point x="108" y="478"/>
      <point x="117" y="529" type="curve" smooth="yes"/>
      <point x="125" y="577"/>
      <point x="177" y="605"/>
      <point x="224" y="605" type="curve" smooth="yes"/>
      <point x="265" y="605"/>
      <point x="282" y="588"/>
      <point x="290" y="580" type="curve"/>
      <point x="288" y="567" type="line"/>
      <point x="274" y="580"/>
      <point x="253" y="591"/>
      <point x="221" y="591" type="curve" smooth="yes"/>
      <point x="181" y="591"/>
      <point x="141" y="568"/>
    </contour>
    <contour>
      <point x="169" y="656" type="curve"/>
      <point x="161" y="670" type="line"/>
      <point x="181" y="685"/>
      <point x="211" y="702"/>
      <point x="249" y="702" type="curve" smooth="yes"/>
      <point x="296" y="702"/>
      <point x="318" y="673"/>
      <point x="310" y="629" type="curve" smooth="yes"/>
      <point x="280" y="460" type="line"/>
      <point x="262" y="460" type="line"/>
      <point x="292" y="629" type="line" smooth="yes"/>
      <point x="298" y="665"/>
      <point x="282" y="686"/>
      <point x="246" y="686" type="curve" smooth="yes"/>
      <point x="213" y="686"/>
      <point x="187" y="670"/>
    </contour>
  </outline>
</glyph>
<glyph name="guillemotleft" format="1">
  <advance width="462"/>
  <unicode hex="00AB"/>
  <outline>
    <contour>
      <point x="253" y="256" type="line"/>
      <point x="357" y="38" type="line"/>
      <point x="333" y="20" type="line"/>
      <point x="220.5" y="258" type="line"/>
      <point x="491" y="488.5" type="line"/>
      <point x="505.5" y="469.5" type="line"/>
    </contour>
    <contour>
      <point x="102" y="256" type="line"/>
      <point x="206.5" y="38" type="line"/>
      <point x="182.5" y="20" type="line"/>
      <point x="70" y="258" type="line"/>
      <point x="340.5" y="488.5" type="line"/>
      <point x="355.5" y="469.5" type="line"/>
    </contour>
  </outline>
</glyph>
<glyph name="logicalnot" format="1">
  <advance width="583"/>
  <unicode hex="00AC"/>
  <outline>
    <contour>
      <point x="124" y="346" type="line"/>
      <point x="135" y="375" type="line"/>
      <point x="598" y="375" type="line"/>
      <point x="527" y="176" type="line"/>
      <point x="498" y="176" type="line"/>
      <point x="559" y="346" type="line"/>
    </contour>
  </outline>
</glyph>
<glyph name="uni00AD" format="1">
  <advance width="197"/>
  <unicode hex="00AD"/>
  <outline>
    <contour>
      <point x="34.5" y="246" type="line"/>
      <point x="44" y="275" type="line"/>
      <point x="234" y="275" type="line"/>
      <point x="223.5" y="246" type="line"/>
    </contour>
  </outline>
</glyph>
<glyph name="registered" format="1">
  <advance width="752"/>
  <unicode hex="00AE"/>
  <outline>
    <contour>
      <point x="410" y="345" type="line"/>
      <point x="431" y="345" type="line"/>
      <point x="503" y="150" type="line"/>
      <point x="479" y="150" type="line"/>
    </contour>
    <contour>
      <point x="417" y="570" type="line"/>
      <point x="437" y="570" type="line"/>
      <point x="306" y="150" type="line"/>
      <point x="286" y="150" type="line"/>
    </contour>
    <contour>
      <point x="419" y="552" type="line"/>
      <point x="424" y="570" type="line"/>
      <point x="492" y="570" type="line"/>
      <point x="560" y="566"/>
      <point x="613" y="523"/>
      <point x="592" y="450" type="curve" smooth="yes"/>
      <point x="570" y="376"/>
      <point x="494" y="337"/>
      <point x="421" y="333" type="curve"/>
      <point x="351" y="332" type="line"/>
      <point x="356" y="349" type="line"/>
      <point x="424" y="350" type="line"/>
      <point x="487" y="354"/>
      <point x="553" y="386"/>
      <point x="572" y="451" type="curve" smooth="yes"/>
      <point x="591" y="513"/>
      <point x="546" y="547"/>
      <point x="489" y="551" type="curve"/>
    </contour>
    <contour>
      <point x="133" y="350" type="curve" smooth="yes"/>
      <point x="82" y="189"/>
      <point x="157" y="13"/>
      <point x="343" y="12" type="curve" smooth="yes"/>
      <point x="535" y="11"/>
      <point x="711" y="173"/>
      <point x="767" y="350" type="curve" smooth="yes"/>
      <point x="818" y="511"/>
      <point x="743" y="687"/>
      <point x="557" y="688" type="curve" smooth="yes"/>
      <point x="365" y="689"/>
      <point x="189" y="527"/>
    </contour>
    <contour>
      <point x="110" y="350" type="curve" smooth="yes"/>
      <point x="167" y="540"/>
      <point x="352" y="711"/>
      <point x="558" y="710" type="curve" smooth="yes"/>
      <point x="757" y="709"/>
      <point x="841" y="525"/>
      <point x="789" y="350" type="curve" smooth="yes"/>
      <point x="732" y="160"/>
      <point x="547" y="-11"/>
      <point x="341" y="-10" type="curve" smooth="yes"/>
      <point x="142" y="-9"/>
      <point x="58" y="175"/>
    </contour>
  </outline>
</glyph>
<glyph name="macron" format="1">
  <advance width="479"/>
  <unicode hex="00AF"/>
  <outline>
    <contour>
      <point x="240" y="646" type="line"/>
      <point x="249" y="675" type="line"/>
      <point x="579" y="675" type="line"/>
      <point x="570" y="646" type="line"/>
    </contour>
  </outline>
</glyph>
<glyph name="degree" format="1">
  <advance width="261"/>
  <unicode hex="00B0"/>
  <outline>
    <contour>
      <point x="168" y="601" type="curve" smooth="yes"/>
      <point x="188" y="662"/>
      <point x="254" y="720"/>
      <point x="321" y="719" type="curve" smooth="yes"/>
      <point x="387" y="718"/>
      <point x="413" y="657"/>
      <point x="394" y="599" type="curve" smooth="yes"/>
      <point x="374" y="538"/>
      <point x="309" y="480"/>
      <point x="242" y="481" type="curve" smooth="yes"/>
      <point x="176" y="482"/>
      <point x="149" y="543"/>
    </contour>
    <contour>
      <point x="186" y="600" type="curve" smooth="yes"/>
      <point x="169" y="554"/>
      <point x="189" y="501"/>
      <point x="244" y="499" type="curve" smooth="yes"/>
      <point x="300" y="497"/>
      <point x="358" y="549"/>
      <point x="376" y="600" type="curve" smooth="yes"/>
      <point x="393" y="646"/>
      <point x="373" y="699"/>
      <point x="318" y="701" type="curve" smooth="yes"/>
      <point x="262" y="703"/>
      <point x="204" y="651"/>
    </contour>
  </outline>
</glyph>
<glyph name="plusminus" format="1">
  <advance width="574"/>
  <unicode hex="00B1"/>
  <outline>
    <contour>
      <point x="27.5" y="0" type="line"/>
      <point x="36.5" y="31" type="line"/>
      <point x="490.5" y="31" type="line"/>
      <point x="481" y="0" type="line"/>
    </contour>
    <contour>
      <point x="141" y="369.5" type="line"/>
      <point x="150.5" y="400.5" type="line"/>
      <point x="604.5" y="400.5" type="line"/>
      <point x="595" y="369.5" type="line"/>
    </contour>
    <contour>
      <point x="429" y="620" type="line"/>
      <point x="461.5" y="620" type="line"/>
      <point x="314.5" y="150" type="line"/>
      <point x="283.5" y="150.5" type="line"/>
    </contour>
  </outline>
</glyph>
<glyph name="uni00B2" format="1">
  <advance width="315"/>
  <unicode hex="00B2"/>
  <outline>
    <contour>
      <point x="68.5" y="283.5" type="line"/>
      <point x="318.5" y="486.5" type="line" smooth="yes"/>
      <point x="352.5" y="514.5"/>
      <point x="392" y="548"/>
      <point x="407" y="591.5" type="curve" smooth="yes"/>
      <point x="423" y="637.5"/>
      <point x="405" y="687"/>
      <point x="351" y="689.5" type="curve" smooth="yes"/>
      <point x="276.5" y="693.5"/>
      <point x="228" y="617.5"/>
      <point x="199" y="560" type="curve"/>
      <point x="179.5" y="560" type="line"/>
      <point x="212" y="628"/>
      <point x="266.5" y="710.5"/>
      <point x="353" y="708" type="curve" smooth="yes"/>
      <point x="418.5" y="706.5"/>
      <point x="444" y="647.5"/>
      <point x="425.5" y="590" type="curve" smooth="yes"/>
      <point x="410.5" y="543"/>
      <point x="371" y="506"/>
      <point x="334" y="475" type="curve" smooth="yes"/>
      <point x="116.5" y="301.5" type="line"/>
      <point x="338" y="300.5" type="line"/>
      <point x="331.5" y="282.5" type="line"/>
    </contour>
  </outline>
</glyph>
<glyph name="uni00B3" format="1">
  <advance width="290"/>
  <unicode hex="00B3"/>
  <outline>
    <contour>
      <point x="245.5" y="495.5" type="curve"/>
      <point x="250" y="508" type="line"/>
      <point x="305" y="518"/>
      <point x="367.5" y="540"/>
      <point x="388.5" y="598" type="curve" smooth="yes"/>
      <point x="404.5" y="641.5"/>
      <point x="382.5" y="684.5"/>
      <point x="335" y="687" type="curve" smooth="yes"/>
      <point x="277.5" y="689.5"/>
      <point x="238" y="642"/>
      <point x="210.5" y="598" type="curve"/>
      <point x="191.5" y="598.5" type="line"/>
      <point x="222" y="653.5"/>
      <point x="268" y="707"/>
      <point x="337" y="705" type="curve" smooth="yes"/>
      <point x="396" y="703"/>
      <point x="426.5" y="651"/>
      <point x="407.5" y="597" type="curve" smooth="yes"/>
      <point x="384" y="528.5"/>
      <point x="310.5" y="504.5"/>
    </contour>
    <contour>
      <point x="190.5" y="275" type="curve" smooth="yes"/>
      <point x="117" y="275.5"/>
      <point x="97" y="327"/>
      <point x="106" y="391" type="curve"/>
      <point x="125" y="391" type="line"/>
      <point x="118.5" y="338"/>
      <point x="129.5" y="295"/>
      <point x="192.5" y="293.5" type="curve" smooth="yes"/>
      <point x="249" y="292"/>
      <point x="311" y="335"/>
      <point x="328" y="389" type="curve" smooth="yes"/>
      <point x="348.5" y="453"/>
      <point x="298" y="478.5"/>
      <point x="244.5" y="489" type="curve"/>
      <point x="248.5" y="502" type="line"/>
      <point x="312.5" y="492"/>
      <point x="370.5" y="461"/>
      <point x="347" y="386" type="curve" smooth="yes"/>
      <point x="327" y="322"/>
      <point x="256.5" y="274.5"/>
    </contour>
  </outline>
</glyph>
<glyph name="acute" format="1">
  <advance width="337"/>
  <unicode hex="00B4"/>
  <outline>
    <contour>
      <point x="428" y="680" type="line"/>
      <point x="215" y="530" type="line"/>
      <point x="201" y="542" type="line"/>
      <point x="405" y="698" type="line"/>
    </contour>
  </outline>
</glyph>
<glyph name="paragraph" format="1">
  <advance width="456"/>
  <unicode hex="00B6"/>
  <outline>
    <contour>
      <point x="446" y="674" type="line"/>
      <point x="455" y="700" type="line"/>
      <point x="577" y="700" type="line"/>
      <point x="569" y="674" type="line"/>
    </contour>
    <contour>
      <point x="560" y="699" type="line"/>
      <point x="586" y="699" type="line"/>
      <point x="271" y="-219" type="line"/>
      <point x="244" y="-219" type="line"/>
    </contour>
    <contour>
      <point x="455" y="700" type="line"/>
      <point x="483" y="699" type="line"/>
      <point x="167" y="-219" type="line"/>
      <point x="140" y="-219" type="line"/>
    </contour>
    <contour>
      <point x="310" y="270" type="line"/>
      <point x="190" y="284"/>
      <point x="127" y="366"/>
      <point x="167" y="485" type="curve" smooth="yes"/>
      <point x="210" y="614"/>
      <point x="325" y="701"/>
      <point x="455" y="700" type="curve"/>
    </contour>
  </outline>
</glyph>
<glyph name="periodcentered" format="1">
  <advance width="243"/>
  <unicode hex="00B7"/>
  <outline>
    <contour>
      <point x="121.5" y="227.5" type="curve" smooth="yes"/>
      <point x="124" y="237.5"/>
      <point x="141" y="251.5"/>
      <point x="152" y="250.5" type="curve" smooth="yes"/>
      <point x="163.5" y="249.5"/>
      <point x="171.5" y="237.5"/>
      <point x="169" y="226" type="curve" smooth="yes"/>
      <point x="166.5" y="216"/>
      <point x="149" y="202"/>
      <point x="138" y="203" type="curve" smooth="yes"/>
      <point x="126.5" y="204"/>
      <point x="119" y="216"/>
    </contour>
  </outline>
</glyph>
<glyph name="cedilla" format="1">
  <advance width="329"/>
  <unicode hex="00B8"/>
  <outline>
    <contour>
      <point x="123" y="17.5" type="line"/>
      <point x="149.5" y="17.5" type="line"/>
      <point x="63" y="-68" type="line"/>
      <point x="79" y="-61"/>
      <point x="98" y="-50.5"/>
      <point x="116" y="-52.5" type="curve" smooth="yes"/>
      <point x="155" y="-57.5"/>
      <point x="172" y="-90.5"/>
      <point x="162.5" y="-127.5" type="curve" smooth="yes"/>
      <point x="149" y="-180.5"/>
      <point x="82.5" y="-220"/>
      <point x="30" y="-219" type="curve" smooth="yes"/>
      <point x="-2.5" y="-219"/>
      <point x="-21.5" y="-202.5"/>
      <point x="-43" y="-181" type="curve"/>
      <point x="-25" y="-166" type="line"/>
      <point x="-8" y="-182"/>
      <point x="9" y="-196"/>
      <point x="34.5" y="-196" type="curve" smooth="yes"/>
      <point x="74.5" y="-196"/>
      <point x="128" y="-165.5"/>
      <point x="139.5" y="-125.5" type="curve" smooth="yes"/>
      <point x="147.5" y="-98"/>
      <point x="132" y="-74"/>
      <point x="103.5" y="-71" type="curve" smooth="yes"/>
      <point x="77" y="-67.5"/>
      <point x="48" y="-82.5"/>
      <point x="24" y="-92.5" type="curve"/>
    </contour>
  </outline>
</glyph>
<glyph name="uni00B9" format="1">
  <advance width="442"/>
  <unicode hex="00B9"/>
  <outline>
    <contour>
      <point x="305" y="651" type="line"/>
      <point x="311" y="671" type="line"/>
      <point x="435" y="698" type="line"/>
      <point x="287" y="275" type="line"/>
      <point x="268" y="275" type="line"/>
      <point x="405" y="673" type="line"/>
    </contour>
  </outline>
</glyph>
<glyph name="ordmasculine" format="1">
  <advance width="261"/>
  <unicode hex="00BA"/>
  <outline>
    <contour>
      <point x="162" y="581" type="curve" smooth="yes"/>
      <point x="182" y="642"/>
      <point x="247" y="700"/>
      <point x="314" y="699" type="curve" smooth="yes"/>
      <point x="380" y="698"/>
      <point x="406" y="637"/>
      <point x="387" y="579" type="curve" smooth="yes"/>
      <point x="367" y="518"/>
      <point x="302" y="460"/>
      <point x="235" y="461" type="curve" smooth="yes"/>
      <point x="169" y="462"/>
      <point x="143" y="523"/>
    </contour>
    <contour>
      <point x="179" y="580" type="curve" smooth="yes"/>
      <point x="162" y="534"/>
      <point x="182" y="481"/>
      <point x="237" y="479" type="curve" smooth="yes"/>
      <point x="293" y="477"/>
      <point x="352" y="529"/>
      <point x="370" y="580" type="curve" smooth="yes"/>
      <point x="387" y="626"/>
      <point x="367" y="679"/>
      <point x="312" y="681" type="curve" smooth="yes"/>
      <point x="256" y="683"/>
      <point x="197" y="631"/>
    </contour>
  </outline>
</glyph>
<glyph name="guillemotright" format="1">
  <advance width="462"/>
  <unicode hex="00BB"/>
  <outline>
    <contour>
      <point x="276" y="254" type="line"/>
      <point x="172" y="473" type="line"/>
      <point x="195" y="490" type="line"/>
      <point x="309" y="252" type="line"/>
      <point x="37" y="22" type="line"/>
      <point x="23" y="40" type="line"/>
    </contour>
    <contour>
      <point x="427" y="254" type="line"/>
      <point x="323" y="473" type="line"/>
      <point x="346" y="490" type="line"/>
      <point x="459" y="252" type="line"/>
      <point x="188" y="22" type="line"/>
      <point x="174" y="40" type="line"/>
    </contour>
  </outline>
</glyph>
<glyph name="onequarter" format="1">
  <advance width="754"/>
  <unicode hex="00BC"/>
  <outline>
    <contour>
      <point x="775" y="700" type="line"/>
      <point x="806" y="700" type="line"/>
      <point x="129" y="0" type="line"/>
      <point x="98" y="0" type="line"/>
    </contour>
    <contour>
      <point x="138" y="646" type="line"/>
      <point x="142" y="670" type="line"/>
      <point x="268" y="698" type="line"/>
      <point x="193" y="274" type="line"/>
      <point x="171" y="274" type="line"/>
      <point x="241" y="671" type="line"/>
    </contour>
    <contour>
      <point x="415" y="84" type="line"/>
      <point x="437" y="104" type="line"/>
      <point x="643" y="104" type="line" smooth="yes"/>
      <point x="648" y="104" type="line" smooth="yes"/>
      <point x="723" y="104" type="line"/>
      <point x="720" y="84" type="line"/>
    </contour>
    <contour>
      <point x="439" y="84" type="line"/>
      <point x="415" y="84" type="line"/>
      <point x="705" y="420" type="line"/>
      <point x="713" y="420" type="line"/>
      <point x="639" y="0" type="line"/>
      <point x="617" y="0" type="line"/>
      <point x="633" y="93" type="line" smooth="yes"/>
      <point x="634" y="96" type="line" smooth="yes"/>
      <point x="682" y="366" type="line"/>
    </contour>
  </outline>
</glyph>
<glyph name="onehalf" format="1">
  <advance width="770"/>
  <unicode hex="00BD"/>
  <outline>
    <contour>
      <point x="800" y="698" type="line"/>
      <point x="828" y="698" type="line"/>
      <point x="65" y="0" type="line"/>
      <point x="37" y="0" type="line"/>
    </contour>
    <contour>
      <point x="190" y="651" type="line"/>
      <point x="196" y="671" type="line"/>
      <point x="320" y="698" type="line"/>
      <point x="172" y="275" type="line"/>
      <point x="153" y="275" type="line"/>
      <point x="290" y="673" type="line"/>
    </contour>
    <contour>
      <point x="412" y="3" type="line"/>
      <point x="662" y="205" type="line" smooth="yes"/>
      <point x="696" y="233"/>
      <point x="736" y="267"/>
      <point x="751" y="311" type="curve" smooth="yes"/>
      <point x="767" y="357"/>
      <point x="749" y="407"/>
      <point x="695" y="410" type="curve" smooth="yes"/>
      <point x="620" y="414"/>
      <point x="571" y="337"/>
      <point x="542" y="280" type="curve"/>
      <point x="523" y="280" type="line"/>
      <point x="556" y="348"/>
      <point x="610" y="431"/>
      <point x="696" y="428" type="curve" smooth="yes"/>
      <point x="761" y="426"/>
      <point x="789" y="368"/>
      <point x="770" y="310" type="curve" smooth="yes"/>
      <point x="755" y="263"/>
      <point x="713" y="226"/>
      <point x="676" y="195" type="curve" smooth="yes"/>
      <point x="459" y="21" type="line"/>
      <point x="681" y="20" type="line"/>
      <point x="675" y="2" type="line"/>
    </contour>
  </outline>
</glyph>
<glyph name="threequarters" format="1">
  <advance width="771"/>
  <unicode hex="00BE"/>
  <outline>
    <contour>
      <point x="863" y="698" type="line"/>
      <point x="891.5" y="697.5" type="line"/>
      <point x="128" y="0" type="line"/>
      <point x="100" y="0" type="line"/>
    </contour>
    <contour>
      <point x="250.5" y="495.5" type="curve"/>
      <point x="255" y="508" type="line"/>
      <point x="310" y="518"/>
      <point x="372.5" y="540"/>
      <point x="393.5" y="598" type="curve" smooth="yes"/>
      <point x="409.5" y="641.5"/>
      <point x="387" y="684.5"/>
      <point x="339.5" y="687" type="curve" smooth="yes"/>
      <point x="282" y="689.5"/>
      <point x="242" y="642"/>
      <point x="214.5" y="598" type="curve"/>
      <point x="196" y="598.5" type="line"/>
      <point x="226.5" y="653.5"/>
      <point x="273" y="707"/>
      <point x="342" y="705" type="curve" smooth="yes"/>
      <point x="401" y="703"/>
      <point x="431.5" y="651"/>
      <point x="412.5" y="597" type="curve" smooth="yes"/>
      <point x="389" y="528.5"/>
      <point x="315.5" y="504.5"/>
    </contour>
    <contour>
      <point x="195" y="275" type="curve" smooth="yes"/>
      <point x="121.5" y="275.5"/>
      <point x="101" y="327"/>
      <point x="110" y="391" type="curve"/>
      <point x="129" y="391" type="line"/>
      <point x="122.5" y="338"/>
      <point x="133.5" y="295"/>
      <point x="196.5" y="293.5" type="curve" smooth="yes"/>
      <point x="253" y="292"/>
      <point x="316" y="335"/>
      <point x="333" y="389" type="curve" smooth="yes"/>
      <point x="353.5" y="453"/>
      <point x="302.5" y="478.5"/>
      <point x="249" y="489" type="curve"/>
      <point x="253.5" y="502" type="line"/>
      <point x="317.5" y="492"/>
      <point x="375.5" y="461"/>
      <point x="352" y="386" type="curve" smooth="yes"/>
      <point x="332" y="322"/>
      <point x="261" y="274.5"/>
    </contour>
    <contour>
      <point x="414" y="84.5" type="line"/>
      <point x="434" y="101" type="line"/>
      <point x="630" y="101.5" type="line"/>
      <point x="634.5" y="101.5" type="line"/>
      <point x="705" y="101.5" type="line"/>
      <point x="700" y="84.5" type="line"/>
    </contour>
    <contour>
      <point x="434.5" y="86" type="line"/>
      <point x="412.5" y="86.5" type="line"/>
      <point x="745" y="417.5" type="line"/>
      <point x="751.5" y="419" type="line"/>
      <point x="608.5" y="0" type="line"/>
      <point x="589" y="0" type="line"/>
      <point x="621" y="91.5" type="line"/>
      <point x="622" y="95" type="line"/>
      <point x="716.5" y="366.5" type="line"/>
    </contour>
  </outline>
</glyph>
<glyph name="questiondown" format="1">
  <advance width="513"/>
  <unicode hex="00BF"/>
  <outline>
    <contour>
      <point x="108.5" y="185.5" type="curve" smooth="yes"/>
      <point x="74" y="100.5"/>
      <point x="121.5" y="21.5"/>
      <point x="214" y="20.5" type="curve" smooth="yes"/>
      <point x="294.5" y="19.5"/>
      <point x="360.5" y="70.5"/>
      <point x="417" y="122" type="curve"/>
      <point x="438.5" y="104.5" type="line"/>
      <point x="374.5" y="45"/>
      <point x="298.5" y="-10.5"/>
      <point x="206.5" y="-9" type="curve" smooth="yes"/>
      <point x="96" y="-7"/>
      <point x="44" y="86"/>
      <point x="78" y="186.5" type="curve" smooth="yes"/>
      <point x="117.5" y="302.5"/>
      <point x="237.5" y="361"/>
      <point x="351" y="377" type="curve"/>
      <point x="407.5" y="529.5" type="line"/>
      <point x="430" y="530" type="line"/>
      <point x="381.5" y="355" type="line"/>
      <point x="374.5" y="355.5" type="line"/>
      <point x="216" y="338.5"/>
      <point x="137" y="257"/>
    </contour>
    <contour>
      <point x="499" y="686.5" type="curve" smooth="yes"/>
      <point x="496.5" y="676.5"/>
      <point x="479" y="662.5"/>
      <point x="468" y="663.5" type="curve" smooth="yes"/>
      <point x="456.5" y="664.5"/>
      <point x="450" y="676.5"/>
      <point x="452.5" y="688" type="curve" smooth="yes"/>
      <point x="455" y="698"/>
      <point x="472" y="712"/>
      <point x="483" y="711" type="curve" smooth="yes"/>
      <point x="494.5" y="710"/>
      <point x="501.5" y="698"/>
    </contour>
  </outline>
</glyph>
<glyph name="Agrave" format="1">
  <advance width="580"/>
  <unicode hex="00C0"/>
  <outline>
    <contour>
      <point x="157.5" y="254" type="line"/>
      <point x="175.5" y="284" type="line"/>
      <point x="491.5" y="284.5" type="line"/>
      <point x="490" y="253.5" type="line"/>
    </contour>
    <contour>
      <point x="459.5" y="644" type="line"/>
      <point x="190" y="273" type="line"/>
      <point x="184.5" y="265" type="line"/>
      <point x="-8.5" y="0" type="line"/>
      <point x="-46" y="0" type="line"/>
      <point x="483" y="722" type="line"/>
      <point x="515.5" y="0" type="line"/>
      <point x="480.5" y="0" type="line"/>
      <point x="472.5" y="263" type="line"/>
      <point x="472.5" y="271" type="line"/>
    </contour>
    <contour>
      <point x="428.5" y="936.5" type="line"/>
      <point x="460.5" y="953" type="line"/>
      <point x="563" y="793" type="line"/>
      <point x="544.5" y="781.5" type="line"/>
    </contour>
  </outline>
</glyph>
<glyph name="Aacute" format="1">
  <advance width="580"/>
  <unicode hex="00C1"/>
  <outline>
    <contour>
      <point x="157.5" y="254" type="line"/>
      <point x="175.5" y="284" type="line"/>
      <point x="491.5" y="284.5" type="line"/>
      <point x="490" y="253.5" type="line"/>
    </contour>
    <contour>
      <point x="459.5" y="644" type="line"/>
      <point x="190" y="273" type="line"/>
      <point x="184.5" y="265" type="line"/>
      <point x="-8.5" y="0" type="line"/>
      <point x="-46" y="0" type="line"/>
      <point x="483" y="722" type="line"/>
      <point x="515.5" y="0" type="line"/>
      <point x="480.5" y="0" type="line"/>
      <point x="472.5" y="263" type="line"/>
      <point x="472.5" y="271" type="line"/>
    </contour>
    <contour>
      <point x="683.5" y="933" type="line"/>
      <point x="464.5" y="783" type="line"/>
      <point x="452" y="796" type="line"/>
      <point x="661" y="952" type="line"/>
    </contour>
  </outline>
</glyph>
<glyph name="Acircumflex" format="1">
  <advance width="580"/>
  <unicode hex="00C2"/>
  <outline>
    <contour>
      <point x="157" y="255" type="line"/>
      <point x="175" y="284" type="line"/>
      <point x="491" y="284" type="line"/>
      <point x="490" y="254" type="line"/>
    </contour>
    <contour>
      <point x="459" y="646" type="line"/>
      <point x="189" y="273" type="line"/>
      <point x="184" y="265" type="line"/>
      <point x="-9" y="0" type="line"/>
      <point x="-46" y="0" type="line"/>
      <point x="483" y="722" type="line"/>
      <point x="515" y="0" type="line"/>
      <point x="481" y="0" type="line"/>
      <point x="472" y="263" type="line"/>
      <point x="472" y="271" type="line"/>
    </contour>
    <contour>
      <point x="543" y="892" type="line"/>
      <point x="367" y="771" type="line"/>
      <point x="352" y="788" type="line"/>
      <point x="551" y="925" type="line"/>
      <point x="656" y="785" type="line"/>
      <point x="633" y="769" type="line"/>
    </contour>
  </outline>
</glyph>
<glyph name="Atilde" format="1">
  <advance width="580"/>
  <unicode hex="00C3"/>
  <outline>
    <contour>
      <point x="157" y="255" type="line"/>
      <point x="175" y="284" type="line"/>
      <point x="491" y="284" type="line"/>
      <point x="490" y="254" type="line"/>
    </contour>
    <contour>
      <point x="459" y="646" type="line"/>
      <point x="189" y="273" type="line"/>
      <point x="184" y="265" type="line"/>
      <point x="-9" y="0" type="line"/>
      <point x="-46" y="0" type="line"/>
      <point x="483" y="722" type="line"/>
      <point x="515" y="0" type="line"/>
      <point x="481" y="0" type="line"/>
      <point x="472" y="263" type="line"/>
      <point x="472" y="271" type="line"/>
    </contour>
    <contour>
      <point x="379" y="802" type="line"/>
      <point x="401" y="832"/>
      <point x="429" y="866"/>
      <point x="470" y="865" type="curve" smooth="yes"/>
      <point x="517" y="864"/>
      <point x="531" y="818"/>
      <point x="571" y="820" type="curve" smooth="yes"/>
      <point x="600" y="821"/>
      <point x="622" y="848"/>
      <point x="641" y="866" type="curve"/>
      <point x="658" y="850" type="line"/>
      <point x="634" y="825"/>
      <point x="602" y="793"/>
      <point x="565" y="794" type="curve" smooth="yes"/>
      <point x="519" y="795"/>
      <point x="506" y="840"/>
      <point x="467" y="839" type="curve" smooth="yes"/>
      <point x="436" y="838"/>
      <point x="416" y="812"/>
      <point x="398" y="790" type="curve"/>
    </contour>
  </outline>
</glyph>
<glyph name="Adieresis" format="1">
  <advance width="580"/>
  <unicode hex="00C4"/>
  <outline>
    <contour>
      <point x="157" y="255" type="line"/>
      <point x="175" y="284" type="line"/>
      <point x="491" y="284" type="line"/>
      <point x="490" y="254" type="line"/>
    </contour>
    <contour>
      <point x="459" y="646" type="line"/>
      <point x="189" y="273" type="line"/>
      <point x="184" y="265" type="line"/>
      <point x="-9" y="0" type="line"/>
      <point x="-46" y="0" type="line"/>
      <point x="483" y="722" type="line"/>
      <point x="515" y="0" type="line"/>
      <point x="481" y="0" type="line"/>
      <point x="472" y="263" type="line"/>
      <point x="472" y="271" type="line"/>
    </contour>
    <contour>
      <point x="587" y="819" type="curve" smooth="yes"/>
      <point x="589" y="829"/>
      <point x="606" y="843"/>
      <point x="617" y="842" type="curve" smooth="yes"/>
      <point x="628" y="841"/>
      <point x="635" y="829"/>
      <point x="633" y="818" type="curve" smooth="yes"/>
      <point x="631" y="808"/>
      <point x="614" y="794"/>
      <point x="603" y="795" type="curve" smooth="yes"/>
      <point x="592" y="796"/>
      <point x="585" y="808"/>
    </contour>
    <contour>
      <point x="398" y="819" type="curve" smooth="yes"/>
      <point x="400" y="829"/>
      <point x="418" y="843"/>
      <point x="429" y="842" type="curve" smooth="yes"/>
      <point x="440" y="841"/>
      <point x="447" y="829"/>
      <point x="445" y="818" type="curve" smooth="yes"/>
      <point x="443" y="808"/>
      <point x="426" y="794"/>
      <point x="415" y="795" type="curve" smooth="yes"/>
      <point x="404" y="796"/>
      <point x="396" y="808"/>
    </contour>
  </outline>
</glyph>
<glyph name="Aring" format="1">
  <advance width="580"/>
  <unicode hex="00C5"/>
  <outline>
    <contour>
      <point x="157" y="255" type="line"/>
      <point x="175" y="284" type="line"/>
      <point x="491" y="284" type="line"/>
      <point x="490" y="254" type="line"/>
    </contour>
    <contour>
      <point x="459" y="646" type="line"/>
      <point x="189" y="273" type="line"/>
      <point x="184" y="265" type="line"/>
      <point x="-9" y="0" type="line"/>
      <point x="-46" y="0" type="line"/>
      <point x="483" y="722" type="line"/>
      <point x="515" y="0" type="line"/>
      <point x="481" y="0" type="line"/>
      <point x="472" y="263" type="line"/>
      <point x="472" y="271" type="line"/>
    </contour>
    <contour>
      <point x="414" y="806" type="curve" smooth="yes"/>
      <point x="430" y="857"/>
      <point x="489" y="905"/>
      <point x="544" y="904" type="curve" smooth="yes"/>
      <point x="598" y="903"/>
      <point x="624" y="852"/>
      <point x="608" y="804" type="curve" smooth="yes"/>
      <point x="592" y="753"/>
      <point x="533" y="705"/>
      <point x="478" y="706" type="curve" smooth="yes"/>
      <point x="424" y="707"/>
      <point x="398" y="758"/>
    </contour>
    <contour>
      <point x="435" y="805" type="curve" smooth="yes"/>
      <point x="423" y="769"/>
      <point x="441" y="729"/>
      <point x="482" y="727" type="curve" smooth="yes"/>
      <point x="524" y="724"/>
      <point x="575" y="767"/>
      <point x="587" y="805" type="curve" smooth="yes"/>
      <point x="599" y="841"/>
      <point x="581" y="881"/>
      <point x="540" y="883" type="curve" smooth="yes"/>
      <point x="498" y="886"/>
      <point x="447" y="843"/>
    </contour>
  </outline>
</glyph>
<glyph name="AE" format="1">
  <advance width="861"/>
  <unicode hex="00C6"/>
  <outline>
    <contour>
      <point x="232" y="259.5" type="line"/>
      <point x="242" y="290" type="line"/>
      <point x="519.5" y="290" type="line"/>
      <point x="508.5" y="259" type="line"/>
    </contour>
    <contour>
      <point x="628" y="700" type="line"/>
      <point x="652.5" y="685" type="line"/>
      <point x="-13.5" y="0" type="line"/>
      <point x="-50.5" y="0" type="line"/>
    </contour>
    <contour>
      <point x="424.5" y="0" type="line"/>
      <point x="435.5" y="31" type="line"/>
      <point x="746" y="31" type="line"/>
      <point x="735.5" y="0" type="line"/>
    </contour>
    <contour>
      <point x="660" y="669" type="line"/>
      <point x="628" y="700" type="line"/>
      <point x="974.5" y="700" type="line"/>
      <point x="963.5" y="669" type="line"/>
    </contour>
    <contour>
      <point x="551" y="371" type="line"/>
      <point x="562" y="402" type="line"/>
      <point x="853.5" y="402" type="line"/>
      <point x="843.5" y="371" type="line"/>
    </contour>
    <contour>
      <point x="646" y="699" type="line"/>
      <point x="679.5" y="699.5" type="line"/>
      <point x="437.5" y="0" type="line"/>
      <point x="405.5" y="0" type="line"/>
    </contour>
  </outline>
</glyph>
<glyph name="Ccedilla" format="1">
  <advance width="644"/>
  <unicode hex="00C7"/>
  <outline>
    <contour>
      <point x="143.5" y="350" type="curve" smooth="yes"/>
      <point x="94" y="206.5"/>
      <point x="134" y="29.5"/>
      <point x="312.5" y="26.5" type="curve" smooth="yes"/>
      <point x="403" y="25"/>
      <point x="484.5" y="64.5"/>
      <point x="557.5" y="113.5" type="curve"/>
      <point x="543" y="69.5" type="line"/>
      <point x="470.5" y="24"/>
      <point x="392.5" y="-9"/>
      <point x="306" y="-8" type="curve" smooth="yes"/>
      <point x="108.5" y="-6"/>
      <point x="54" y="187.5"/>
      <point x="108.5" y="350" type="curve" smooth="yes"/>
      <point x="169.5" y="533.5"/>
      <point x="343" y="706.5"/>
      <point x="545.5" y="708.5" type="curve" smooth="yes"/>
      <point x="621" y="709.5"/>
      <point x="681.5" y="684"/>
      <point x="733.5" y="630" type="curve"/>
      <point x="719" y="586" type="line"/>
      <point x="675" y="647"/>
      <point x="614" y="675"/>
      <point x="539" y="674.5" type="curve" smooth="yes"/>
      <point x="355.5" y="673"/>
      <point x="200.5" y="514"/>
    </contour>
    <contour>
      <point x="304.5" y="15.5" type="line"/>
      <point x="331.5" y="15.5" type="line"/>
      <point x="244.5" y="-69" type="line"/>
      <point x="260.5" y="-62"/>
      <point x="280" y="-51.5"/>
      <point x="298" y="-53.5" type="curve" smooth="yes"/>
      <point x="336.5" y="-58.5"/>
      <point x="354" y="-92"/>
      <point x="344" y="-128.5" type="curve" smooth="yes"/>
      <point x="330" y="-181"/>
      <point x="265" y="-220.5"/>
      <point x="212.5" y="-220" type="curve" smooth="yes"/>
      <point x="180" y="-220"/>
      <point x="160.5" y="-203.5"/>
      <point x="139" y="-182" type="curve"/>
      <point x="157" y="-167" type="line"/>
      <point x="174" y="-183"/>
      <point x="191" y="-197"/>
      <point x="216.5" y="-197" type="curve" smooth="yes"/>
      <point x="256.5" y="-197"/>
      <point x="309" y="-166.5"/>
      <point x="320.5" y="-126.5" type="curve" smooth="yes"/>
      <point x="328.5" y="-99"/>
      <point x="314" y="-75"/>
      <point x="285.5" y="-72" type="curve" smooth="yes"/>
      <point x="259" y="-68.5"/>
      <point x="230" y="-83.5"/>
      <point x="206" y="-93.5" type="curve"/>
    </contour>
  </outline>
</glyph>
<glyph name="Egrave" format="1">
  <advance width="490"/>
  <unicode hex="00C8"/>
  <outline>
    <contour>
      <point x="42" y="0" type="line"/>
      <point x="52" y="31" type="line"/>
      <point x="376" y="31" type="line"/>
      <point x="366" y="0" type="line"/>
    </contour>
    <contour>
      <point x="271" y="669.5" type="line"/>
      <point x="281" y="700" type="line"/>
      <point x="604" y="700" type="line"/>
      <point x="594" y="669" type="line"/>
    </contour>
    <contour>
      <point x="168.5" y="371" type="line"/>
      <point x="179.5" y="402" type="line"/>
      <point x="483.5" y="402" type="line"/>
      <point x="473.5" y="371" type="line"/>
    </contour>
    <contour>
      <point x="266" y="699" type="line"/>
      <point x="299.5" y="699.5" type="line"/>
      <point x="58.5" y="0" type="line"/>
      <point x="27" y="0" type="line"/>
    </contour>
    <contour>
      <point x="371" y="924" type="line"/>
      <point x="402" y="940.5" type="line"/>
      <point x="505" y="780.5" type="line"/>
      <point x="487" y="769.5" type="line"/>
    </contour>
  </outline>
</glyph>
<glyph name="Eacute" format="1">
  <advance width="490"/>
  <unicode hex="00C9"/>
  <outline>
    <contour>
      <point x="42" y="0" type="line"/>
      <point x="52" y="31" type="line"/>
      <point x="376" y="31" type="line"/>
      <point x="366" y="0" type="line"/>
    </contour>
    <contour>
      <point x="271" y="669.5" type="line"/>
      <point x="281" y="700" type="line"/>
      <point x="604" y="700" type="line"/>
      <point x="594" y="669" type="line"/>
    </contour>
    <contour>
      <point x="168.5" y="371" type="line"/>
      <point x="179.5" y="402" type="line"/>
      <point x="483.5" y="402" type="line"/>
      <point x="473.5" y="371" type="line"/>
    </contour>
    <contour>
      <point x="266" y="699" type="line"/>
      <point x="299.5" y="699.5" type="line"/>
      <point x="58.5" y="0" type="line"/>
      <point x="27" y="0" type="line"/>
    </contour>
    <contour>
      <point x="652" y="920.5" type="line"/>
      <point x="433" y="770.5" type="line"/>
      <point x="419.5" y="783.5" type="line"/>
      <point x="630" y="939.5" type="line"/>
    </contour>
  </outline>
</glyph>
<glyph name="Ecircumflex" format="1">
  <advance width="490"/>
  <unicode hex="00CA"/>
  <outline>
    <contour>
      <point x="42" y="0" type="line"/>
      <point x="52" y="30" type="line"/>
      <point x="375" y="30" type="line"/>
      <point x="366" y="0" type="line"/>
    </contour>
    <contour>
      <point x="271" y="670" type="line"/>
      <point x="281" y="700" type="line"/>
      <point x="604" y="700" type="line"/>
      <point x="594" y="670" type="line"/>
    </contour>
    <contour>
      <point x="169" y="372" type="line"/>
      <point x="179" y="402" type="line"/>
      <point x="483" y="402" type="line"/>
      <point x="473" y="371" type="line"/>
    </contour>
    <contour>
      <point x="266" y="699" type="line"/>
      <point x="299" y="699" type="line"/>
      <point x="58" y="0" type="line"/>
      <point x="27" y="0" type="line"/>
    </contour>
    <contour>
      <point x="506" y="891" type="line"/>
      <point x="329" y="770" type="line"/>
      <point x="315" y="787" type="line"/>
      <point x="513" y="924" type="line"/>
      <point x="618" y="785" type="line"/>
      <point x="596" y="769" type="line"/>
    </contour>
  </outline>
</glyph>
<glyph name="Edieresis" format="1">
  <advance width="490"/>
  <unicode hex="00CB"/>
  <outline>
    <contour>
      <point x="42" y="0" type="line"/>
      <point x="52" y="30" type="line"/>
      <point x="375" y="30" type="line"/>
      <point x="366" y="0" type="line"/>
    </contour>
    <contour>
      <point x="271" y="670" type="line"/>
      <point x="281" y="700" type="line"/>
      <point x="604" y="700" type="line"/>
      <point x="594" y="670" type="line"/>
    </contour>
    <contour>
      <point x="169" y="372" type="line"/>
      <point x="179" y="402" type="line"/>
      <point x="483" y="402" type="line"/>
      <point x="473" y="371" type="line"/>
    </contour>
    <contour>
      <point x="266" y="699" type="line"/>
      <point x="299" y="699" type="line"/>
      <point x="58" y="0" type="line"/>
      <point x="27" y="0" type="line"/>
    </contour>
    <contour>
      <point x="547" y="813" type="curve" smooth="yes"/>
      <point x="549" y="823"/>
      <point x="567" y="837"/>
      <point x="578" y="836" type="curve" smooth="yes"/>
      <point x="589" y="835"/>
      <point x="595" y="823"/>
      <point x="593" y="812" type="curve" smooth="yes"/>
      <point x="591" y="802"/>
      <point x="574" y="788"/>
      <point x="563" y="789" type="curve" smooth="yes"/>
      <point x="552" y="790"/>
      <point x="545" y="802"/>
    </contour>
    <contour>
      <point x="359" y="813" type="curve" smooth="yes"/>
      <point x="361" y="823"/>
      <point x="378" y="837"/>
      <point x="389" y="836" type="curve" smooth="yes"/>
      <point x="400" y="835"/>
      <point x="407" y="823"/>
      <point x="405" y="812" type="curve" smooth="yes"/>
      <point x="403" y="802"/>
      <point x="386" y="788"/>
      <point x="375" y="789" type="curve" smooth="yes"/>
      <point x="364" y="790"/>
      <point x="357" y="802"/>
    </contour>
  </outline>
</glyph>
<glyph name="Igrave" format="1">
  <advance width="186"/>
  <unicode hex="00CC"/>
  <outline>
    <contour>
      <point x="263" y="699" type="line"/>
      <point x="295" y="699" type="line"/>
      <point x="53" y="0" type="line"/>
      <point x="23" y="0" type="line"/>
    </contour>
    <contour>
      <point x="214" y="924" type="line"/>
      <point x="245" y="940" type="line"/>
      <point x="348" y="780" type="line"/>
      <point x="330" y="769" type="line"/>
    </contour>
  </outline>
</glyph>
<glyph name="Iacute" format="1">
  <advance width="186"/>
  <unicode hex="00CD"/>
  <outline>
    <contour>
      <point x="263" y="699" type="line"/>
      <point x="295" y="699" type="line"/>
      <point x="53" y="0" type="line"/>
      <point x="23" y="0" type="line"/>
    </contour>
    <contour>
      <point x="495" y="921" type="line"/>
      <point x="276" y="770" type="line"/>
      <point x="264" y="783" type="line"/>
      <point x="474" y="939" type="line"/>
    </contour>
  </outline>
</glyph>
<glyph name="Icircumflex" format="1">
  <advance width="187"/>
  <unicode hex="00CE"/>
  <outline>
    <contour>
      <point x="263.5" y="699" type="line"/>
      <point x="296" y="699.5" type="line"/>
      <point x="54" y="0" type="line"/>
      <point x="23.5" y="0" type="line"/>
    </contour>
    <contour>
      <point x="346.5" y="890.5" type="line"/>
      <point x="170.5" y="770.5" type="line"/>
      <point x="155.5" y="788" type="line"/>
      <point x="353.5" y="925" type="line"/>
      <point x="459" y="785" type="line"/>
      <point x="436" y="769" type="line"/>
    </contour>
  </outline>
</glyph>
<glyph name="Idieresis" format="1">
  <advance width="186"/>
  <unicode hex="00CF"/>
  <outline>
    <contour>
      <point x="263" y="699" type="line"/>
      <point x="295" y="699" type="line"/>
      <point x="53" y="0" type="line"/>
      <point x="23" y="0" type="line"/>
    </contour>
    <contour>
      <point x="366" y="807" type="curve" smooth="yes"/>
      <point x="368" y="817"/>
      <point x="384" y="831"/>
      <point x="395" y="830" type="curve" smooth="yes"/>
      <point x="406" y="829"/>
      <point x="414" y="817"/>
      <point x="412" y="806" type="curve" smooth="yes"/>
      <point x="410" y="796"/>
      <point x="393" y="782"/>
      <point x="382" y="783" type="curve" smooth="yes"/>
      <point x="370" y="784"/>
      <point x="364" y="796"/>
    </contour>
    <contour>
      <point x="218" y="807" type="curve" smooth="yes"/>
      <point x="220" y="817"/>
      <point x="237" y="831"/>
      <point x="248" y="830" type="curve" smooth="yes"/>
      <point x="259" y="829"/>
      <point x="266" y="817"/>
      <point x="264" y="806" type="curve" smooth="yes"/>
      <point x="262" y="796"/>
      <point x="244" y="782"/>
      <point x="233" y="783" type="curve" smooth="yes"/>
      <point x="221" y="784"/>
      <point x="216" y="796"/>
    </contour>
  </outline>
</glyph>
<glyph name="Eth" format="1">
  <advance width="639"/>
  <unicode hex="00D0"/>
  <outline>
    <contour>
      <point x="65" y="335" type="line"/>
      <point x="74" y="364" type="line"/>
      <point x="358" y="364" type="line"/>
      <point x="348" y="335" type="line"/>
    </contour>
    <contour>
      <point x="266" y="699" type="line"/>
      <point x="299" y="699" type="line"/>
      <point x="58" y="0" type="line"/>
      <point x="27" y="0" type="line"/>
    </contour>
    <contour>
      <point x="194" y="0" type="curve" smooth="yes"/>
      <point x="43" y="0" type="line"/>
      <point x="55" y="32" type="line"/>
      <point x="201" y="32" type="line" smooth="yes"/>
      <point x="386" y="39"/>
      <point x="540" y="179"/>
      <point x="599" y="350" type="curve" smooth="yes"/>
      <point x="652" y="503"/>
      <point x="602" y="660"/>
      <point x="422" y="668" type="curve" smooth="yes"/>
      <point x="271" y="668" type="line"/>
      <point x="282" y="700" type="line"/>
      <point x="428" y="700" type="line" smooth="yes"/>
      <point x="625" y="693"/>
      <point x="688" y="520"/>
      <point x="631" y="350" type="curve" smooth="yes"/>
      <point x="568" y="162"/>
      <point x="398" y="6"/>
    </contour>
  </outline>
</glyph>
<glyph name="Ntilde" format="1">
  <advance width="655"/>
  <unicode hex="00D1"/>
  <outline>
    <contour>
      <point x="742" y="699" type="line"/>
      <point x="774" y="699" type="line"/>
      <point x="526" y="-20" type="line"/>
      <point x="249" y="633" type="line"/>
      <point x="31" y="0" type="line"/>
      <point x="-1" y="0" type="line"/>
      <point x="247" y="720" type="line"/>
      <point x="523" y="64" type="line"/>
    </contour>
    <contour>
      <point x="401" y="768" type="line"/>
      <point x="423" y="798"/>
      <point x="451" y="831"/>
      <point x="492" y="830" type="curve" smooth="yes"/>
      <point x="532" y="829"/>
      <point x="553" y="783"/>
      <point x="593" y="785" type="curve" smooth="yes"/>
      <point x="622" y="786"/>
      <point x="644" y="813"/>
      <point x="663" y="831" type="curve"/>
      <point x="679" y="816" type="line"/>
      <point x="655" y="791"/>
      <point x="625" y="759"/>
      <point x="587" y="760" type="curve" smooth="yes"/>
      <point x="548" y="761"/>
      <point x="528" y="805"/>
      <point x="489" y="805" type="curve" smooth="yes"/>
      <point x="457" y="805"/>
      <point x="437" y="779"/>
      <point x="420" y="756" type="curve"/>
    </contour>
  </outline>
</glyph>
<glyph name="Oacute" format="1">
  <advance width="732"/>
  <unicode hex="00D3"/>
  <outline>
    <contour>
      <point x="142" y="350" type="curve" smooth="yes"/>
      <point x="92" y="203"/>
      <point x="137" y="25"/>
      <point x="318" y="24" type="curve" smooth="yes"/>
      <point x="503" y="23"/>
      <point x="664" y="184"/>
      <point x="721" y="350" type="curve" smooth="yes"/>
      <point x="771" y="497"/>
      <point x="727" y="675"/>
      <point x="546" y="676" type="curve" smooth="yes"/>
      <point x="361" y="677"/>
      <point x="199" y="516"/>
    </contour>
    <contour>
      <point x="109" y="350" type="curve" smooth="yes"/>
      <point x="170" y="534"/>
      <point x="348" y="710"/>
      <point x="551" y="709" type="curve" smooth="yes"/>
      <point x="749" y="708"/>
      <point x="809" y="515"/>
      <point x="755" y="350" type="curve" smooth="yes"/>
      <point x="694" y="166"/>
      <point x="515" y="-10"/>
      <point x="312" y="-9" type="curve" smooth="yes"/>
      <point x="114" y="-8"/>
      <point x="55" y="185"/>
    </contour>
    <contour>
      <point x="752" y="921" type="line"/>
      <point x="534" y="771" type="line"/>
      <point x="520" y="783" type="line"/>
      <point x="729" y="939" type="line"/>
    </contour>
  </outline>
</glyph>
<glyph name="Otilde" format="1">
  <advance width="732"/>
  <unicode hex="00D5"/>
  <outline>
    <contour>
      <point x="142" y="350" type="curve" smooth="yes"/>
      <point x="92" y="203"/>
      <point x="137" y="25"/>
      <point x="318" y="24" type="curve" smooth="yes"/>
      <point x="503" y="23"/>
      <point x="664" y="184"/>
      <point x="721" y="350" type="curve" smooth="yes"/>
      <point x="771" y="497"/>
      <point x="727" y="675"/>
      <point x="546" y="676" type="curve" smooth="yes"/>
      <point x="361" y="677"/>
      <point x="199" y="516"/>
    </contour>
    <contour>
      <point x="109" y="350" type="curve" smooth="yes"/>
      <point x="170" y="534"/>
      <point x="348" y="710"/>
      <point x="551" y="709" type="curve" smooth="yes"/>
      <point x="749" y="708"/>
      <point x="809" y="515"/>
      <point x="755" y="350" type="curve" smooth="yes"/>
      <point x="694" y="166"/>
      <point x="515" y="-10"/>
      <point x="312" y="-9" type="curve" smooth="yes"/>
      <point x="114" y="-8"/>
      <point x="55" y="185"/>
    </contour>
    <contour>
      <point x="453" y="796" type="line"/>
      <point x="463" y="826"/>
      <point x="510" y="858"/>
      <point x="545" y="858" type="curve" smooth="yes"/>
      <point x="585" y="857"/>
      <point x="605" y="811"/>
      <point x="645" y="813" type="curve" smooth="yes"/>
      <point x="674" y="814"/>
      <point x="697" y="841"/>
      <point x="716" y="859" type="curve"/>
      <point x="730" y="844" type="line"/>
      <point x="706" y="819"/>
      <point x="677" y="787"/>
      <point x="639" y="788" type="curve" smooth="yes"/>
      <point x="600" y="789"/>
      <point x="579" y="833"/>
      <point x="541" y="833" type="curve" smooth="yes"/>
      <point x="508" y="833"/>
      <point x="489" y="807"/>
      <point x="471" y="784" type="curve"/>
    </contour>
  </outline>
</glyph>
<glyph name="Odieresis" format="1">
  <advance width="732"/>
  <unicode hex="00D6"/>
  <outline>
    <contour>
      <point x="142" y="350" type="curve" smooth="yes"/>
      <point x="92" y="203"/>
      <point x="137" y="25"/>
      <point x="318" y="24" type="curve" smooth="yes"/>
      <point x="503" y="23"/>
      <point x="664" y="184"/>
      <point x="721" y="350" type="curve" smooth="yes"/>
      <point x="771" y="497"/>
      <point x="727" y="675"/>
      <point x="546" y="676" type="curve" smooth="yes"/>
      <point x="361" y="677"/>
      <point x="199" y="516"/>
    </contour>
    <contour>
      <point x="109" y="350" type="curve" smooth="yes"/>
      <point x="170" y="534"/>
      <point x="348" y="710"/>
      <point x="551" y="709" type="curve" smooth="yes"/>
      <point x="749" y="708"/>
      <point x="809" y="515"/>
      <point x="755" y="350" type="curve" smooth="yes"/>
      <point x="694" y="166"/>
      <point x="515" y="-10"/>
      <point x="312" y="-9" type="curve" smooth="yes"/>
      <point x="114" y="-8"/>
      <point x="55" y="185"/>
    </contour>
    <contour>
      <point x="668" y="814" type="curve" smooth="yes"/>
      <point x="670" y="824"/>
      <point x="687" y="838"/>
      <point x="698" y="837" type="curve" smooth="yes"/>
      <point x="709" y="836"/>
      <point x="715" y="824"/>
      <point x="713" y="813" type="curve" smooth="yes"/>
      <point x="711" y="803"/>
      <point x="694" y="789"/>
      <point x="683" y="790" type="curve" smooth="yes"/>
      <point x="672" y="791"/>
      <point x="666" y="803"/>
    </contour>
    <contour>
      <point x="466" y="814" type="curve" smooth="yes"/>
      <point x="468" y="824"/>
      <point x="485" y="838"/>
      <point x="496" y="837" type="curve" smooth="yes"/>
      <point x="507" y="836"/>
      <point x="514" y="824"/>
      <point x="512" y="813" type="curve" smooth="yes"/>
      <point x="510" y="803"/>
      <point x="493" y="789"/>
      <point x="482" y="790" type="curve" smooth="yes"/>
      <point x="471" y="791"/>
      <point x="464" y="803"/>
    </contour>
  </outline>
</glyph>
<glyph name="multiply" format="1">
  <advance width="547"/>
  <unicode hex="00D7"/>
  <outline>
    <contour>
      <point x="52" y="40" type="line"/>
      <point x="37" y="63" type="line"/>
      <point x="290" y="255" type="line"/>
      <point x="170" y="450" type="line"/>
      <point x="195" y="470" type="line"/>
      <point x="311" y="275" type="line"/>
      <point x="563" y="469" type="line"/>
      <point x="577" y="446" type="line"/>
      <point x="324" y="253" type="line"/>
      <point x="444" y="59" type="line"/>
      <point x="418" y="39" type="line"/>
      <point x="302" y="234" type="line"/>
    </contour>
  </outline>
</glyph>
<glyph name="Ugrave" format="1">
  <advance width="555"/>
  <unicode hex="00D9"/>
  <outline>
    <contour>
      <point x="262.5" y="699.5" type="line"/>
      <point x="294.5" y="699.5" type="line"/>
      <point x="130" y="223" type="line" smooth="yes"/>
      <point x="102" y="133.5"/>
      <point x="112.5" y="24"/>
      <point x="229" y="22.5" type="curve" smooth="yes"/>
      <point x="346" y="21"/>
      <point x="430.5" y="122.5"/>
      <point x="468.5" y="223" type="curve"/>
      <point x="633" y="699.5" type="line"/>
      <point x="665.5" y="699.5" type="line"/>
      <point x="502.5" y="223" type="line" smooth="yes"/>
      <point x="459.5" y="104"/>
      <point x="360" y="-9.5"/>
      <point x="223.5" y="-9" type="curve" smooth="yes"/>
      <point x="88.5" y="-8.5"/>
      <point x="66" y="114.5"/>
      <point x="99" y="223" type="curve"/>
    </contour>
    <contour>
      <point x="412" y="924" type="line"/>
      <point x="443" y="940.5" type="line"/>
      <point x="546" y="780.5" type="line"/>
      <point x="527.5" y="769.5" type="line"/>
    </contour>
  </outline>
</glyph>
<glyph name="Uacute" format="1">
  <advance width="555"/>
  <unicode hex="00DA"/>
  <outline>
    <contour>
      <point x="262.5" y="699.5" type="line"/>
      <point x="294.5" y="699.5" type="line"/>
      <point x="130" y="223" type="line" smooth="yes"/>
      <point x="102" y="133.5"/>
      <point x="112.5" y="24"/>
      <point x="229" y="22.5" type="curve" smooth="yes"/>
      <point x="346" y="21"/>
      <point x="430.5" y="122.5"/>
      <point x="468.5" y="223" type="curve"/>
      <point x="633" y="699.5" type="line"/>
      <point x="665.5" y="699.5" type="line"/>
      <point x="502.5" y="223" type="line" smooth="yes"/>
      <point x="459.5" y="104"/>
      <point x="360" y="-9.5"/>
      <point x="223.5" y="-9" type="curve" smooth="yes"/>
      <point x="88.5" y="-8.5"/>
      <point x="66" y="114.5"/>
      <point x="99" y="223" type="curve"/>
    </contour>
    <contour>
      <point x="667" y="920.5" type="line"/>
      <point x="448" y="770.5" type="line"/>
      <point x="434.5" y="783.5" type="line"/>
      <point x="644" y="939.5" type="line"/>
    </contour>
  </outline>
</glyph>
<glyph name="Ucircumflex" format="1">
  <advance width="555"/>
  <unicode hex="00DB"/>
  <outline>
    <contour>
      <point x="262.5" y="699.5" type="line"/>
      <point x="294.5" y="699.5" type="line"/>
      <point x="130" y="223" type="line" smooth="yes"/>
      <point x="102" y="133.5"/>
      <point x="112.5" y="24"/>
      <point x="229" y="22.5" type="curve" smooth="yes"/>
      <point x="346" y="21"/>
      <point x="430.5" y="122.5"/>
      <point x="468.5" y="223" type="curve"/>
      <point x="633" y="699.5" type="line"/>
      <point x="665.5" y="699.5" type="line"/>
      <point x="502.5" y="223" type="line" smooth="yes"/>
      <point x="459.5" y="104"/>
      <point x="360" y="-9.5"/>
      <point x="223.5" y="-9" type="curve" smooth="yes"/>
      <point x="88.5" y="-8.5"/>
      <point x="66" y="114.5"/>
      <point x="99" y="223" type="curve"/>
    </contour>
    <contour>
      <point x="530.5" y="890.5" type="line"/>
      <point x="354.5" y="770.5" type="line"/>
      <point x="340.5" y="788" type="line"/>
      <point x="538.5" y="925" type="line"/>
      <point x="644" y="785" type="line"/>
      <point x="620" y="769" type="line"/>
    </contour>
  </outline>
</glyph>
<glyph name="Udieresis" format="1">
  <advance width="594"/>
  <unicode hex="00DC"/>
  <outline>
    <contour>
      <point x="204" y="700" type="line"/>
      <point x="242" y="700" type="line"/>
      <point x="158" y="224" type="line" smooth="yes"/>
      <point x="136" y="102"/>
      <point x="189" y="26"/>
      <point x="302" y="26" type="curve" smooth="yes"/>
      <point x="415" y="26"/>
      <point x="492" y="102"/>
      <point x="514" y="224" type="curve" smooth="yes"/>
      <point x="598" y="700" type="line"/>
      <point x="636" y="700" type="line"/>
      <point x="552" y="224" type="line" smooth="yes"/>
      <point x="527" y="85"/>
      <point x="434" y="-10"/>
      <point x="295" y="-10" type="curve" smooth="yes"/>
      <point x="156" y="-10"/>
      <point x="95" y="85"/>
      <point x="120" y="224" type="curve" smooth="yes"/>
    </contour>
    <contour>
      <point x="504" y="796" type="curve" smooth="yes"/>
      <point x="507" y="811"/>
      <point x="522" y="822"/>
      <point x="536" y="822" type="curve" smooth="yes"/>
      <point x="550" y="822"/>
      <point x="560" y="811"/>
      <point x="557" y="796" type="curve" smooth="yes"/>
      <point x="554" y="781"/>
      <point x="541" y="769"/>
      <point x="527" y="769" type="curve" smooth="yes"/>
      <point x="513" y="769"/>
      <point x="501" y="781"/>
    </contour>
    <contour>
      <point x="317" y="796" type="curve" smooth="yes"/>
      <point x="320" y="811"/>
      <point x="334" y="822"/>
      <point x="348" y="822" type="curve" smooth="yes"/>
      <point x="362" y="822"/>
      <point x="373" y="811"/>
      <point x="370" y="796" type="curve" smooth="yes"/>
      <point x="367" y="781"/>
      <point x="353" y="769"/>
      <point x="339" y="769" type="curve" smooth="yes"/>
      <point x="325" y="769"/>
      <point x="314" y="781"/>
    </contour>
  </outline>
</glyph>
<glyph name="Yacute" format="1">
  <advance width="492"/>
  <unicode hex="00DD"/>
  <outline>
    <contour>
      <point x="647.5" y="920.5" type="line"/>
      <point x="429" y="770.5" type="line"/>
      <point x="416" y="783.5" type="line"/>
      <point x="625" y="939.5" type="line"/>
    </contour>
    <contour>
      <point x="629.5" y="698.5" type="line"/>
      <point x="668" y="698.5" type="line"/>
      <point x="299" y="275.5" type="line"/>
      <point x="204" y="0" type="line"/>
      <point x="171" y="0" type="line"/>
      <point x="268.5" y="279" type="line"/>
      <point x="196.5" y="700" type="line"/>
      <point x="231" y="700" type="line"/>
      <point x="292.5" y="311" type="line"/>
    </contour>
  </outline>
</glyph>
<glyph name="Thorn" format="1">
  <advance width="497"/>
  <unicode hex="00DE"/>
  <outline>
    <contour>
      <point x="260" y="699" type="line"/>
      <point x="292" y="699" type="line"/>
      <point x="50" y="0" type="line"/>
      <point x="21" y="0" type="line"/>
    </contour>
    <contour>
      <point x="216" y="530" type="line"/>
      <point x="227" y="560" type="line"/>
      <point x="369" y="560" type="line" smooth="yes"/>
      <point x="488" y="555"/>
      <point x="563" y="469"/>
      <point x="524" y="350" type="curve" smooth="yes"/>
      <point x="483" y="226"/>
      <point x="358" y="145"/>
      <point x="230" y="140" type="curve" smooth="yes"/>
      <point x="83" y="140" type="line"/>
      <point x="94" y="170" type="line"/>
      <point x="236" y="170" type="line"/>
      <point x="345" y="175"/>
      <point x="456" y="244"/>
      <point x="493" y="350" type="curve" smooth="yes"/>
      <point x="529" y="452"/>
      <point x="465" y="523"/>
      <point x="363" y="529" type="curve"/>
    </contour>
  </outline>
</glyph>
<glyph name="germandbls" format="1">
  <advance width="509"/>
  <unicode hex="00DF"/>
  <outline>
    <contour>
      <point x="194" y="19" type="line"/>
      <point x="314" y="35"/>
      <point x="422" y="110"/>
      <point x="462" y="228" type="curve" smooth="yes"/>
      <point x="502" y="345"/>
      <point x="429" y="419"/>
      <point x="317" y="432" type="curve"/>
      <point x="323" y="452" type="line"/>
      <point x="450" y="440"/>
      <point x="534" y="357"/>
      <point x="491" y="225" type="curve" smooth="yes"/>
      <point x="447" y="90"/>
      <point x="323" y="5"/>
      <point x="185" y="-9" type="curve"/>
    </contour>
    <contour>
      <point x="319" y="440" type="curve"/>
      <point x="326" y="461" type="line"/>
      <point x="423" y="470"/>
      <point x="516" y="505"/>
      <point x="552" y="603" type="curve" smooth="yes"/>
      <point x="582" y="685"/>
      <point x="548" y="760"/>
      <point x="455" y="760" type="curve" smooth="yes"/>
      <point x="364" y="760"/>
      <point x="287" y="686"/>
      <point x="257" y="606" type="curve" smooth="yes"/>
      <point x="49" y="0" type="line"/>
      <point x="19" y="0" type="line"/>
      <point x="226" y="606" type="line" smooth="yes"/>
      <point x="262" y="703"/>
      <point x="349" y="788"/>
      <point x="460" y="789" type="curve" smooth="yes"/>
      <point x="570" y="790"/>
      <point x="617" y="704"/>
      <point x="583" y="605" type="curve" smooth="yes"/>
      <point x="543" y="487"/>
      <point x="433" y="448"/>
    </contour>
  </outline>
</glyph>
<glyph name="aacute" format="1">
  <advance width="422"/>
  <unicode hex="00E1"/>
  <outline>
    <contour>
      <point x="56" y="135" type="curve" smooth="yes"/>
      <point x="34" y="71"/>
      <point x="68" y="20"/>
      <point x="135" y="19" type="curve" smooth="yes"/>
      <point x="228" y="18"/>
      <point x="294" y="89"/>
      <point x="335" y="164" type="curve"/>
      <point x="338" y="149" type="line"/>
      <point x="297" y="66"/>
      <point x="225" y="-9"/>
      <point x="125" y="-9" type="curve" smooth="yes"/>
      <point x="43" y="-9"/>
      <point x="0" y="56"/>
      <point x="25" y="133" type="curve" smooth="yes"/>
      <point x="55" y="225"/>
      <point x="156" y="281"/>
      <point x="250" y="281" type="curve" smooth="yes"/>
      <point x="298" y="281"/>
      <point x="336" y="265"/>
      <point x="369" y="232" type="curve"/>
      <point x="361" y="212" type="line"/>
      <point x="328" y="242"/>
      <point x="292" y="257"/>
      <point x="246" y="257" type="curve" smooth="yes"/>
      <point x="169" y="257"/>
      <point x="83" y="211"/>
    </contour>
    <contour>
      <point x="163" y="383" type="curve"/>
      <point x="155" y="408" type="line"/>
      <point x="207" y="439"/>
      <point x="264" y="471"/>
      <point x="327" y="469" type="curve" smooth="yes"/>
      <point x="413" y="467"/>
      <point x="437" y="398"/>
      <point x="416" y="323" type="curve"/>
      <point x="305" y="0" type="line"/>
      <point x="275" y="0" type="line"/>
      <point x="388" y="323" type="line"/>
      <point x="402" y="381"/>
      <point x="393" y="438"/>
      <point x="322" y="441" type="curve" smooth="yes"/>
      <point x="264" y="444"/>
      <point x="210" y="412"/>
    </contour>
    <contour>
      <point x="530" y="696" type="line"/>
      <point x="312" y="546" type="line"/>
      <point x="298" y="559" type="line"/>
      <point x="507" y="715" type="line"/>
    </contour>
  </outline>
</glyph>
<glyph name="acircumflex" format="1">
  <advance width="453"/>
  <unicode hex="00E2"/>
  <outline>
    <contour>
      <point x="96" y="135" type="curve" smooth="yes"/>
      <point x="82" y="54"/>
      <point x="134" y="22"/>
      <point x="202" y="22" type="curve" smooth="yes"/>
      <point x="288" y="22"/>
      <point x="365" y="81"/>
      <point x="380" y="167" type="curve"/>
      <point x="387" y="149" type="line"/>
      <point x="371" y="60"/>
      <point x="289" y="-10"/>
      <point x="189" y="-10" type="curve" smooth="yes"/>
      <point x="107" y="-10"/>
      <point x="42" y="34"/>
      <point x="59" y="131" type="curve" smooth="yes"/>
      <point x="77" y="232"/>
      <point x="175" y="283"/>
      <point x="273" y="283" type="curve" smooth="yes"/>
      <point x="355" y="283"/>
      <point x="390" y="248"/>
      <point x="406" y="231" type="curve"/>
      <point x="402" y="208" type="line"/>
      <point x="375" y="234"/>
      <point x="333" y="254"/>
      <point x="269" y="254" type="curve" smooth="yes"/>
      <point x="187" y="254"/>
      <point x="110" y="214"/>
    </contour>
    <contour>
      <point x="161" y="379" type="curve"/>
      <point x="147" y="407" type="line"/>
      <point x="186" y="436"/>
      <point x="244" y="470"/>
      <point x="321" y="470" type="curve" smooth="yes"/>
      <point x="416" y="470"/>
      <point x="460" y="413"/>
      <point x="444" y="324" type="curve" smooth="yes"/>
      <point x="387" y="0" type="line"/>
      <point x="351" y="0" type="line"/>
      <point x="408" y="324" type="line" smooth="yes"/>
      <point x="421" y="396"/>
      <point x="386" y="438"/>
      <point x="315" y="438" type="curve" smooth="yes"/>
      <point x="249" y="438"/>
      <point x="198" y="407"/>
    </contour>
    <contour>
      <point x="354" y="657" type="line"/>
      <point x="196" y="536" type="line"/>
      <point x="176" y="555" type="line"/>
      <point x="361" y="695" type="line"/>
      <point x="496" y="555" type="line"/>
      <point x="471" y="536" type="line"/>
    </contour>
  </outline>
</glyph>
<glyph name="atilde" format="1">
  <advance width="422"/>
  <unicode hex="00E3"/>
  <outline>
    <contour>
      <point x="56" y="135" type="curve" smooth="yes"/>
      <point x="34" y="71"/>
      <point x="68" y="20"/>
      <point x="135" y="19" type="curve" smooth="yes"/>
      <point x="228" y="18"/>
      <point x="294" y="89"/>
      <point x="335" y="164" type="curve"/>
      <point x="338" y="149" type="line"/>
      <point x="297" y="66"/>
      <point x="225" y="-9"/>
      <point x="125" y="-9" type="curve" smooth="yes"/>
      <point x="43" y="-9"/>
      <point x="0" y="56"/>
      <point x="25" y="133" type="curve" smooth="yes"/>
      <point x="55" y="225"/>
      <point x="156" y="281"/>
      <point x="250" y="281" type="curve" smooth="yes"/>
      <point x="298" y="281"/>
      <point x="336" y="265"/>
      <point x="369" y="232" type="curve"/>
      <point x="361" y="212" type="line"/>
      <point x="328" y="242"/>
      <point x="292" y="257"/>
      <point x="246" y="257" type="curve" smooth="yes"/>
      <point x="169" y="257"/>
      <point x="83" y="211"/>
    </contour>
    <contour>
      <point x="163" y="383" type="curve"/>
      <point x="155" y="408" type="line"/>
      <point x="207" y="439"/>
      <point x="264" y="471"/>
      <point x="327" y="469" type="curve" smooth="yes"/>
      <point x="413" y="467"/>
      <point x="437" y="398"/>
      <point x="416" y="323" type="curve"/>
      <point x="305" y="0" type="line"/>
      <point x="275" y="0" type="line"/>
      <point x="388" y="323" type="line"/>
      <point x="402" y="381"/>
      <point x="393" y="438"/>
      <point x="322" y="441" type="curve" smooth="yes"/>
      <point x="264" y="444"/>
      <point x="210" y="412"/>
    </contour>
    <contour>
      <point x="229" y="579" type="line"/>
      <point x="251" y="609"/>
      <point x="279" y="642"/>
      <point x="320" y="641" type="curve" smooth="yes"/>
      <point x="360" y="640"/>
      <point x="381" y="594"/>
      <point x="421" y="596" type="curve" smooth="yes"/>
      <point x="450" y="597"/>
      <point x="473" y="624"/>
      <point x="492" y="642" type="curve"/>
      <point x="507" y="627" type="line"/>
      <point x="483" y="602"/>
      <point x="453" y="569"/>
      <point x="415" y="570" type="curve" smooth="yes"/>
      <point x="376" y="571"/>
      <point x="356" y="616"/>
      <point x="318" y="616" type="curve" smooth="yes"/>
      <point x="285" y="616"/>
      <point x="265" y="589"/>
      <point x="247" y="566" type="curve"/>
    </contour>
  </outline>
</glyph>
<glyph name="adieresis" format="1">
  <advance width="422"/>
  <unicode hex="00E4"/>
  <outline>
    <contour>
      <point x="56" y="135" type="curve" smooth="yes"/>
      <point x="34" y="71"/>
      <point x="68" y="20"/>
      <point x="135" y="19" type="curve" smooth="yes"/>
      <point x="228" y="18"/>
      <point x="294" y="89"/>
      <point x="335" y="164" type="curve"/>
      <point x="338" y="149" type="line"/>
      <point x="297" y="66"/>
      <point x="225" y="-9"/>
      <point x="125" y="-9" type="curve" smooth="yes"/>
      <point x="43" y="-9"/>
      <point x="0" y="56"/>
      <point x="25" y="133" type="curve" smooth="yes"/>
      <point x="55" y="225"/>
      <point x="156" y="281"/>
      <point x="250" y="281" type="curve" smooth="yes"/>
      <point x="298" y="281"/>
      <point x="336" y="265"/>
      <point x="369" y="232" type="curve"/>
      <point x="361" y="212" type="line"/>
      <point x="328" y="242"/>
      <point x="292" y="257"/>
      <point x="246" y="257" type="curve" smooth="yes"/>
      <point x="169" y="257"/>
      <point x="83" y="211"/>
    </contour>
    <contour>
      <point x="163" y="383" type="curve"/>
      <point x="155" y="408" type="line"/>
      <point x="207" y="439"/>
      <point x="264" y="471"/>
      <point x="327" y="469" type="curve" smooth="yes"/>
      <point x="413" y="467"/>
      <point x="437" y="398"/>
      <point x="416" y="323" type="curve"/>
      <point x="305" y="0" type="line"/>
      <point x="275" y="0" type="line"/>
      <point x="388" y="323" type="line"/>
      <point x="402" y="381"/>
      <point x="393" y="438"/>
      <point x="322" y="441" type="curve" smooth="yes"/>
      <point x="264" y="444"/>
      <point x="210" y="412"/>
    </contour>
    <contour>
      <point x="414" y="569" type="curve" smooth="yes"/>
      <point x="416" y="579"/>
      <point x="433" y="592"/>
      <point x="444" y="591" type="curve" smooth="yes"/>
      <point x="455" y="590"/>
      <point x="462" y="578"/>
      <point x="460" y="567" type="curve" smooth="yes"/>
      <point x="458" y="557"/>
      <point x="441" y="543"/>
      <point x="430" y="544" type="curve" smooth="yes"/>
      <point x="419" y="545"/>
      <point x="412" y="558"/>
    </contour>
    <contour>
      <point x="253" y="569" type="curve" smooth="yes"/>
      <point x="255" y="579"/>
      <point x="272" y="592"/>
      <point x="283" y="591" type="curve" smooth="yes"/>
      <point x="294" y="590"/>
      <point x="300" y="578"/>
      <point x="298" y="567" type="curve" smooth="yes"/>
      <point x="296" y="557"/>
      <point x="279" y="543"/>
      <point x="268" y="544" type="curve" smooth="yes"/>
      <point x="257" y="545"/>
      <point x="251" y="558"/>
    </contour>
  </outline>
</glyph>
<glyph name="aring" format="1">
  <advance width="422"/>
  <unicode hex="00E5"/>
  <outline>
    <contour>
      <point x="56" y="135" type="curve" smooth="yes"/>
      <point x="34" y="71"/>
      <point x="68" y="20"/>
      <point x="135" y="19" type="curve" smooth="yes"/>
      <point x="228" y="18"/>
      <point x="294" y="89"/>
      <point x="335" y="164" type="curve"/>
      <point x="338" y="149" type="line"/>
      <point x="297" y="66"/>
      <point x="225" y="-9"/>
      <point x="125" y="-9" type="curve" smooth="yes"/>
      <point x="43" y="-9"/>
      <point x="0" y="56"/>
      <point x="25" y="133" type="curve" smooth="yes"/>
      <point x="55" y="225"/>
      <point x="156" y="281"/>
      <point x="250" y="281" type="curve" smooth="yes"/>
      <point x="298" y="281"/>
      <point x="336" y="265"/>
      <point x="369" y="232" type="curve"/>
      <point x="361" y="212" type="line"/>
      <point x="328" y="242"/>
      <point x="292" y="257"/>
      <point x="246" y="257" type="curve" smooth="yes"/>
      <point x="169" y="257"/>
      <point x="83" y="211"/>
    </contour>
    <contour>
      <point x="163" y="383" type="curve"/>
      <point x="155" y="408" type="line"/>
      <point x="207" y="439"/>
      <point x="264" y="471"/>
      <point x="327" y="469" type="curve" smooth="yes"/>
      <point x="413" y="467"/>
      <point x="437" y="398"/>
      <point x="416" y="323" type="curve"/>
      <point x="305" y="0" type="line"/>
      <point x="275" y="0" type="line"/>
      <point x="388" y="323" type="line"/>
      <point x="402" y="381"/>
      <point x="393" y="438"/>
      <point x="322" y="441" type="curve" smooth="yes"/>
      <point x="264" y="444"/>
      <point x="210" y="412"/>
    </contour>
    <contour>
      <point x="287" y="631" type="curve" smooth="yes"/>
      <point x="303" y="682"/>
      <point x="362" y="730"/>
      <point x="417" y="729" type="curve" smooth="yes"/>
      <point x="471" y="728"/>
      <point x="497" y="677"/>
      <point x="481" y="629" type="curve" smooth="yes"/>
      <point x="465" y="578"/>
      <point x="406" y="530"/>
      <point x="351" y="531" type="curve" smooth="yes"/>
      <point x="297" y="532"/>
      <point x="271" y="583"/>
    </contour>
    <contour>
      <point x="308" y="630" type="curve" smooth="yes"/>
      <point x="296" y="594"/>
      <point x="314" y="554"/>
      <point x="355" y="552" type="curve" smooth="yes"/>
      <point x="397" y="549"/>
      <point x="448" y="592"/>
      <point x="460" y="630" type="curve" smooth="yes"/>
      <point x="472" y="666"/>
      <point x="454" y="706"/>
      <point x="413" y="708" type="curve" smooth="yes"/>
      <point x="371" y="711"/>
      <point x="320" y="668"/>
    </contour>
  </outline>
</glyph>
<glyph name="ae" format="1">
  <advance width="776"/>
  <unicode hex="00E6"/>
  <outline>
    <contour>
      <point x="54.5" y="133" type="curve" smooth="yes"/>
      <point x="32" y="69.5"/>
      <point x="69.5" y="20"/>
      <point x="136" y="19.5" type="curve" smooth="yes"/>
      <point x="229" y="18.5"/>
      <point x="305.5" y="94"/>
      <point x="335.5" y="169" type="curve"/>
      <point x="350" y="153" type="line"/>
      <point x="318" y="69.5"/>
      <point x="232.5" y="-9"/>
      <point x="131.5" y="-9" type="curve" smooth="yes"/>
      <point x="50" y="-9"/>
      <point x="-1.5" y="51"/>
      <point x="24" y="131" type="curve" smooth="yes"/>
      <point x="54.5" y="225"/>
      <point x="156.5" y="282.5"/>
      <point x="251.5" y="281.5" type="curve" smooth="yes"/>
      <point x="298.5" y="281.5"/>
      <point x="336.5" y="265"/>
      <point x="369" y="231.5" type="curve"/>
      <point x="361.5" y="212" type="line"/>
      <point x="329" y="241.5"/>
      <point x="294" y="256.5"/>
      <point x="249" y="256" type="curve" smooth="yes"/>
      <point x="170" y="255.5"/>
      <point x="81.5" y="211"/>
    </contour>
    <contour>
      <point x="164" y="383" type="curve"/>
      <point x="154.5" y="408.5" type="line"/>
      <point x="206.5" y="440.5"/>
      <point x="267" y="472"/>
      <point x="330.5" y="469" type="curve" smooth="yes"/>
      <point x="411.5" y="465"/>
      <point x="432" y="400"/>
      <point x="412" y="330" type="curve"/>
      <point x="354" y="154" type="line"/>
      <point x="331" y="155" type="line"/>
      <point x="387.5" y="320" type="line"/>
      <point x="404.8" y="376.203"/>
      <point x="394" y="437"/>
      <point x="324" y="440.5" type="curve" smooth="yes"/>
      <point x="266.5" y="444"/>
      <point x="211.5" y="411.5"/>
    </contour>
    <contour>
      <point x="374.5" y="223" type="line"/>
      <point x="383" y="249.5" type="line"/>
      <point x="761" y="250" type="line"/>
      <point x="761.5" y="222.5" type="line"/>
    </contour>
    <contour>
      <point x="740" y="250" type="line" smooth="yes"/>
      <point x="770" y="334"/>
      <point x="748" y="439"/>
      <point x="642.5" y="441.5" type="curve" smooth="yes"/>
      <point x="523.5" y="444"/>
      <point x="435" y="341"/>
      <point x="390.5" y="242.5" type="curve"/>
      <point x="387" y="233.5" type="line"/>
      <point x="361.5" y="145.5"/>
      <point x="363.5" y="24"/>
      <point x="482" y="20.5" type="curve" smooth="yes"/>
      <point x="566.5" y="18"/>
      <point x="637" y="68.5"/>
      <point x="697" y="122" type="curve"/>
      <point x="718" y="104.5" type="line"/>
      <point x="650.5" y="42"/>
      <point x="570" y="-12"/>
      <point x="474.5" y="-9" type="curve" smooth="yes"/>
      <point x="348" y="-5"/>
      <point x="319.5" y="129"/>
      <point x="357.5" y="230" type="curve" smooth="yes"/>
      <point x="364" y="247"/>
      <point x="373" y="263"/>
      <point x="381.5" y="279" type="curve" smooth="yes"/>
      <point x="436.5" y="376.5"/>
      <point x="531.5" y="471.5"/>
      <point x="652.5" y="469" type="curve" smooth="yes"/>
      <point x="772" y="466.5"/>
      <point x="802.5" y="344.5"/>
      <point x="771.5" y="247.5" type="curve" smooth="yes"/>
      <point x="769" y="239.5"/>
      <point x="766" y="231"/>
      <point x="762.5" y="223" type="curve"/>
      <point x="733" y="231" type="line"/>
    </contour>
  </outline>
</glyph>
<glyph name="ccedilla" format="1">
  <advance width="456"/>
  <unicode hex="00E7"/>
  <outline>
    <contour>
      <point x="88.5" y="230" type="curve" smooth="yes"/>
      <point x="55" y="134.5"/>
      <point x="90" y="22"/>
      <point x="206" y="20.5" type="curve" smooth="yes"/>
      <point x="269.5" y="20"/>
      <point x="327.5" y="50"/>
      <point x="378.5" y="85.5" type="curve"/>
      <point x="366.5" y="47.5" type="line"/>
      <point x="316.5" y="15"/>
      <point x="260.5" y="-9"/>
      <point x="200" y="-9" type="curve" smooth="yes"/>
      <point x="67" y="-8.5"/>
      <point x="21" y="117.5"/>
      <point x="58" y="230" type="curve" smooth="yes"/>
      <point x="98.5" y="355"/>
      <point x="223" y="469.5"/>
      <point x="359.5" y="469" type="curve" smooth="yes"/>
      <point x="411.5" y="469"/>
      <point x="454.5" y="450"/>
      <point x="489.5" y="411.5" type="curve"/>
      <point x="477.5" y="373.5" type="line"/>
      <point x="449.5" y="417.5"/>
      <point x="408" y="440"/>
      <point x="354.5" y="439.5" type="curve" smooth="yes"/>
      <point x="235.5" y="439"/>
      <point x="126.5" y="338"/>
    </contour>
    <contour>
      <point x="199" y="14.5" type="line"/>
      <point x="226" y="14.5" type="line"/>
      <point x="139.5" y="-70.5" type="line"/>
      <point x="155.5" y="-63.5"/>
      <point x="175" y="-53"/>
      <point x="193" y="-55" type="curve" smooth="yes"/>
      <point x="231.5" y="-60"/>
      <point x="249" y="-93"/>
      <point x="239" y="-129.5" type="curve" smooth="yes"/>
      <point x="225" y="-182"/>
      <point x="159.5" y="-222"/>
      <point x="107" y="-221.5" type="curve" smooth="yes"/>
      <point x="74.5" y="-221.5"/>
      <point x="55" y="-205"/>
      <point x="33.5" y="-183.5" type="curve"/>
      <point x="52" y="-168.5" type="line"/>
      <point x="69" y="-184.5"/>
      <point x="86" y="-198.5"/>
      <point x="111.5" y="-198.5" type="curve" smooth="yes"/>
      <point x="151.5" y="-198.5"/>
      <point x="204" y="-168"/>
      <point x="215.5" y="-128" type="curve" smooth="yes"/>
      <point x="223.5" y="-100.5"/>
      <point x="208.5" y="-76.5"/>
      <point x="180" y="-73.5" type="curve" smooth="yes"/>
      <point x="153.5" y="-70"/>
      <point x="125" y="-85"/>
      <point x="101" y="-95" type="curve"/>
    </contour>
  </outline>
</glyph>
<glyph name="eacute" format="1">
  <advance width="475"/>
  <unicode hex="00E9"/>
  <outline>
    <contour>
      <point x="89" y="223" type="line"/>
      <point x="97.5" y="249.5" type="line"/>
      <point x="442.5" y="250" type="line"/>
      <point x="470.5" y="326.5"/>
      <point x="454" y="438.5"/>
      <point x="345" y="440.5" type="curve" smooth="yes"/>
      <point x="229.5" y="442.5"/>
      <point x="141.5" y="336.5"/>
      <point x="105.5" y="242" type="curve"/>
      <point x="102.5" y="232" type="line"/>
      <point x="78.5" y="143"/>
      <point x="88.501" y="23.0483"/>
      <point x="203" y="20.5" type="curve" smooth="yes"/>
      <point x="280.497" y="18.7983"/>
      <point x="348.5" y="70"/>
      <point x="403.5" y="122.5" type="curve"/>
      <point x="424.5" y="104.5" type="line"/>
      <point x="361.5" y="43"/>
      <point x="286.51" y="-9.85156"/>
      <point x="195" y="-9" type="curve" smooth="yes"/>
      <point x="66" y="-7.5"/>
      <point x="42" y="129"/>
      <point x="72" y="231.5" type="curve" smooth="yes"/>
      <point x="79" y="255"/>
      <point x="89" y="278"/>
      <point x="101" y="299.5" type="curve" smooth="yes"/>
      <point x="149.5" y="387"/>
      <point x="242.5" y="470"/>
      <point x="348.5" y="469" type="curve" smooth="yes"/>
      <point x="470" y="467.5"/>
      <point x="504.5" y="348"/>
      <point x="475.5" y="248" type="curve" smooth="yes"/>
      <point x="473" y="239.5"/>
      <point x="469.5" y="231"/>
      <point x="466.5" y="223" type="curve"/>
    </contour>
    <contour>
      <point x="576.13" y="683.005" type="line"/>
      <point x="361.63" y="533.005" type="line"/>
      <point x="347.63" y="545.505" type="line"/>
      <point x="553.13" y="701.505" type="line"/>
    </contour>
  </outline>
</glyph>
<glyph name="ecircumflex" format="1">
  <advance width="475"/>
  <unicode hex="00EA"/>
  <outline>
    <contour>
      <point x="89" y="223" type="line"/>
      <point x="97.5" y="249.5" type="line"/>
      <point x="442.5" y="250" type="line"/>
      <point x="470.5" y="326.5"/>
      <point x="454" y="438.5"/>
      <point x="345" y="440.5" type="curve" smooth="yes"/>
      <point x="229.5" y="442.5"/>
      <point x="141.5" y="336.5"/>
      <point x="105.5" y="242" type="curve"/>
      <point x="102.5" y="232" type="line"/>
      <point x="78.5" y="143"/>
      <point x="88.501" y="23.0483"/>
      <point x="203" y="20.5" type="curve" smooth="yes"/>
      <point x="280.497" y="18.7983"/>
      <point x="348.5" y="70"/>
      <point x="403.5" y="122.5" type="curve"/>
      <point x="424.5" y="104.5" type="line"/>
      <point x="361.5" y="43"/>
      <point x="286.51" y="-9.85156"/>
      <point x="195" y="-9" type="curve" smooth="yes"/>
      <point x="66" y="-7.5"/>
      <point x="42" y="129"/>
      <point x="72" y="231.5" type="curve" smooth="yes"/>
      <point x="79" y="255"/>
      <point x="89" y="278"/>
      <point x="101" y="299.5" type="curve" smooth="yes"/>
      <point x="149.5" y="387"/>
      <point x="242.5" y="470"/>
      <point x="348.5" y="469" type="curve" smooth="yes"/>
      <point x="470" y="467.5"/>
      <point x="504.5" y="348"/>
      <point x="475.5" y="248" type="curve" smooth="yes"/>
      <point x="473" y="239.5"/>
      <point x="469.5" y="231"/>
      <point x="466.5" y="223" type="curve"/>
    </contour>
    <contour>
      <point x="407.365" y="651.505" type="line"/>
      <point x="231.864" y="531.005" type="line"/>
      <point x="216.864" y="548.505" type="line"/>
      <point x="414.865" y="685.505" type="line"/>
      <point x="520.365" y="545.505" type="line"/>
      <point x="497.365" y="529.505" type="line"/>
    </contour>
  </outline>
</glyph>
<glyph name="edieresis" format="1">
  <advance width="519"/>
  <unicode hex="00EB"/>
  <outline>
    <contour>
      <point x="107" y="221" type="line"/>
      <point x="112" y="252" type="line"/>
      <point x="511" y="252" type="line"/>
      <point x="515" y="221" type="line"/>
    </contour>
    <contour>
      <point x="484" y="252" type="line" smooth="yes"/>
      <point x="503" y="359"/>
      <point x="441" y="438"/>
      <point x="341" y="438" type="curve" smooth="yes"/>
      <point x="243" y="438"/>
      <point x="143" y="365"/>
      <point x="121" y="242" type="curve"/>
      <point x="118" y="231" type="line"/>
      <point x="96" y="109"/>
      <point x="156" y="23"/>
      <point x="265" y="23" type="curve" smooth="yes"/>
      <point x="364" y="23"/>
      <point x="424" y="76"/>
      <point x="464" y="126" type="curve"/>
      <point x="489" y="107" type="line"/>
      <point x="443" y="51"/>
      <point x="379" y="-10"/>
      <point x="256" y="-10" type="curve" smooth="yes"/>
      <point x="131" y="-10"/>
      <point x="57" y="92"/>
      <point x="82" y="231" type="curve" smooth="yes"/>
      <point x="86" y="254"/>
      <point x="92" y="277"/>
      <point x="102" y="298" type="curve" smooth="yes"/>
      <point x="144" y="400"/>
      <point x="238" y="470"/>
      <point x="347" y="470" type="curve" smooth="yes"/>
      <point x="464" y="470"/>
      <point x="545" y="379"/>
      <point x="522" y="247" type="curve" smooth="yes"/>
      <point x="521" y="239"/>
      <point x="517" y="229"/>
      <point x="515" y="221" type="curve"/>
      <point x="481" y="230" type="line"/>
    </contour>
    <contour>
      <point x="437" y="569" type="curve" smooth="yes"/>
      <point x="440" y="584"/>
      <point x="455" y="597"/>
      <point x="469" y="597" type="curve" smooth="yes"/>
      <point x="483" y="597"/>
      <point x="494" y="584"/>
      <point x="491" y="569" type="curve" smooth="yes"/>
      <point x="488" y="554"/>
      <point x="474" y="543"/>
      <point x="460" y="543" type="curve" smooth="yes"/>
      <point x="446" y="543"/>
      <point x="434" y="554"/>
    </contour>
    <contour>
      <point x="237" y="569" type="curve" smooth="yes"/>
      <point x="240" y="584"/>
      <point x="255" y="597"/>
      <point x="269" y="597" type="curve" smooth="yes"/>
      <point x="283" y="597"/>
      <point x="294" y="584"/>
      <point x="291" y="569" type="curve" smooth="yes"/>
      <point x="288" y="554"/>
      <point x="274" y="543"/>
      <point x="260" y="543" type="curve" smooth="yes"/>
      <point x="246" y="543"/>
      <point x="234" y="554"/>
    </contour>
  </outline>
</glyph>
<glyph name="igrave" format="1">
  <advance width="197"/>
  <unicode hex="00EC"/>
  <outline>
    <contour>
      <point x="188" y="459" type="line"/>
      <point x="218" y="459" type="line"/>
      <point x="58" y="0" type="line"/>
      <point x="30" y="0" type="line"/>
    </contour>
    <contour>
      <point x="132" y="691" type="line"/>
      <point x="163" y="707" type="line"/>
      <point x="266" y="547" type="line"/>
      <point x="246" y="537" type="line"/>
    </contour>
  </outline>
</glyph>
<glyph name="iacute" format="1">
  <advance width="197"/>
  <unicode hex="00ED"/>
  <outline>
    <contour>
      <point x="188" y="459" type="line"/>
      <point x="218" y="459" type="line"/>
      <point x="58" y="0" type="line"/>
      <point x="30" y="0" type="line"/>
    </contour>
    <contour>
      <point x="429" y="688" type="line"/>
      <point x="212" y="538" type="line"/>
      <point x="197" y="550" type="line"/>
      <point x="407" y="706" type="line"/>
    </contour>
  </outline>
</glyph>
<glyph name="icircumflex" format="1">
  <advance width="197"/>
  <unicode hex="00EE"/>
  <outline>
    <contour>
      <point x="187.5" y="459" type="line"/>
      <point x="218.5" y="459.5" type="line"/>
      <point x="59" y="0" type="line"/>
      <point x="29.5" y="0" type="line"/>
    </contour>
    <contour>
      <point x="271" y="655" type="line"/>
      <point x="96" y="534.5" type="line"/>
      <point x="81" y="552" type="line"/>
      <point x="279" y="689" type="line"/>
      <point x="384.5" y="549.5" type="line"/>
      <point x="361" y="533.5" type="line"/>
    </contour>
  </outline>
</glyph>
<glyph name="idieresis" format="1">
  <advance width="197"/>
  <unicode hex="00EF"/>
  <outline>
    <contour>
      <point x="187.5" y="459" type="line"/>
      <point x="218.5" y="459.5" type="line"/>
      <point x="59" y="0" type="line"/>
      <point x="29.5" y="0" type="line"/>
    </contour>
    <contour>
      <point x="295" y="564" type="curve" smooth="yes"/>
      <point x="297.5" y="574"/>
      <point x="314" y="588"/>
      <point x="325" y="587" type="curve" smooth="yes"/>
      <point x="336.5" y="586"/>
      <point x="344" y="574"/>
      <point x="341.5" y="562.5" type="curve" smooth="yes"/>
      <point x="339" y="552.5"/>
      <point x="322" y="538.5"/>
      <point x="311" y="539.5" type="curve" smooth="yes"/>
      <point x="299.5" y="540.5"/>
      <point x="292.5" y="552.5"/>
    </contour>
    <contour>
      <point x="133" y="564" type="curve" smooth="yes"/>
      <point x="135.5" y="574"/>
      <point x="152.5" y="588"/>
      <point x="163.5" y="587" type="curve" smooth="yes"/>
      <point x="175" y="586"/>
      <point x="182" y="574"/>
      <point x="179.5" y="562.5" type="curve" smooth="yes"/>
      <point x="177" y="552.5"/>
      <point x="160" y="538.5"/>
      <point x="149" y="539.5" type="curve" smooth="yes"/>
      <point x="137.5" y="540.5"/>
      <point x="130.5" y="552.5"/>
    </contour>
  </outline>
</glyph>
<glyph name="eth" format="1">
  <advance width="514"/>
  <unicode hex="00F0"/>
  <outline>
    <contour>
      <point x="461" y="223" type="curve" smooth="yes"/>
      <point x="493" y="318"/>
      <point x="450" y="417"/>
      <point x="341" y="417" type="curve" smooth="yes"/>
      <point x="233" y="417"/>
      <point x="132" y="320"/>
      <point x="98" y="223" type="curve" smooth="yes"/>
      <point x="65" y="131"/>
      <point x="95" y="21"/>
      <point x="208" y="20" type="curve" smooth="yes"/>
      <point x="323" y="19"/>
      <point x="426" y="119"/>
    </contour>
    <contour>
      <point x="388" y="700" type="line"/>
      <point x="493" y="378" type="line" smooth="yes"/>
      <point x="508" y="327"/>
      <point x="507" y="274"/>
      <point x="491" y="223" type="curve" smooth="yes"/>
      <point x="452" y="102"/>
      <point x="336" y="-10"/>
      <point x="203" y="-9" type="curve" smooth="yes"/>
      <point x="72" y="-8"/>
      <point x="31" y="114"/>
      <point x="68" y="224" type="curve" smooth="yes"/>
      <point x="105" y="334"/>
      <point x="215" y="442"/>
      <point x="337" y="442" type="curve" smooth="yes"/>
      <point x="393" y="442"/>
      <point x="432" y="416"/>
      <point x="463" y="371" type="curve"/>
      <point x="462" y="371" type="line"/>
      <point x="353" y="700" type="line"/>
    </contour>
    <contour>
      <point x="275" y="559" type="line"/>
      <point x="284" y="585" type="line"/>
      <point x="547" y="585" type="line"/>
      <point x="539" y="559" type="line"/>
    </contour>
  </outline>
</glyph>
<glyph name="ntilde" format="1">
  <advance width="460"/>
  <unicode hex="00F1"/>
  <outline>
    <contour>
      <point x="211" y="459.5" type="line"/>
      <point x="51.5" y="0" type="line"/>
      <point x="20.5" y="0" type="line"/>
      <point x="180.5" y="459.5" type="line"/>
    </contour>
    <contour>
      <point x="406" y="308" type="line" smooth="yes"/>
      <point x="424" y="367.5"/>
      <point x="423" y="437"/>
      <point x="345" y="439.5" type="curve" smooth="yes"/>
      <point x="252.5" y="442"/>
      <point x="185" y="355"/>
      <point x="146.5" y="282" type="curve"/>
      <point x="132.5" y="282" type="line"/>
      <point x="173" y="369.5"/>
      <point x="247.5" y="469.5"/>
      <point x="355.5" y="469" type="curve" smooth="yes"/>
      <point x="449.5" y="468.5"/>
      <point x="459" y="384"/>
      <point x="437" y="311" type="curve"/>
      <point x="328.5" y="0" type="line"/>
      <point x="299.5" y="0" type="line"/>
    </contour>
    <contour>
      <point x="235.5" y="557.5" type="line"/>
      <point x="257.5" y="587"/>
      <point x="285.5" y="621"/>
      <point x="327" y="620" type="curve" smooth="yes"/>
      <point x="366.5" y="619.5"/>
      <point x="388.5" y="572.5"/>
      <point x="428" y="575" type="curve" smooth="yes"/>
      <point x="456.5" y="576.5"/>
      <point x="479" y="602.5"/>
      <point x="498" y="621" type="curve"/>
      <point x="514.5" y="605.5" type="line"/>
      <point x="491" y="581"/>
      <point x="459.5" y="548"/>
      <point x="421.5" y="549" type="curve" smooth="yes"/>
      <point x="383" y="550"/>
      <point x="362.5" y="594"/>
      <point x="323.5" y="594" type="curve" smooth="yes"/>
      <point x="291.5" y="594"/>
      <point x="271.5" y="568"/>
      <point x="254.5" y="545" type="curve"/>
    </contour>
  </outline>
</glyph>
<glyph name="ograve" format="1">
  <advance width="552"/>
  <unicode hex="00F2"/>
  <outline>
    <contour>
      <point x="82" y="230" type="curve" smooth="yes"/>
      <point x="107" y="369"/>
      <point x="226" y="470"/>
      <point x="359" y="470" type="curve" smooth="yes"/>
      <point x="492" y="470"/>
      <point x="577" y="369"/>
      <point x="552" y="230" type="curve" smooth="yes"/>
      <point x="527" y="91"/>
      <point x="407" y="-10"/>
      <point x="274" y="-10" type="curve" smooth="yes"/>
      <point x="141" y="-10"/>
      <point x="57" y="91"/>
    </contour>
    <contour>
      <point x="118" y="230" type="curve" smooth="yes"/>
      <point x="97" y="110"/>
      <point x="168" y="23"/>
      <point x="280" y="23" type="curve" smooth="yes"/>
      <point x="392" y="23"/>
      <point x="495" y="110"/>
      <point x="516" y="230" type="curve" smooth="yes"/>
      <point x="537" y="350"/>
      <point x="465" y="437"/>
      <point x="353" y="437" type="curve" smooth="yes"/>
      <point x="241" y="437"/>
      <point x="139" y="350"/>
    </contour>
    <contour>
      <point x="254" y="692" type="line"/>
      <point x="289" y="711" type="line"/>
      <point x="424" y="551" type="line"/>
      <point x="403" y="537" type="line"/>
    </contour>
  </outline>
</glyph>
<glyph name="ocircumflex" format="1">
  <advance width="520"/>
  <unicode hex="00F4"/>
  <outline>
    <contour>
      <point x="62.5" y="230" type="curve" smooth="yes"/>
      <point x="103" y="353.5"/>
      <point x="227.5" y="469.5"/>
      <point x="363.5" y="469" type="curve" smooth="yes"/>
      <point x="496.5" y="468.5"/>
      <point x="543.5" y="342.5"/>
      <point x="506.5" y="230" type="curve" smooth="yes"/>
      <point x="466" y="106.5"/>
      <point x="341" y="-9.5"/>
      <point x="205" y="-9" type="curve" smooth="yes"/>
      <point x="72" y="-8.5"/>
      <point x="25.5" y="117.5"/>
    </contour>
    <contour>
      <point x="93.5" y="230" type="curve" smooth="yes"/>
      <point x="60" y="134"/>
      <point x="94" y="21.5"/>
      <point x="210" y="20.5" type="curve" smooth="yes"/>
      <point x="329" y="19.5"/>
      <point x="438.5" y="122.5"/>
      <point x="475.5" y="230" type="curve" smooth="yes"/>
      <point x="509" y="326"/>
      <point x="475" y="438.5"/>
      <point x="359" y="439.5" type="curve" smooth="yes"/>
      <point x="240" y="440.5"/>
      <point x="130.5" y="337.5"/>
    </contour>
    <contour>
      <point x="438" y="672" type="line"/>
      <point x="262.5" y="551.5" type="line"/>
      <point x="248" y="569" type="line"/>
      <point x="446" y="706" type="line"/>
      <point x="551" y="566.5" type="line"/>
      <point x="527.5" y="550.5" type="line"/>
    </contour>
  </outline>
</glyph>
<glyph name="otilde" format="1">
  <advance width="552"/>
  <unicode hex="00F5"/>
  <outline>
    <contour>
      <point x="82" y="230" type="curve" smooth="yes"/>
      <point x="107" y="369"/>
      <point x="226" y="470"/>
      <point x="359" y="470" type="curve" smooth="yes"/>
      <point x="492" y="470"/>
      <point x="577" y="369"/>
      <point x="552" y="230" type="curve" smooth="yes"/>
      <point x="527" y="91"/>
      <point x="407" y="-10"/>
      <point x="274" y="-10" type="curve" smooth="yes"/>
      <point x="141" y="-10"/>
      <point x="57" y="91"/>
    </contour>
    <contour>
      <point x="118" y="230" type="curve" smooth="yes"/>
      <point x="97" y="110"/>
      <point x="168" y="23"/>
      <point x="280" y="23" type="curve" smooth="yes"/>
      <point x="392" y="23"/>
      <point x="495" y="110"/>
      <point x="516" y="230" type="curve" smooth="yes"/>
      <point x="537" y="350"/>
      <point x="465" y="437"/>
      <point x="353" y="437" type="curve" smooth="yes"/>
      <point x="241" y="437"/>
      <point x="139" y="350"/>
    </contour>
    <contour>
      <point x="234" y="557" type="line"/>
      <point x="244" y="593"/>
      <point x="278" y="623"/>
      <point x="323" y="623" type="curve" smooth="yes"/>
      <point x="382" y="623"/>
      <point x="385" y="576"/>
      <point x="439" y="576" type="curve" smooth="yes"/>
      <point x="464" y="576"/>
      <point x="480" y="592"/>
      <point x="503" y="624" type="curve"/>
      <point x="523" y="607" type="line"/>
      <point x="500" y="570"/>
      <point x="469" y="547"/>
      <point x="432" y="547" type="curve" smooth="yes"/>
      <point x="377" y="547"/>
      <point x="364" y="594"/>
      <point x="319" y="594" type="curve" smooth="yes"/>
      <point x="278" y="594"/>
      <point x="261" y="564"/>
      <point x="257" y="543" type="curve"/>
    </contour>
  </outline>
</glyph>
<glyph name="odieresis" format="1">
  <advance width="552"/>
  <unicode hex="00F6"/>
  <outline>
    <contour>
      <point x="82" y="230" type="curve" smooth="yes"/>
      <point x="107" y="369"/>
      <point x="226" y="470"/>
      <point x="359" y="470" type="curve" smooth="yes"/>
      <point x="492" y="470"/>
      <point x="577" y="369"/>
      <point x="552" y="230" type="curve" smooth="yes"/>
      <point x="527" y="91"/>
      <point x="407" y="-10"/>
      <point x="274" y="-10" type="curve" smooth="yes"/>
      <point x="141" y="-10"/>
      <point x="57" y="91"/>
    </contour>
    <contour>
      <point x="118" y="230" type="curve" smooth="yes"/>
      <point x="97" y="110"/>
      <point x="168" y="23"/>
      <point x="280" y="23" type="curve" smooth="yes"/>
      <point x="392" y="23"/>
      <point x="495" y="110"/>
      <point x="516" y="230" type="curve" smooth="yes"/>
      <point x="537" y="350"/>
      <point x="465" y="437"/>
      <point x="353" y="437" type="curve" smooth="yes"/>
      <point x="241" y="437"/>
      <point x="139" y="350"/>
    </contour>
    <contour>
      <point x="452" y="580" type="curve" smooth="yes"/>
      <point x="455" y="595"/>
      <point x="469" y="607"/>
      <point x="483" y="607" type="curve" smooth="yes"/>
      <point x="497" y="607"/>
      <point x="508" y="595"/>
      <point x="505" y="580" type="curve" smooth="yes"/>
      <point x="502" y="565"/>
      <point x="488" y="554"/>
      <point x="474" y="554" type="curve" smooth="yes"/>
      <point x="460" y="554"/>
      <point x="449" y="565"/>
    </contour>
    <contour>
      <point x="252" y="580" type="curve" smooth="yes"/>
      <point x="255" y="595"/>
      <point x="269" y="607"/>
      <point x="283" y="607" type="curve" smooth="yes"/>
      <point x="297" y="607"/>
      <point x="308" y="595"/>
      <point x="305" y="580" type="curve" smooth="yes"/>
      <point x="302" y="565"/>
      <point x="288" y="554"/>
      <point x="274" y="554" type="curve" smooth="yes"/>
      <point x="260" y="554"/>
      <point x="249" y="565"/>
    </contour>
  </outline>
</glyph>
<glyph name="divide" format="1">
  <advance width="586"/>
  <unicode hex="00F7"/>
  <outline>
    <contour>
      <point x="369" y="451" type="curve" smooth="yes"/>
      <point x="371" y="461"/>
      <point x="387" y="475"/>
      <point x="398" y="474" type="curve" smooth="yes"/>
      <point x="409" y="473"/>
      <point x="416" y="461"/>
      <point x="414" y="450" type="curve" smooth="yes"/>
      <point x="412" y="440"/>
      <point x="395" y="426"/>
      <point x="384" y="427" type="curve" smooth="yes"/>
      <point x="373" y="428"/>
      <point x="367" y="440"/>
    </contour>
    <contour>
      <point x="229" y="43" type="curve" smooth="yes"/>
      <point x="231" y="53"/>
      <point x="248" y="67"/>
      <point x="259" y="66" type="curve" smooth="yes"/>
      <point x="270" y="65"/>
      <point x="277" y="53"/>
      <point x="275" y="42" type="curve" smooth="yes"/>
      <point x="273" y="32"/>
      <point x="256" y="18"/>
      <point x="245" y="19" type="curve" smooth="yes"/>
      <point x="234" y="20"/>
      <point x="227" y="32"/>
    </contour>
    <contour>
      <point x="81" y="232" type="line"/>
      <point x="92" y="262" type="line"/>
      <point x="563" y="262" type="line"/>
      <point x="553" y="232" type="line"/>
    </contour>
  </outline>
</glyph>
<glyph name="oslash" format="1">
  <advance width="546"/>
  <unicode hex="00F8"/>
  <outline>
    <contour>
      <point x="82" y="230" type="curve" smooth="yes"/>
      <point x="107" y="369"/>
      <point x="226" y="470"/>
      <point x="359" y="470" type="curve" smooth="yes"/>
      <point x="492" y="470"/>
      <point x="577" y="369"/>
      <point x="552" y="230" type="curve" smooth="yes"/>
      <point x="527" y="91"/>
      <point x="407" y="-10"/>
      <point x="274" y="-10" type="curve" smooth="yes"/>
      <point x="141" y="-10"/>
      <point x="57" y="91"/>
    </contour>
    <contour>
      <point x="118" y="230" type="curve" smooth="yes"/>
      <point x="97" y="110"/>
      <point x="168" y="23"/>
      <point x="280" y="23" type="curve" smooth="yes"/>
      <point x="392" y="23"/>
      <point x="495" y="110"/>
      <point x="516" y="230" type="curve" smooth="yes"/>
      <point x="537" y="350"/>
      <point x="465" y="437"/>
      <point x="353" y="437" type="curve" smooth="yes"/>
      <point x="241" y="437"/>
      <point x="139" y="350"/>
    </contour>
    <contour>
      <point x="538" y="495" type="line"/>
      <point x="560" y="485" type="line"/>
      <point x="77" y="-39" type="line"/>
      <point x="56" y="-29" type="line"/>
    </contour>
  </outline>
</glyph>
